<svg width="150" height="50" viewBox="0 0 150 50" fill="none" xmlns="http://www.w3.org/2000/svg">
<g clip-path="url(#clip0_258_77865)">
<g clip-path="url(#clip1_258_77865)">
<path d="M137.668 0H11.918C11.459 0 11.005 0 10.549 0.003C10.167 0.005 9.786 0.013 9.4 0.019C8.561 0.028 7.723 0.101 6.895 0.237C6.069 0.378 5.268 0.642 4.52 1.021C3.772 1.404 3.089 1.902 2.495 2.496C1.899 3.088 1.403 3.772 1.024 4.521C0.644 5.27 0.381 6.072 0.243 6.9C0.104 7.727 0.029 8.564 0.019 9.402C0.007 9.786 0.007 10.171 0 10.554V39.45C0.007 39.837 0.008 40.212 0.019 40.601C0.029 41.44 0.104 42.277 0.244 43.104C0.381 43.933 0.644 44.736 1.024 45.485C1.403 46.232 1.9 46.912 2.497 47.5C3.087 48.096 3.77 48.594 4.519 48.974C5.267 49.354 6.068 49.619 6.895 49.761C7.724 49.897 8.561 49.971 9.4 49.983C9.788 49.991 10.167 49.996 10.549 49.996C11.007 49.999 11.459 49.999 11.918 49.999H137.668C138.118 49.999 138.573 49.999 139.023 49.996C139.403 49.996 139.794 49.991 140.175 49.984C141.013 49.973 141.849 49.898 142.675 49.761C143.505 49.618 144.309 49.353 145.06 48.974C145.808 48.594 146.491 48.096 147.081 47.5C147.677 46.909 148.175 46.228 148.559 45.483C148.936 44.733 149.197 43.93 149.333 43.101C149.472 42.274 149.549 41.438 149.564 40.599C149.569 40.211 149.569 39.836 149.569 39.447C149.579 38.992 149.579 38.541 149.579 38.08V11.92C149.579 11.463 149.579 11.008 149.569 10.555C149.569 10.173 149.569 9.787 149.564 9.405C149.549 8.566 149.472 7.729 149.333 6.901C149.197 6.074 148.935 5.272 148.558 4.522C147.786 3.019 146.563 1.795 145.06 1.022C144.309 0.644 143.505 0.38 142.675 0.239C141.849 0.101 141.013 0.028 140.175 0.019C139.794 0.012 139.403 0.005 139.023 0.002C138.573 0 138.117 0 137.668 0Z" fill="#A6A6A6"/>
<path d="M10.5588 48.9057C10.1778 48.9057 9.80675 48.9007 9.42875 48.8937C8.64575 48.8827 7.86475 48.8147 7.09175 48.6887C6.37175 48.5647 5.67375 48.3338 5.02175 48.0037C4.37475 47.6768 3.78575 47.2477 3.27575 46.7337C2.75775 46.2248 2.32675 45.6347 2.00075 44.9877C1.66875 44.3357 1.43975 43.6367 1.32075 42.9157C1.19175 42.1407 1.12275 41.3577 1.11275 40.5717C1.10375 40.3097 1.09375 39.4307 1.09375 39.4307V10.5557C1.09375 10.5557 1.10575 9.69075 1.11275 9.43675C1.12175 8.65275 1.19075 7.87075 1.31875 7.09675C1.43875 6.37375 1.66775 5.67375 1.99875 5.01975C2.32475 4.37275 2.75375 3.78275 3.26775 3.27175C3.78175 2.75675 4.37275 2.32575 5.02075 1.99375C5.67075 1.66475 6.36775 1.43575 7.08675 1.31375C7.86175 1.18675 8.64575 1.11775 9.43175 1.10875L10.5588 1.09375H139.02L140.162 1.10975C140.94 1.11875 141.716 1.18675 142.484 1.31275C143.211 1.43575 143.915 1.66675 144.573 1.99775C145.87 2.66575 146.926 3.72375 147.592 5.02175C147.917 5.67175 148.143 6.36675 148.26 7.08375C148.39 7.86375 148.463 8.65175 148.478 9.44275C148.482 9.79575 148.482 10.1778 148.482 10.5548C148.492 11.0238 148.492 11.4698 148.492 11.9198V38.0807C148.492 38.5347 148.492 38.9787 148.482 39.4247C148.482 39.8307 148.482 40.2038 148.477 40.5868C148.463 41.3638 148.391 42.1377 148.264 42.9037C148.148 43.6297 147.92 44.3337 147.589 44.9907C147.26 45.6317 146.831 46.2167 146.319 46.7237C145.808 47.2407 145.217 47.6717 144.569 48.0007C143.913 48.3337 143.21 48.5657 142.484 48.6887C141.712 48.8147 140.931 48.8827 140.148 48.8917C139.782 48.9007 139.398 48.9057 139.027 48.9057L137.672 48.9087L10.5588 48.9057Z" fill="black"/>
<path d="M30.9659 25.3734C30.9929 23.2534 32.1049 21.2954 33.9109 20.1844C32.7659 18.5494 30.9179 17.5504 28.9229 17.4874C26.8229 17.2674 24.7879 18.7434 23.7179 18.7434C22.6279 18.7434 20.9809 17.5084 19.2079 17.5454C16.8749 17.6214 14.7519 18.9154 13.6169 20.9554C11.1989 25.1404 13.0029 31.2924 15.3179 34.6764C16.4769 36.3324 17.8309 38.1824 19.6029 38.1174C21.3369 38.0444 21.9839 37.0104 24.0779 37.0104C26.1509 37.0104 26.7579 38.1174 28.5659 38.0764C30.4269 38.0444 31.5979 36.4114 32.7159 34.7384C33.5489 33.5584 34.1899 32.2534 34.6159 30.8734C32.4049 29.9394 30.9679 27.7734 30.9659 25.3734ZM27.5509 15.2614C28.5649 14.0434 29.0649 12.4784 28.9439 10.8984C27.3939 11.0614 25.9629 11.8024 24.9339 12.9734C23.9189 14.1284 23.4049 15.6394 23.5039 17.1734C25.0749 17.1894 26.5659 16.4844 27.5509 15.2614Z" fill="white"/>
<path d="M52.8821 33.9219H46.9671L45.5461 38.1169H43.0391L48.6441 22.5949H51.2481L56.8521 38.1169H54.3031L52.8821 33.9219ZM47.5781 31.9839H52.2681L49.9561 25.1769H49.8921L47.5781 31.9839ZM68.9541 32.4599C68.9541 35.9759 67.0721 38.2339 64.2311 38.2339C62.7631 38.3109 61.3801 37.5429 60.6711 36.2559H60.6171V41.8609H58.2921V26.7989H60.5421V28.6819H60.5831C61.3241 27.4029 62.7091 26.6339 64.1871 26.6819C67.0591 26.6819 68.9541 28.9519 68.9541 32.4599ZM66.5671 32.4599C66.5671 30.1679 65.3821 28.6619 63.5761 28.6619C61.8011 28.6619 60.6071 30.1989 60.6071 32.4599C60.6071 34.7399 61.8011 36.2669 63.5761 36.2669C65.3821 36.2669 66.5671 34.7709 66.5671 32.4599ZM81.4111 32.4599C81.4111 35.9759 79.5281 38.2339 76.6871 38.2339C75.2191 38.3109 73.8371 37.5429 73.1271 36.2559H73.0731V41.8609H70.7491V26.7989H72.9981V28.6819H73.0411C73.7821 27.4029 75.1661 26.6339 76.6441 26.6819C79.5171 26.6819 81.4111 28.9519 81.4111 32.4599ZM79.0231 32.4599C79.0231 30.1679 77.8381 28.6619 76.0321 28.6619C74.2571 28.6619 73.0631 30.1989 73.0631 32.4599C73.0631 34.7399 74.2571 36.2669 76.0321 36.2669C77.8381 36.2669 79.0231 34.7709 79.0231 32.4599ZM89.6421 33.7919C89.8141 35.3319 91.3091 36.3419 93.3541 36.3419C95.3121 36.3419 96.7211 35.3319 96.7211 33.9429C96.7211 32.7379 95.8711 32.0179 93.8581 31.5229L91.8471 31.0379C88.9971 30.3509 87.6731 29.0169 87.6731 26.8529C87.6731 24.1759 90.0071 22.3359 93.3221 22.3359C96.6021 22.3359 98.8511 24.1759 98.9261 26.8529H96.5811C96.4411 25.3039 95.1611 24.3689 93.2881 24.3689C91.4161 24.3689 90.1371 25.3159 90.1371 26.6919C90.1371 27.7889 90.9541 28.4359 92.9561 28.9289L94.6661 29.3489C97.8511 30.1029 99.1731 31.3819 99.1731 33.6529C99.1731 36.5569 96.8611 38.3759 93.1821 38.3759C89.7391 38.3759 87.4141 36.6009 87.2641 33.7919H89.6421ZM104.187 24.1219V26.7989H106.339V28.6389H104.187V34.8779C104.187 35.8479 104.618 36.2999 105.564 36.2999C105.82 36.2949 106.075 36.2769 106.328 36.2459V38.0749C105.903 38.1539 105.471 38.1899 105.038 38.1819C102.747 38.1819 101.853 37.3209 101.853 35.1259V28.6389H100.208V26.7989H101.853V24.1219H104.187ZM107.586 32.4599C107.586 28.8979 109.683 26.6609 112.953 26.6609C116.234 26.6609 118.322 28.8979 118.322 32.4599C118.322 36.0299 116.246 38.2569 112.953 38.2569C109.662 38.2569 107.586 36.0289 107.586 32.4599ZM115.954 32.4599C115.954 30.0169 114.836 28.5739 112.953 28.5739C111.071 28.5739 109.953 30.0269 109.953 32.4599C109.953 34.9119 111.071 36.3419 112.953 36.3419C114.836 36.3419 115.954 34.9119 115.954 32.4599ZM120.237 26.7989H122.453V28.7259H122.507C122.816 27.4869 123.952 26.6339 125.228 26.6819C125.496 26.6809 125.763 26.7099 126.024 26.7679V28.9409C125.686 28.8379 125.334 28.7899 124.981 28.8009C124.298 28.7729 123.637 29.0449 123.171 29.5459C122.706 30.0459 122.482 30.7249 122.559 31.4039V38.1169H120.237V26.7989ZM136.734 34.7929C136.422 36.8469 134.422 38.2569 131.862 38.2569C128.569 38.2569 126.526 36.0519 126.526 32.5129C126.526 28.9629 128.581 26.6609 131.763 26.6609C134.896 26.6609 136.863 28.8109 136.863 32.2429V33.0399H128.871V33.1789C128.796 34.0219 129.087 34.8559 129.67 35.4689C130.252 36.0819 131.07 36.4159 131.916 36.3839C133.042 36.4899 134.105 35.8429 134.528 34.7929H136.734ZM128.882 31.4159H134.539C134.582 30.6589 134.306 29.9179 133.78 29.3729C133.253 28.8279 132.522 28.5269 131.764 28.5429C131 28.5389 130.266 28.8389 129.725 29.3789C129.183 29.9179 128.88 30.6519 128.882 31.4159Z" fill="white"/>
<path d="M47.2868 10.9149C48.2738 10.8439 49.2398 11.2189 49.9198 11.9369C50.5998 12.6549 50.9217 13.6399 50.7967 14.6209C50.7967 17.0039 49.5098 18.3739 47.2868 18.3739H44.5938V10.9139L47.2868 10.9149ZM45.7518 17.3189H47.1587C47.8627 17.3599 48.5487 17.0819 49.0257 16.5619C49.5027 16.0419 49.7197 15.3339 49.6167 14.6359C49.7127 13.9409 49.4928 13.2389 49.0168 12.7229C48.5408 12.2059 47.8597 11.9299 47.1587 11.9679H45.7518V17.3189ZM52.1047 15.5559C52.0117 14.5489 52.4968 13.5759 53.3568 13.0439C54.2168 12.5119 55.3028 12.5119 56.1628 13.0439C57.0227 13.5759 57.5077 14.5489 57.4147 15.5559C57.5157 16.5669 57.0328 17.5479 56.1698 18.0849C55.3068 18.6219 54.2137 18.6219 53.3507 18.0849C52.4878 17.5479 52.0058 16.5669 52.1058 15.5559H52.1047ZM56.2717 15.5559C56.2717 14.3359 55.7237 13.6219 54.7627 13.6219C53.7957 13.6219 53.2537 14.3359 53.2537 15.5559C53.2537 16.7859 53.7957 17.4939 54.7627 17.4939C55.7247 17.4939 56.2717 16.7809 56.2717 15.5559ZM64.4708 18.3739H63.3187L62.1558 14.2269H62.0687L60.9097 18.3739H59.7687L58.2157 12.7449H59.3438L60.3507 17.0399H60.4347L61.5928 12.7449H62.6577L63.8148 17.0399H63.9027L64.9058 12.7449H66.0177L64.4708 18.3739ZM67.3218 12.7449H68.3908V13.6379H68.4738C68.7628 12.9799 69.4368 12.5779 70.1538 12.6359C70.7088 12.5939 71.2517 12.8069 71.6307 13.2139C72.0097 13.6219 72.1838 14.1789 72.1017 14.7299V18.3739H70.9907V15.0089C70.9907 14.1039 70.5988 13.6539 69.7758 13.6539C69.3998 13.6359 69.0348 13.7839 68.7768 14.0579C68.5178 14.3319 68.3928 14.7049 68.4318 15.0799V18.3739H67.3218V12.7449ZM73.8717 10.5469H74.9817V18.3719H73.8717V10.5469ZM76.5268 15.5559C76.4318 14.5479 76.9158 13.5719 77.7768 13.0389C78.6368 12.5049 79.7257 12.5049 80.5868 13.0389C81.4478 13.5719 81.9318 14.5479 81.8358 15.5559C81.9368 16.5669 81.4537 17.5479 80.5907 18.0849C79.7277 18.6219 78.6347 18.6219 77.7717 18.0849C76.9097 17.5479 76.4268 16.5669 76.5268 15.5559ZM80.6938 15.5559C80.6938 14.3359 80.1447 13.6219 79.1838 13.6219C78.2168 13.6219 77.6747 14.3359 77.6747 15.5559C77.6747 16.7859 78.2168 17.4929 79.1838 17.4929C80.1458 17.4929 80.6938 16.7809 80.6938 15.5559ZM83.0047 16.7809C83.0047 15.7689 83.7598 15.1829 85.0998 15.1009L86.6248 15.0129V14.5269C86.6248 13.9339 86.2308 13.5969 85.4728 13.5969C84.8507 13.5969 84.4227 13.8249 84.2987 14.2219H83.2238C83.3358 13.2559 84.2457 12.6349 85.5237 12.6349C86.9337 12.6349 87.7297 13.3389 87.7297 14.5269V18.3739H86.6607V17.5819H86.5737C86.2098 18.1599 85.5637 18.4979 84.8827 18.4659C84.4047 18.5159 83.9278 18.3609 83.5698 18.0399C83.2128 17.7189 83.0067 17.2619 83.0047 16.7809ZM86.6238 16.3009V15.8299L85.2488 15.9169C84.4738 15.9699 84.1238 16.2329 84.1238 16.7299C84.1238 17.2359 84.5618 17.5299 85.1658 17.5299C85.5238 17.5659 85.8797 17.4549 86.1548 17.2239C86.4298 16.9919 86.5988 16.6589 86.6238 16.3009ZM89.1897 15.5559C89.1897 13.7769 90.1048 12.6509 91.5268 12.6509C92.2448 12.6179 92.9168 13.0029 93.2518 13.6379H93.3358V10.5469H94.4458V18.3719H93.3817V17.4849H93.2948C92.9338 18.1149 92.2518 18.4929 91.5258 18.4659C90.0948 18.4659 89.1897 17.3399 89.1897 15.5559ZM90.3368 15.5559C90.3368 16.7499 90.8997 17.4679 91.8407 17.4679C92.7787 17.4679 93.3557 16.7399 93.3557 15.5609C93.3557 14.3879 92.7707 13.6479 91.8407 13.6479C90.9057 13.6479 90.3368 14.3729 90.3368 15.5559ZM99.0418 15.5559C98.9468 14.5479 99.4308 13.5719 100.292 13.0389C101.152 12.5049 102.241 12.5049 103.102 13.0389C103.963 13.5719 104.447 14.5479 104.351 15.5559C104.452 16.5669 103.969 17.5479 103.106 18.0849C102.243 18.6219 101.15 18.6219 100.287 18.0849C99.4247 17.5479 98.9418 16.5669 99.0418 15.5559ZM103.209 15.5559C103.209 14.3359 102.661 13.6219 101.699 13.6219C100.734 13.6219 100.19 14.3359 100.19 15.5559C100.19 16.7859 100.734 17.4929 101.699 17.4929C102.661 17.4929 103.209 16.7809 103.209 15.5559ZM105.842 12.7449H106.911V13.6379H106.994C107.283 12.9799 107.957 12.5779 108.674 12.6359C109.229 12.5939 109.772 12.8069 110.151 13.2139C110.53 13.6219 110.704 14.1789 110.622 14.7299V18.3729H109.511V15.0079C109.511 14.1029 109.119 13.6529 108.296 13.6529C107.92 13.6359 107.555 13.7839 107.297 14.0579C107.038 14.3319 106.913 14.7049 106.953 15.0799V18.3729H105.841L105.842 12.7449ZM116.899 11.3429V12.7699H118.119V13.7059H116.899V16.5999C116.899 17.1899 117.141 17.4479 117.695 17.4479C117.837 17.4479 117.978 17.4389 118.119 17.4219V18.3469C117.919 18.3829 117.717 18.4019 117.514 18.4049C116.279 18.4049 115.787 17.9699 115.787 16.8849V13.7059H114.894V12.7699H115.787V11.3439L116.899 11.3429ZM119.636 10.5469H120.736V13.6479H120.824C121.127 12.9839 121.814 12.5809 122.541 12.6409C123.093 12.6109 123.629 12.8289 124.004 13.2349C124.378 13.6399 124.553 14.1919 124.479 14.7399V18.3729H123.367V15.0139C123.367 14.1139 122.949 13.6589 122.164 13.6589C121.777 13.6269 121.396 13.7669 121.123 14.0429C120.85 14.3179 120.712 14.6999 120.746 15.0859V18.3739H119.636V10.5469ZM130.956 16.8529C130.645 17.9149 129.618 18.6009 128.519 18.4819C127.768 18.5029 127.046 18.1919 126.545 17.6319C126.044 17.0719 125.814 16.3199 125.917 15.5759C125.818 14.8299 126.047 14.0779 126.544 13.5139C127.042 12.9499 127.76 12.6299 128.512 12.6359C130.079 12.6359 131.024 13.7059 131.024 15.4729V15.8609H127.049V15.9229C127.013 16.3409 127.156 16.7549 127.442 17.0619C127.727 17.3689 128.129 17.5409 128.549 17.5359C129.092 17.5999 129.62 17.3309 129.886 16.8529H130.956ZM127.049 15.0399H129.892C129.921 14.6569 129.787 14.2809 129.523 14.0029C129.259 13.7249 128.889 13.5719 128.506 13.5809C128.118 13.5759 127.744 13.7279 127.47 14.0029C127.196 14.2779 127.044 14.6519 127.049 15.0399Z" fill="white"/>
</g>
</g>
<defs>
<clipPath id="clip0_258_77865">
<rect width="150" height="50" fill="white"/>
</clipPath>
<clipPath id="clip1_258_77865">
<rect width="150" height="50" fill="white"/>
</clipPath>
</defs>
</svg>
