<svg width="28" height="28" viewBox="0 0 28 28" fill="none" xmlns="http://www.w3.org/2000/svg">
<g clip-path="url(#clip0_458_13982)">
<g clip-path="url(#clip1_458_13982)">
<path d="M23.1924 6.28607C21.3806 5.53581 19.4856 5.00788 17.5472 4.71143C17.2815 5.14243 17.0398 5.58826 16.8243 6.04549C14.7457 5.76157 12.6374 5.76157 10.5588 6.04549C10.3421 5.58826 10.1004 5.14243 9.83473 4.71143C7.89521 5.01016 5.99788 5.54037 4.18493 6.29063C0.612607 11.0864 -0.356583 15.7613 0.128012 20.3724C2.25111 21.7885 4.5897 22.8535 7.05259 23.5251C7.61244 22.841 8.10843 22.1158 8.53488 21.3553C7.73102 21.0839 6.94997 20.7452 6.20084 20.345C6.39582 20.2162 6.58737 20.0828 6.77323 19.9539C8.96246 20.8821 11.3159 21.3598 13.6944 21.3564C16.0877 21.3564 18.4503 20.8775 20.6155 19.9539C20.8037 20.0919 20.9952 20.2264 21.1891 20.345C20.4434 20.7441 19.66 21.0827 18.8493 21.3575C19.2792 22.1226 19.7752 22.8478 20.3328 23.5251C22.7968 22.8558 25.1365 21.792 27.2608 20.3735C27.8297 15.0282 26.2904 10.3943 23.1924 6.28607ZM9.14831 17.5367C7.79829 17.5367 6.68315 16.4249 6.68315 15.0589C6.68315 13.6918 7.76066 12.5721 9.14375 12.5721C9.8028 12.5687 10.4356 12.8298 10.8997 13.2984C11.3638 13.7659 11.6203 14.401 11.6112 15.0601C11.5873 16.4261 10.5246 17.5367 9.14831 17.5367ZM18.2405 17.5367C16.8893 17.5367 15.7776 16.4249 15.7776 15.0589C15.7776 13.6918 16.8539 12.5721 18.2405 12.5721C18.8995 12.5676 19.5312 12.8298 19.9941 13.2984C20.457 13.7659 20.7125 14.401 20.7011 15.0601C20.6771 16.4261 19.6156 17.5367 18.2405 17.5367Z" fill="white"/>
</g>
</g>
<defs>
<clipPath id="clip0_458_13982">
<rect width="27.3654" height="27.3654" fill="white" transform="translate(0.0117188 0.435791)"/>
</clipPath>
<clipPath id="clip1_458_13982">
<rect width="27.3654" height="27.3654" fill="white" transform="translate(0.0117188 0.435791)"/>
</clipPath>
</defs>
</svg>
