<svg width="149" height="50" viewBox="0 0 149 50" fill="none" xmlns="http://www.w3.org/2000/svg">
<g clip-path="url(#clip0_258_77875)">
<g clip-path="url(#clip1_258_77875)">
<path d="M143.474 47.26H5.52C2.478 47.26 0 44.766 0 41.728V8.533C0 5.483 2.478 3 5.52 3H143.474C146.514 3 148.995 5.483 148.995 8.533V41.728C148.995 44.766 146.514 47.26 143.474 47.26Z" fill="black"/>
<path d="M143.474 3.886C146.026 3.886 148.115 5.975 148.115 8.533V41.728C148.115 44.286 146.04 46.375 143.474 46.375H5.52C2.968 46.375 0.88 44.286 0.88 41.728V8.533C0.88 5.975 2.955 3.886 5.52 3.886H143.474ZM143.474 3H5.52C2.478 3 0 5.494 0 8.533V41.728C0 44.777 2.478 47.26 5.52 47.26H143.474C146.514 47.26 148.995 44.777 148.995 41.728V8.533C148.995 5.494 146.514 3 143.474 3Z" fill="#A6A6A6"/>
<path d="M76.9639 17.6394C75.9689 17.6394 75.1299 17.2894 74.4669 16.5994C73.8089 15.9284 73.4419 15.0044 73.4579 14.0604C73.4579 13.0534 73.7979 12.2014 74.4669 11.5244C75.1269 10.8354 75.9659 10.4844 76.9609 10.4844C77.9449 10.4844 78.7839 10.8354 79.4579 11.5244C80.1269 12.2234 80.4669 13.0754 80.4669 14.0604C80.4559 15.0704 80.1159 15.9234 79.4579 16.5964C78.7969 17.2924 77.9589 17.6394 76.9639 17.6394ZM47.9639 17.6394C46.9909 17.6394 46.1459 17.2944 45.4559 16.6134C44.7699 15.9344 44.4219 15.0764 44.4219 14.0634C44.4219 13.0504 44.7699 12.1924 45.4559 11.5134C46.1329 10.8324 46.9769 10.4874 47.9639 10.4874C48.4459 10.4874 48.9149 10.5844 49.3639 10.7794C49.8059 10.9704 50.1649 11.2294 50.4299 11.5474L50.4959 11.6274L49.7529 12.3614L49.6769 12.2704C49.2569 11.7674 48.6949 11.5224 47.9529 11.5224C47.2889 11.5224 46.7109 11.7594 46.2339 12.2284C45.7539 12.7004 45.5099 13.3184 45.5099 14.0664C45.5099 14.8144 45.7539 15.4324 46.2339 15.9044C46.7109 16.3734 47.2889 16.6104 47.9529 16.6104C48.6599 16.6104 49.2549 16.3734 49.7179 15.9044C49.9919 15.6284 50.1619 15.2414 50.2219 14.7534H47.8399V13.7214H51.2449L51.2579 13.8154C51.2829 13.9894 51.3079 14.1684 51.3079 14.3344C51.3079 15.2864 51.0229 16.0554 50.4579 16.6244C49.8159 17.2974 48.9779 17.6394 47.9639 17.6394ZM86.5589 17.4934H85.5089L82.2939 12.3144L82.3209 13.2464V17.4904H81.2709V10.6334H82.4689L82.5019 10.6864L85.5249 15.5644L85.4979 14.6344V10.6334H86.5589V17.4934ZM69.2239 17.4934H68.1609V11.6654H66.3159V10.6334H71.0659V11.6654H69.2209V17.4934H69.2239ZM65.4889 17.4934H64.4279V10.6334H65.4889V17.4934ZM59.6869 17.4934H58.6259V11.6654H56.7809V10.6334H61.5309V11.6654H59.6869V17.4934ZM56.2069 17.4824H52.1389V10.6334H56.2069V11.6654H53.2019V13.5474H55.9129V14.5684H53.2019V16.4504H56.2069V17.4824ZM75.2229 15.8904C75.6969 16.3674 76.2729 16.6074 76.9409 16.6074C77.6289 16.6074 78.1909 16.3734 78.6599 15.8904C79.1259 15.4214 79.3619 14.8054 79.3619 14.0634C79.3619 13.3214 79.1259 12.7034 78.6629 12.2364C78.1889 11.7594 77.6099 11.5194 76.9439 11.5194C76.2559 11.5194 75.6939 11.7544 75.2279 12.2364C74.7619 12.7064 74.5269 13.3214 74.5269 14.0634C74.5269 14.8054 74.7599 15.4234 75.2229 15.8904Z" fill="white"/>
<path d="M73.4578 27.0737C70.8678 27.0737 68.7677 29.0517 68.7677 31.7807C68.7677 34.4857 70.8818 36.4887 73.4578 36.4887C76.0478 36.4887 78.1477 34.4967 78.1477 31.7807C78.1477 29.0517 76.0478 27.0737 73.4578 27.0737ZM73.4158 34.6237C71.9988 34.6237 70.7788 33.4427 70.7788 31.7697C70.7788 30.0727 72.0018 28.9167 73.4158 28.9167C74.8328 28.9167 76.0527 30.0727 76.0527 31.7697C76.0557 33.4537 74.8328 34.6237 73.4158 34.6237ZM63.4347 27.0737C60.8447 27.0737 58.7448 29.0517 58.7448 31.7807C58.7448 34.4857 60.8577 36.4887 63.4347 36.4887C66.0247 36.4887 68.1248 34.4967 68.1248 31.7807C68.1248 29.0517 66.0217 27.0737 63.4347 27.0737ZM63.3927 34.6237C61.9757 34.6237 60.7557 33.4427 60.7557 31.7697C60.7557 30.0727 61.9788 28.9167 63.3927 28.9167C64.8097 28.9167 66.0298 30.0727 66.0298 31.7697C66.0298 33.4537 64.8097 34.6237 63.3927 34.6237ZM51.5617 28.5107V30.5037H56.3117C56.1667 31.6207 55.7998 32.4457 55.2378 33.0117C54.5418 33.7127 53.4668 34.4747 51.5728 34.4747C48.6538 34.4747 46.3708 32.1007 46.3708 29.1627C46.3708 26.2237 48.6538 23.8507 51.5728 23.8507C53.1488 23.8507 54.2977 24.4767 55.1497 25.2767L56.5537 23.8647C55.3687 22.7217 53.7927 21.8477 51.5837 21.8477C47.5797 21.8477 44.2188 25.1307 44.2188 29.1517C44.2188 33.1827 47.5767 36.4557 51.5837 36.4557C53.7467 36.4557 55.3687 35.7437 56.6517 34.4027C57.9597 33.0867 58.3737 31.2287 58.3737 29.7307C58.3737 29.2647 58.3377 28.8447 58.2637 28.4887H51.5597C51.5617 28.4867 51.5617 28.5107 51.5617 28.5107ZM100.368 30.0617C99.9757 29.0047 98.7918 27.0627 96.3638 27.0627C93.9567 27.0627 91.9557 28.9697 91.9557 31.7697C91.9557 34.4137 93.9348 36.4777 96.5968 36.4777C98.7338 36.4777 99.9787 35.1617 100.491 34.3887L98.9038 33.3177C98.3778 34.1047 97.6457 34.6207 96.6067 34.6207C95.5577 34.6207 94.8228 34.1407 94.3348 33.1937L100.587 30.5867C100.587 30.5887 100.368 30.0617 100.368 30.0617ZM93.9507 31.6347C93.9017 29.8167 95.3537 28.8917 96.3927 28.8917C97.2127 28.8917 97.8947 29.2977 98.1278 29.8877L93.9507 31.6347ZM88.9757 36.1957H91.0288V22.3657H88.9757V36.1957ZM85.8167 28.1197H85.7427C85.2787 27.5647 84.3988 27.0627 83.2758 27.0627C80.9428 27.0627 78.7938 29.1297 78.7938 31.7837C78.7938 34.4277 80.9318 36.4697 83.2758 36.4697C84.3858 36.4697 85.2787 35.9647 85.7427 35.3987H85.8167V36.0747C85.8167 37.8707 84.8627 38.8397 83.3247 38.8397C82.0667 38.8397 81.2857 37.9287 80.9677 37.1677L79.1828 37.9177C79.6958 39.1597 81.0638 40.6967 83.3218 40.6967C85.7288 40.6967 87.7677 39.2697 87.7677 35.7907V27.3437H85.8267V28.1197H85.8167ZM83.4168 34.6237C81.9998 34.6237 80.8157 33.4307 80.8157 31.7837C80.8157 30.1227 81.9998 28.9197 83.4168 28.9197C84.8198 28.9197 85.9087 30.1367 85.9087 31.7837C85.9217 33.4307 84.8228 34.6237 83.4168 34.6237ZM109.713 22.3657H104.804V36.1957H106.857V30.9587H109.716C111.988 30.9587 114.222 29.3007 114.222 26.6677C114.222 24.0357 111.996 22.3657 109.713 22.3657ZM109.731 29.0267H106.812V24.2807H109.731C111.269 24.2807 112.138 25.5587 112.138 26.6537C112.138 27.7387 111.258 29.0267 109.731 29.0267ZM122.17 27.0487C120.679 27.0487 119.141 27.7137 118.505 29.1627L120.325 29.9237C120.717 29.1627 121.435 28.9027 122.194 28.9027C123.258 28.9027 124.332 29.5427 124.357 30.6857V30.8317C123.99 30.6217 123.184 30.3017 122.219 30.3017C120.254 30.3017 118.261 31.3837 118.261 33.4117C118.261 35.2687 119.873 36.4607 121.668 36.4607C123.047 36.4607 123.806 35.8347 124.28 35.1087H124.354V36.1797H126.333V30.8817C126.333 28.4147 124.513 27.0487 122.17 27.0487ZM121.87 34.6237C121.199 34.6237 120.259 34.2917 120.259 33.4427C120.259 32.3717 121.432 31.9657 122.432 31.9657C123.337 31.9657 123.765 32.1617 124.302 32.4327C124.154 33.6737 123.112 34.6117 121.87 34.6237ZM133.385 27.3437L131.028 33.3427H130.954L128.512 27.3437H126.303L129.967 35.7297L127.879 40.3907H130.017L135.655 27.3437H133.385ZM115.138 36.1957H117.191V22.3657H115.138V36.1957Z" fill="white"/>
<path d="M11.4698 11.3357C11.1518 11.6807 10.9688 12.2077 10.9688 12.8977V37.3647C10.9688 38.0547 11.1518 38.5817 11.4808 38.9127L11.5658 38.9877L25.1827 25.2787V24.9727L11.5548 11.2617L11.4698 11.3357Z" fill="url(#paint0_linear_258_77875)"/>
<path d="M29.7139 29.8634L25.1719 25.2904V24.9704L29.7139 20.3984L29.8129 20.4594L35.1849 23.5334C36.7229 24.4054 36.7229 25.8454 35.1849 26.7284L29.8129 29.8024L29.7139 29.8634Z" fill="url(#paint1_linear_258_77875)"/>
<path d="M29.8118 29.8048L25.1707 25.1328L11.4688 38.9268C11.9707 39.4678 12.8117 39.5288 13.7527 39.0018L29.8118 29.8048Z" fill="url(#paint2_linear_258_77875)"/>
<path d="M29.8118 20.46L13.7527 11.276C12.8117 10.736 11.9678 10.81 11.4688 11.351L25.1707 25.131L29.8118 20.46Z" fill="url(#paint3_linear_258_77875)"/>
<path opacity="0.2" d="M29.7174 29.7031L13.7674 38.8251C12.8774 39.3411 12.0824 39.3051 11.5694 38.8361L11.4844 38.9221L11.5694 38.9961C12.0824 39.4621 12.8774 39.5011 13.7674 38.9851L29.8274 29.8021L29.7174 29.7031Z" fill="black"/>
<path opacity="0.12" d="M35.1871 26.5708L29.7031 29.7058L29.8011 29.8048L35.1741 26.7308C35.9441 26.2888 36.3221 25.7098 36.3221 25.1328C36.2751 25.6628 35.8841 26.1648 35.1871 26.5708Z" fill="black"/>
<path opacity="0.25" d="M13.7537 11.4332L35.1847 23.6912C35.8818 24.0852 36.2728 24.6012 36.3338 25.1282C36.3338 24.5522 35.9557 23.9722 35.1847 23.5312L13.7537 11.2732C12.2157 10.3882 10.9688 11.1272 10.9688 12.8962V13.0562C10.9688 11.2842 12.2157 10.5592 13.7537 11.4332Z" fill="white"/>
</g>
</g>
<defs>
<linearGradient id="paint0_linear_258_77875" x1="25.0829" y1="11.2617" x2="2.70281" y2="22.8986" gradientUnits="userSpaceOnUse">
<stop stop-color="#00A0FF"/>
<stop offset="1" stop-color="#00E3FF"/>
</linearGradient>
<linearGradient id="paint1_linear_258_77875" x1="36.3384" y1="25.1072" x2="25.172" y2="25.1734" gradientUnits="userSpaceOnUse">
<stop stop-color="#FFE000"/>
<stop offset="1" stop-color="#FF9C00"/>
</linearGradient>
<linearGradient id="paint2_linear_258_77875" x1="29.6831" y1="25.1328" x2="16.1363" y2="42.8391" gradientUnits="userSpaceOnUse">
<stop stop-color="#FF3A44"/>
<stop offset="1" stop-color="#C31162"/>
</linearGradient>
<linearGradient id="paint3_linear_258_77875" x1="11.4691" y1="10.9062" x2="25.2455" y2="28.6717" gradientUnits="userSpaceOnUse">
<stop stop-color="#32A071"/>
<stop offset="1" stop-color="#00F076"/>
</linearGradient>
<clipPath id="clip0_258_77875">
<rect width="149" height="44" fill="white" transform="translate(0 3)"/>
</clipPath>
<clipPath id="clip1_258_77875">
<rect width="149" height="44" fill="white" transform="translate(0 3)"/>
</clipPath>
</defs>
</svg>
