<svg width="28" height="28" viewBox="0 0 28 28" fill="none" xmlns="http://www.w3.org/2000/svg">
<g clip-path="url(#clip0_458_13977)">
<g clip-path="url(#clip1_458_13977)">
<path d="M9.03644 24.9938C19.0396 24.9938 24.5138 16.6987 24.5138 9.5153C24.5138 9.28269 24.5138 9.05009 24.5024 8.81634C25.5685 8.04441 26.4876 7.0889 27.2184 5.99429C26.2424 6.42985 25.1911 6.71605 24.0885 6.85402C25.2265 6.1733 26.0782 5.10263 26.4864 3.84041C25.418 4.47437 24.2482 4.91906 23.0281 5.15623C22.0008 4.05819 20.5641 3.43563 19.0601 3.43677C16.0557 3.44019 13.6213 5.87571 13.619 8.87905C13.619 9.30436 13.6714 9.71712 13.757 10.1208C9.23826 9.89841 5.2281 7.72287 2.54401 4.43446C2.0617 5.26569 1.80971 6.21093 1.81199 7.17214C1.81199 8.9908 2.71846 10.6897 4.2304 11.7011C3.36725 11.6715 2.52463 11.4389 1.76866 11.0227V11.0968C1.77094 13.6851 3.59302 15.9154 6.12887 16.433C5.66252 16.5619 5.18021 16.6257 4.69675 16.6234C4.35582 16.6246 4.0149 16.5927 3.67967 16.5288C4.39003 18.7454 6.43217 20.263 8.75937 20.3052C6.83353 21.8206 4.45274 22.6427 2.0024 22.6393C1.56798 22.6393 1.13241 22.6176 0.708252 22.5652C3.19622 24.1523 6.08554 24.995 9.03644 24.9938Z" fill="white"/>
</g>
</g>
<defs>
<clipPath id="clip0_458_13977">
<rect width="27.3654" height="27.3654" fill="white" transform="translate(0.280518 0.435791)"/>
</clipPath>
<clipPath id="clip1_458_13977">
<rect width="27.3654" height="27.3654" fill="white" transform="translate(0.280518 0.435791)"/>
</clipPath>
</defs>
</svg>
