<svg width="19" height="17" viewBox="0 0 19 17" fill="none" xmlns="http://www.w3.org/2000/svg">
<path d="M17.8898 4.33794C17.7998 4.66794 17.3998 5.49794 16.7198 6.28794C16.2698 14.9679 7.84975 17.7879 2.07975 14.8779C1.28975 13.8279 4.92975 14.2579 6.25975 12.2479C1.22975 9.67794 1.62975 2.80794 2.63975 3.08794C5.00975 6.27794 8.82975 6.56794 9.44975 6.27794C9.44975 5.54794 9.13975 3.95794 10.8598 2.62794C11.8498 1.91794 13.9198 1.28794 15.7898 3.31794C16.1098 3.52794 16.5698 3.61794 17.2598 3.46794C17.6698 3.25794 18.2098 3.39794 17.9298 4.12794L17.8898 4.33794Z" stroke="#E07E27" stroke-width="2" stroke-linecap="round" stroke-linejoin="round"/>
</svg>
