<svg width="29" height="28" viewBox="0 0 29 28" fill="none" xmlns="http://www.w3.org/2000/svg">
<g clip-path="url(#clip0_458_13989)">
<path d="M8.45993 6.31494C12.7225 6.31494 16.1776 9.79424 16.1776 14.0859C16.1776 18.3775 12.7222 21.8566 8.45993 21.8566C4.19764 21.8566 0.741943 18.3775 0.741943 14.0859C0.741943 9.79424 4.1974 6.31494 8.45993 6.31494ZM20.785 6.77013C22.9163 6.77013 24.644 10.0452 24.644 14.0859H24.6442C24.6442 18.1256 22.9165 21.4016 20.7852 21.4016C18.654 21.4016 16.9263 18.1256 16.9263 14.0859C16.9263 10.0462 18.6537 6.77013 20.785 6.77013ZM26.7501 7.53212C27.4995 7.53212 28.1073 10.4663 28.1073 14.0859C28.1073 17.7044 27.4997 20.6396 26.7501 20.6396C26.0004 20.6396 25.3931 17.7052 25.3931 14.0859C25.3931 10.4666 26.0007 7.53212 26.7501 7.53212Z" fill="white"/>
</g>
<defs>
<clipPath id="clip0_458_13989">
<rect width="27.3654" height="27.3654" fill="white" transform="translate(0.741943 0.435791)"/>
</clipPath>
</defs>
</svg>
