<svg width="22" height="22" viewBox="0 0 22 22" fill="none" xmlns="http://www.w3.org/2000/svg">
<path d="M18.1401 10.5057V7.97432L13.3385 3.19564H6.1965C5.46359 3.19564 4.86943 3.78979 4.86943 4.5227V8.50324M18.0934 7.95214L13.3366 3.19531V6.62507C13.3366 7.35799 13.9308 7.95214 14.6637 7.95214H18.0934ZM6.78263 8.50324H4.83488C4.10196 8.50324 3.50781 9.09737 3.50781 9.83033V16.4656C3.50781 17.9315 4.69611 19.1198 6.16194 19.1198H16.7785C18.2443 19.1198 19.4326 17.9315 19.4326 16.4656V11.8328C19.4326 11.0998 18.8384 10.5057 18.1055 10.5057H9.90466C9.55652 10.5057 9.22222 10.3688 8.974 10.1246L7.71334 8.88436C7.46512 8.64011 7.13085 8.50324 6.78263 8.50324Z" stroke="#FAFAFA" stroke-width="1.27398" stroke-miterlimit="10" stroke-linecap="round" stroke-linejoin="round"/>
</svg>
