<svg width="32" height="32" viewBox="0 0 32 32" fill="none" xmlns="http://www.w3.org/2000/svg">
<g id="ri:camera-fill">
<rect width="32.1407" height="32.1407" transform="translate(0 -0.625)" fill="#E07E27"/>
<path id="Vector" d="M13.0542 6.40625H19.0806L21.0894 8.41504H25.107C25.3734 8.41504 25.6288 8.52086 25.8172 8.70923C26.0056 8.89759 26.1114 9.15306 26.1114 9.41944V23.481C26.1114 23.7474 26.0056 24.0029 25.8172 24.1912C25.6288 24.3796 25.3734 24.4854 25.107 24.4854H7.02783C6.76145 24.4854 6.50598 24.3796 6.31762 24.1912C6.12926 24.0029 6.02344 23.7474 6.02344 23.481V9.41944C6.02344 9.15306 6.12926 8.89759 6.31762 8.70923C6.50598 8.52086 6.76145 8.41504 7.02783 8.41504H11.0454L13.0542 6.40625ZM16.0674 22.4766C17.6657 22.4766 19.1985 21.8417 20.3287 20.7115C21.4589 19.5813 22.0938 18.0485 22.0938 16.4502C22.0938 14.8519 21.4589 13.3191 20.3287 12.1889C19.1985 11.0588 17.6657 10.4238 16.0674 10.4238C14.4691 10.4238 12.9363 11.0588 11.8061 12.1889C10.6759 13.3191 10.041 14.8519 10.041 16.4502C10.041 18.0485 10.6759 19.5813 11.8061 20.7115C12.9363 21.8417 14.4691 22.4766 16.0674 22.4766ZM16.0674 20.4678C15.0019 20.4678 13.98 20.0445 13.2265 19.2911C12.4731 18.5376 12.0498 17.5157 12.0498 16.4502C12.0498 15.3847 12.4731 14.3628 13.2265 13.6094C13.98 12.8559 15.0019 12.4326 16.0674 12.4326C17.1329 12.4326 18.1548 12.8559 18.9083 13.6094C19.6617 14.3628 20.085 15.3847 20.085 16.4502C20.085 17.5157 19.6617 18.5376 18.9083 19.2911C18.1548 20.0445 17.1329 20.4678 16.0674 20.4678Z" fill="black"/>
</g>
</svg>
