<svg width="28" height="28" viewBox="0 0 28 28" fill="none" xmlns="http://www.w3.org/2000/svg">
<path d="M11.0781 17.9669V10.0074C11.0783 9.90782 11.1052 9.81011 11.1561 9.72452C11.2071 9.63893 11.28 9.56861 11.3675 9.52092C11.4549 9.47323 11.5535 9.44994 11.6531 9.45348C11.7526 9.45701 11.8493 9.48726 11.9331 9.54103L18.1248 13.5197C18.2032 13.5699 18.2677 13.639 18.3124 13.7207C18.3571 13.8024 18.3805 13.894 18.3805 13.9871C18.3805 14.0803 18.3571 14.1719 18.3124 14.2536C18.2677 14.3353 18.2032 14.4044 18.1248 14.4546L11.9331 18.4344C11.8493 18.4881 11.7526 18.5184 11.6531 18.5219C11.5535 18.5255 11.4549 18.5022 11.3675 18.4545C11.28 18.4068 11.2071 18.3365 11.1561 18.2509C11.1052 18.1653 11.0783 18.0676 11.0781 17.968V17.9669Z" fill="white"/>
<path d="M1.64062 13.9802C1.64062 7.23443 7.10943 1.76562 13.8552 1.76562C20.601 1.76562 26.0698 7.23443 26.0698 13.9802C26.0698 20.726 20.601 26.1948 13.8552 26.1948C7.10943 26.1948 1.64062 20.726 1.64062 13.9802ZM13.8552 3.43125C11.0575 3.43125 8.37428 4.54265 6.39597 6.52097C4.41765 8.49928 3.30625 11.1825 3.30625 13.9802C3.30625 16.778 4.41765 19.4611 6.39597 21.4394C8.37428 23.4178 11.0575 24.5292 13.8552 24.5292C16.653 24.5292 19.3361 23.4178 21.3144 21.4394C23.2928 19.4611 24.4042 16.778 24.4042 13.9802C24.4042 11.1825 23.2928 8.49928 21.3144 6.52097C19.3361 4.54265 16.653 3.43125 13.8552 3.43125Z" fill="white"/>
</svg>
