<svg width="102" height="103" viewBox="0 0 102 103" fill="none" xmlns="http://www.w3.org/2000/svg">
<g id="Group 1000001961" filter="url(#filter0_d_435_26720)">
<path id="Vector" d="M40.7628 65.9638C40.2217 65.9638 39.7028 65.7488 39.3202 65.3662C38.9376 64.9836 38.7227 64.4647 38.7227 63.9236V39.4414C38.7228 39.0938 38.8119 38.752 38.9812 38.4484C39.1506 38.1449 39.3948 37.8896 39.6905 37.7069C39.9862 37.5242 40.3238 37.4201 40.671 37.4044C41.0183 37.3888 41.3638 37.4621 41.6748 37.6175L66.157 49.8586C66.4954 50.0282 66.78 50.2887 66.9788 50.6108C67.1777 50.9329 67.283 51.304 67.283 51.6825C67.283 52.0611 67.1777 52.4322 66.9788 52.7543C66.78 53.0764 66.4954 53.3368 66.157 53.5064L41.6748 65.7475C41.3917 65.8894 41.0795 65.9635 40.7628 65.9638Z" fill="black"/>
<path id="Vector_2" d="M50.961 23.125C45.3119 23.125 39.7896 24.8002 35.0925 27.9387C30.3954 31.0771 26.7345 35.538 24.5726 40.7571C22.4108 45.9763 21.8452 51.7192 22.9473 57.2598C24.0494 62.8004 26.7697 67.8898 30.7642 71.8843C34.7588 75.8789 39.8481 78.5992 45.3887 79.7013C50.9293 80.8034 56.6723 80.2377 61.8914 78.0759C67.1105 75.9141 71.5714 72.2531 74.7099 67.556C77.8484 62.859 79.5235 57.3367 79.5235 51.6875C79.5235 44.1123 76.5143 36.8473 71.1578 31.4908C65.8012 26.1343 58.5363 23.125 50.961 23.125ZM66.1542 53.5135L41.672 65.7546C41.3609 65.9101 41.0152 65.9834 40.6678 65.9677C40.3203 65.9519 39.9827 65.8476 39.6869 65.6647C39.3911 65.4817 39.147 65.2262 38.9777 64.9224C38.8085 64.6185 38.7197 64.2764 38.7199 63.9286V39.4465C38.7201 39.0988 38.8091 38.757 38.9785 38.4534C39.1479 38.1499 39.392 37.8946 39.6878 37.7119C39.9835 37.5292 40.321 37.4251 40.6683 37.4094C41.0156 37.3938 41.3611 37.4671 41.672 37.6225L66.1542 49.8636C66.4927 50.0332 66.7772 50.2937 66.9761 50.6158C67.1749 50.9379 67.2803 51.309 67.2803 51.6875C67.2803 52.0661 67.1749 52.4372 66.9761 52.7593C66.7772 53.0814 66.4927 53.3418 66.1542 53.5115" fill="#E07E27"/>
</g>
<defs>
<filter id="filter0_d_435_26720" x="0.201265" y="0.927828" width="101.519" height="101.519" filterUnits="userSpaceOnUse" color-interpolation-filters="sRGB">
<feFlood flood-opacity="0" result="BackgroundImageFix"/>
<feColorMatrix in="SourceAlpha" type="matrix" values="0 0 0 0 0 0 0 0 0 0 0 0 0 0 0 0 0 0 127 0" result="hardAlpha"/>
<feOffset/>
<feGaussianBlur stdDeviation="11.0986"/>
<feComposite in2="hardAlpha" operator="out"/>
<feColorMatrix type="matrix" values="0 0 0 0 0 0 0 0 0 0 0 0 0 0 0 0 0 0 1 0"/>
<feBlend mode="normal" in2="BackgroundImageFix" result="effect1_dropShadow_435_26720"/>
<feBlend mode="normal" in="SourceGraphic" in2="effect1_dropShadow_435_26720" result="shape"/>
</filter>
</defs>
</svg>
