<svg width="19" height="19" viewBox="0 0 39 52" fill="none" xmlns="http://www.w3.org/2000/svg">
<path d="M27.4584 19.7423C27.3918 22.0077 26.6256 23.9066 25.1597 25.4391C23.6272 26.905 21.7283 27.6712 19.4628 27.7378C17.1974 27.6712 15.2985 26.905 13.766 25.4391C12.3001 23.9066 11.5339 22.0077 11.4673 19.7423C11.5339 17.4768 12.3001 15.5779 13.766 14.0454C15.2985 12.5795 17.1974 11.8133 19.4628 11.7467C21.7283 11.8133 23.6272 12.5795 25.1597 14.0454C26.6256 15.5779 27.3918 17.4768 27.4584 19.7423ZM19.4628 16.544C18.53 16.544 17.7638 16.8439 17.1641 17.4435C16.5644 18.0432 16.2646 18.8094 16.2646 19.7423C16.2646 20.6751 16.5644 21.4413 17.1641 22.041C17.7638 22.6407 18.53 22.9405 19.4628 22.9405C20.3957 22.9405 21.1619 22.6407 21.7616 22.041C22.3612 21.4413 22.6611 20.6751 22.6611 19.7423C22.6611 18.8094 22.3612 18.0432 21.7616 17.4435C21.1619 16.8439 20.3957 16.544 19.4628 16.544ZM38.6522 19.7423C38.519 22.7406 37.4529 26.2053 35.454 30.1365C33.3885 34.0677 31.0564 37.8656 28.4579 41.5302C25.8593 45.2615 23.6605 48.2265 21.8615 50.4253C21.1952 51.2249 20.3957 51.6246 19.4628 51.6246C18.53 51.6246 17.7305 51.2249 17.0642 50.4253C15.2652 48.2265 13.0331 45.2615 10.3679 41.5302C7.7693 37.8656 5.47057 34.0677 3.47167 30.1365C1.47278 26.2053 0.406697 22.7406 0.273438 19.7423C0.406697 14.2786 2.27233 9.74777 5.87035 6.14975C9.46836 2.55174 13.9992 0.686104 19.4628 0.552845C24.9265 0.686104 29.4573 2.55174 33.0553 6.14975C36.6534 9.74777 38.519 14.2786 38.6522 19.7423ZM19.4628 5.3502C15.3984 5.48346 12.0003 6.88268 9.26847 9.54788C6.60328 12.2797 5.20405 15.6778 5.07079 19.7423C5.07079 21.0082 5.57051 22.9072 6.56996 25.4391C7.70267 27.971 9.13521 30.6362 10.8676 33.4347C12.2668 35.7667 13.7327 37.9655 15.2652 40.031C16.7976 42.1632 18.1969 44.0622 19.4628 45.7279C20.7288 44.0622 22.128 42.1965 23.6605 40.131C25.193 37.9988 26.6589 35.7667 28.0581 33.4347C29.7905 30.6362 31.223 27.971 32.3557 25.4391C33.3552 22.9072 33.8549 21.0082 33.8549 19.7423C33.7216 15.6778 32.3224 12.2797 29.6572 9.54788C26.9254 6.88268 23.5273 5.48346 19.4628 5.3502Z" fill="#2029C8"/>
</svg>
