<?xml version="1.0" encoding="UTF-8"?>
<svg version="1.1" xmlns="http://www.w3.org/2000/svg" width="141" height="141">
<path d="M0 0 C46.53 0 93.06 0 141 0 C141 46.53 141 93.06 141 141 C94.47 141 47.94 141 0 141 C0 94.47 0 47.94 0 0 Z " fill="#FBFBFB" transform="translate(0,0)"/>
<path d="M0 0 C-0.33 1.65 -0.66 3.3 -1 5 C2.61627559 4.66360227 4.52590368 4.43458829 7.25 1.9375 C10.78801726 -0.55519398 13.18140405 -0.6184094 17.43359375 -0.47265625 C20.98594009 0.18158105 23.37206552 1.73179487 26.2109375 3.90625 C28.21930806 5.3477338 28.21930806 5.3477338 32 5 C32 3.68 32 2.36 32 1 C34.375 1.3125 34.375 1.3125 37 2 C39.32536063 5.48804095 39.33457898 6.90140754 39 11 C38 13.375 38 13.375 37 15 C37.763125 15.845625 38.52625 16.69125 39.3125 17.5625 C42.05859984 20.86407873 43.61796462 23.9306736 45 28 C44.505 29.485 44.505 29.485 44 31 C43.78196693 32.55853267 43.59633644 34.12182651 43.4375 35.6875 C43.31181641 36.89986328 43.31181641 36.89986328 43.18359375 38.13671875 C43.12300781 38.75160156 43.06242187 39.36648437 43 40 C43.9075 40.2475 44.815 40.495 45.75 40.75 C49.10351489 42.03981342 50.67708236 43.31971042 53 46 C53.86625 45.71125 54.7325 45.4225 55.625 45.125 C58.75 44.08333333 61.875 43.04166667 65 42 C65 52.23 65 62.46 65 73 C62.36 73 59.72 73 57 73 C57 80.59 57 88.18 57 96 C55.5975 95.0925 54.195 94.185 52.75 93.25 C42.74817175 87.29385509 32.46640372 85.28912231 21 84 C19.95550089 87.13349732 20.06576355 87.98968256 21 91 C19.6696875 90.443125 19.6696875 90.443125 18.3125 89.875 C14.59173995 88.89215772 13.32561865 89.23937836 10 91 C10.33 89.02 10.66 87.04 11 85 C3.28945957 82.15213708 -8.30521359 86.77671716 -15.55859375 89.7421875 C-19.16570022 91.60056875 -22.559091 93.84943188 -26 96 C-26 88.41 -26 80.82 -26 73 C-28.64 73 -31.28 73 -34 73 C-34 62.77 -34 52.54 -34 42 C-29.64989137 43.45003621 -26.00891482 44.90009224 -22 47 C-21.92910156 46.37609375 -21.85820313 45.7521875 -21.78515625 45.109375 C-21 43 -21 43 -18.93359375 41.953125 C-17.69802734 41.60507813 -17.69802734 41.60507813 -16.4375 41.25 C-15.61121094 41.00765625 -14.78492187 40.7653125 -13.93359375 40.515625 C-13.29550781 40.34546875 -12.65742187 40.1753125 -12 40 C-12.0721875 39.43152344 -12.144375 38.86304688 -12.21875 38.27734375 C-13.89898781 24.29869862 -13.89898781 24.29869862 -9 18 C-8.4225 17.21625 -7.845 16.4325 -7.25 15.625 C-6.8375 15.08875 -6.425 14.5525 -6 14 C-6.66 13.01 -7.32 12.02 -8 11 C-8.4375 8.125 -8.4375 8.125 -8 5 C-3.97826087 0 -3.97826087 0 0 0 Z " fill="#2A2C5E" transform="translate(55,31)"/>
<path d="M0 0 C2.59461433 1.64325574 2.92391959 2.70259478 3.6875 5.6875 C3.790625 6.450625 3.89375 7.21375 4 8 C4.66 7.67 5.32 7.34 6 7 C5.67 6.01 5.34 5.02 5 4 C8.35810395 5.38956025 10.18586552 6.82526467 12 10 C12 11.65 12 13.3 12 15 C16.95 15.99 16.95 15.99 22 17 C22.495 18.98 22.495 18.98 23 21 C23.62648437 20.98839844 24.25296875 20.97679688 24.8984375 20.96484375 C25.71570313 20.95582031 26.53296875 20.94679688 27.375 20.9375 C28.18710938 20.92589844 28.99921875 20.91429688 29.8359375 20.90234375 C32 21 32 21 34 22 C34.495 23.485 34.495 23.485 35 25 C35.66 24.67 36.32 24.34 37 24 C37.66 25.65 38.32 27.3 39 29 C40.32 29 41.64 29 43 29 C43 31.64 43 34.28 43 37 C45.31 37.33 47.62 37.66 50 38 C50 38.66 50 39.32 50 40 C45.05 39.67 40.1 39.34 35 39 C35 38.01 35 37.02 35 36 C33.35 36 31.7 36 30 36 C30 36.66 30 37.32 30 38 C29.01 38 28.02 38 27 38 C27 35.69 27 33.38 27 31 C23.88794071 32.98512949 23.88794071 32.98512949 22.25 36.1875 C22.1675 36.785625 22.085 37.38375 22 38 C21.01 38 20.02 38 19 38 C18.938125 37.443125 18.87625 36.88625 18.8125 36.3125 C17.66626128 33.05012827 15.50609803 31.31332126 13 29 C13.33 28.34 13.66 27.68 14 27 C14.66 27 15.32 27 16 27 C16.33 26.34 16.66 25.68 17 25 C15.68 24.67 14.36 24.34 13 24 C14.65 24 16.3 24 18 24 C18 23.34 18 22.68 18 22 C16.02 22 14.04 22 12 22 C11.67 23.98 11.34 25.96 11 28 C10.34 28 9.68 28 9 28 C9 25.03 9 22.06 9 19 C7.50256881 20.49743119 7.66797307 21.98824239 7.4375 24.0625 C7.293125 25.361875 7.14875 26.66125 7 28 C6.01 28 5.02 28 4 28 C4 27.01 4 26.02 4 25 C2.35 25 0.7 25 -1 25 C-0.67 26.65 -0.34 28.3 0 30 C0.99 30.33 1.98 30.66 3 31 C3.33 30.67 3.66 30.34 4 30 C5.8125 29.8671875 5.8125 29.8671875 8 29.875 C8.721875 29.87242188 9.44375 29.86984375 10.1875 29.8671875 C12 30 12 30 13 31 C13.1875 34.4375 13.1875 34.4375 13 38 C9.96666078 41.03333922 7.2256192 40.6646334 3 41 C2.505 40.505 2.505 40.505 2 40 C1.54625 40.495 1.0925 40.99 0.625 41.5 C-1 43 -1 43 -3 43 C-3 41.68 -3 40.36 -3 39 C-5.475 39.495 -5.475 39.495 -8 40 C-8 41.65 -8 43.3 -8 45 C-9.98 45.495 -9.98 45.495 -12 46 C-12.495 38.575 -12.495 38.575 -13 31 C-13 37.27 -13 43.54 -13 50 C-11.22625 49.071875 -9.4525 48.14375 -7.625 47.1875 C1.06784035 42.86661696 8.26526532 40.52896445 18 41 C17.505 41.99 17.505 41.99 17 43 C14.70495285 43.53896591 12.3867035 43.98028012 10.0625 44.375 C-0.02648576 46.2323965 -7.18449103 49.4903069 -16 55 C-16 47.41 -16 39.82 -16 32 C-18.64 32 -21.28 32 -24 32 C-24 21.77 -24 11.54 -24 1 C-19.64989137 2.45003621 -16.00891482 3.90009224 -12 6 C-11.9175 5.38125 -11.835 4.7625 -11.75 4.125 C-11 2 -11 2 -9.375 0.75 C-6.10323174 -0.28318998 -3.4084148 -0.30985589 0 0 Z " fill="#333664" transform="translate(45,72)"/>
<path d="M0 0 C0.66 0.33 1.32 0.66 2 1 C4.65776566 1 7.37423517 0.38192943 10 0 C9 2 9 2 5.9375 3.125 C4.968125 3.41375 3.99875 3.7025 3 4 C3.33 4 3.66 4 4 4 C5.33568021 4.32380126 6.66923011 4.65657551 8 5 C7.01 5.495 7.01 5.495 6 6 C7.32 6.33 8.64 6.66 10 7 C10 7.66 10 8.32 10 9 C7.69 9 5.38 9 3 9 C3.33 9.66 3.66 10.32 4 11 C5.65 10.67 7.3 10.34 9 10 C9.33 11.32 9.66 12.64 10 14 C8.68 13.34 7.36 12.68 6 12 C6 12.66 6 13.32 6 14 C9.37817425 14.84454356 11.67465243 15.10844919 15 14 C15 13.34 15 12.68 15 12 C13.02 12.99 13.02 12.99 11 14 C11.33 12.68 11.66 11.36 12 10 C14.475 10.495 14.475 10.495 17 11 C17.33 10.34 17.66 9.68 18 9 C15.69 9 13.38 9 11 9 C11 8.34 11 7.68 11 7 C12.32 6.67 13.64 6.34 15 6 C13.68 5.34 12.36 4.68 11 4 C14.13349732 2.95550089 14.98968256 3.06576355 18 4 C15.69 3.01 13.38 2.02 11 1 C14 0 14 0 17.4375 1 C20.71420187 1.91977596 21.94443456 2.22222618 25 1 C24 4 24 4 22 5 C25.82097239 4.46930939 28.06171403 3.50298434 31 1 C29.79618552 3.49361571 28.54571278 5.68143083 27 8 C27.66 8.61875 28.32 9.2375 29 9.875 C31 12 31 12 31 14 C32.29233607 15.37310707 33.62437146 16.71034824 35 18 C34.01 18 33.02 18 32 18 C32.474375 18.5775 32.94875 19.155 33.4375 19.75 C34.9484867 21.92582084 35.54036151 23.42602448 36 26 C35.01 26 34.02 26 33 26 C33.66 27.65 34.32 29.3 35 31 C34.34 31 33.68 31 33 31 C32.67 32.32 32.34 33.64 32 35 C30.35 34.34 28.7 33.68 27 33 C26.67 34.32 26.34 35.64 26 37 C26 36.34 26 35.68 26 35 C25.34 35 24.68 35 24 35 C23.67 36.32 23.34 37.64 23 39 C22.34 39 21.68 39 21 39 C20.67 39.99 20.34 40.98 20 42 C19.67 41.34 19.34 40.68 19 40 C19.77734375 38.0546875 19.77734375 38.0546875 20.9375 35.875 C21.31777344 35.15054688 21.69804688 34.42609375 22.08984375 33.6796875 C22.39019531 33.12539062 22.69054687 32.57109375 23 32 C23.66 32 24.32 32 25 32 C25.185625 30.7934375 25.185625 30.7934375 25.375 29.5625 C25.58125 28.716875 25.7875 27.87125 26 27 C26.66 26.67 27.32 26.34 28 26 C27.505 25.01 27.505 25.01 27 24 C27.66 24 28.32 24 29 24 C28.34 23.34 27.68 22.68 27 22 C25.02 22.99 25.02 22.99 23 24 C23 23.01 23 22.02 23 21 C22.505 19.515 22.505 19.515 22 18 C19.07120629 18.62759865 16.63904371 19.58622659 14 21 C14.33 21.99 14.66 22.98 15 24 C15.804375 24.144375 16.60875 24.28875 17.4375 24.4375 C20 25 20 25 21 26 C20.66189609 30.56440281 20.35601737 32.92365074 17 36 C16.34444881 38.52733235 16.34444881 38.52733235 16 41 C15.67 41.66 15.34 42.32 15 43 C15.66 43 16.32 43 17 43 C17.625 44.875 17.625 44.875 18 47 C17.34 47.66 16.68 48.32 16 49 C15.01 49 14.02 49 13 49 C12.34 50.32 11.68 51.64 11 53 C10.34 53 9.68 53 9 53 C8.67 52.01 8.34 51.02 8 50 C5.99983534 48.79117904 5.99983534 48.79117904 4 48 C4 46.35 4 44.7 4 43 C4.99 42.505 4.99 42.505 6 42 C5.34 41.34 4.68 40.68 4 40 C3.7834375 38.7625 3.7834375 38.7625 3.5625 37.5 C3.2234444 34.65063471 3.2234444 34.65063471 0 33 C-0.3125 29.5 -0.3125 29.5 0 26 C0.66 25.34 1.32 24.68 2 24 C3.32 24 4.64 24 6 24 C6.33 22.68 6.66 21.36 7 20 C6.4225 19.855625 5.845 19.71125 5.25 19.5625 C3.16666667 19.04166667 1.08333333 18.52083333 -1 18 C0.32 19.65 1.64 21.3 3 23 C2.01 23.33 1.02 23.66 0 24 C-0.66 23.34 -1.32 22.68 -2 22 C-2 22.66 -2 23.32 -2 24 C-4.475 23.01 -4.475 23.01 -7 22 C-7.33 22.66 -7.66 23.32 -8 24 C-7.34 24.33 -6.68 24.66 -6 25 C-6.33 25.33 -6.66 25.66 -7 26 C-6.34 26.33 -5.68 26.66 -5 27 C-4.375 29.5625 -4.375 29.5625 -4 32 C-3.01 32.33 -2.02 32.66 -1 33 C-0.05078125 35.06640625 -0.05078125 35.06640625 0.6875 37.5625 C0.93886719 38.38878906 1.19023438 39.21507812 1.44921875 40.06640625 C1.63097656 40.70449219 1.81273438 41.34257813 2 42 C1.34 41.67 0.68 41.34 0 41 C0 40.34 0 39.68 0 39 C-0.66 39 -1.32 39 -2 39 C-2.495 37.515 -2.495 37.515 -3 36 C-3.66 35.67 -4.32 35.34 -5 35 C-5.33 35.66 -5.66 36.32 -6 37 C-6 35.68 -6 34.36 -6 33 C-7.98 33.66 -9.96 34.32 -12 35 C-11.67 33.35 -11.34 31.7 -11 30 C-11.66 30 -12.32 30 -13 30 C-12.67 28.68 -12.34 27.36 -12 26 C-12.99 25.67 -13.98 25.34 -15 25 C-13.68 22.69 -12.36 20.38 -11 18 C-11.99 17.67 -12.98 17.34 -14 17 C-13.175 16.401875 -12.35 15.80375 -11.5 15.1875 C-10.675 14.465625 -9.85 13.74375 -9 13 C-9 12.01 -9 11.02 -9 10 C-7.5 8.3125 -7.5 8.3125 -6 7 C-7.32 5.68 -8.64 4.36 -10 3 C-9.67 2.34 -9.34 1.68 -9 1 C-8.236875 1.66 -7.47375 2.32 -6.6875 3 C-4.15722061 5.29850538 -4.15722061 5.29850538 -1 5 C-1.99 4.01 -2.98 3.02 -4 2 C-2.125 0.9375 -2.125 0.9375 0 0 Z " fill="#8D635B" transform="translate(60,38)"/>
<path d="M0 0 C2.77324004 0.79793426 4.20368374 2.31403551 5.94140625 4.55859375 C6.80765625 4.26984375 7.67390625 3.98109375 8.56640625 3.68359375 C11.69140625 2.64192708 14.81640625 1.60026042 17.94140625 0.55859375 C17.94140625 10.78859375 17.94140625 21.01859375 17.94140625 31.55859375 C15.30140625 31.55859375 12.66140625 31.55859375 9.94140625 31.55859375 C9.94140625 39.14859375 9.94140625 46.73859375 9.94140625 54.55859375 C8.53890625 53.65109375 7.13640625 52.74359375 5.69140625 51.80859375 C-2.65595688 46.81665868 -11.39308044 44.39438818 -20.9765625 43.05078125 C-21.66363281 42.88835937 -22.35070312 42.7259375 -23.05859375 42.55859375 C-23.38859375 41.89859375 -23.71859375 41.23859375 -24.05859375 40.55859375 C-18.19274737 40.32264909 -13.54968019 40.96637594 -7.99609375 42.80859375 C-7.32771484 43.01355469 -6.65933594 43.21851563 -5.97070312 43.4296875 C-1.08830243 44.99547198 2.24584343 46.875415 6.94140625 49.55859375 C6.94140625 43.61859375 6.94140625 37.67859375 6.94140625 31.55859375 C5.29140625 32.54859375 3.64140625 33.53859375 1.94140625 34.55859375 C2.90046875 35.17734375 2.90046875 35.17734375 3.87890625 35.80859375 C5.94140625 37.55859375 5.94140625 37.55859375 6.81640625 39.55859375 C6.94140625 41.55859375 6.94140625 41.55859375 4.94140625 44.55859375 C1.97140625 43.56859375 -0.99859375 42.57859375 -4.05859375 41.55859375 C-4.05859375 40.56859375 -4.05859375 39.57859375 -4.05859375 38.55859375 C-1.74859375 39.21859375 0.56140625 39.87859375 2.94140625 40.55859375 C2.94140625 39.89859375 2.94140625 39.23859375 2.94140625 38.55859375 C2.01328125 38.45546875 1.08515625 38.35234375 0.12890625 38.24609375 C-3.09113733 37.55157455 -4.0843924 37.08118436 -6.05859375 34.55859375 C-5.24609375 32.12109375 -5.24609375 32.12109375 -4.05859375 29.55859375 C-3.06859375 29.22859375 -2.07859375 28.89859375 -1.05859375 28.55859375 C-1.71859375 26.90859375 -2.37859375 25.25859375 -3.05859375 23.55859375 C-4.37859375 23.55859375 -5.69859375 23.55859375 -7.05859375 23.55859375 C-7.05859375 24.87859375 -7.05859375 26.19859375 -7.05859375 27.55859375 C-9.49609375 27.18359375 -9.49609375 27.18359375 -12.05859375 26.55859375 C-12.38859375 25.89859375 -12.71859375 25.23859375 -13.05859375 24.55859375 C-13.71859375 25.54859375 -14.37859375 26.53859375 -15.05859375 27.55859375 C-15.02765625 26.10453125 -15.02765625 26.10453125 -14.99609375 24.62109375 C-14.70240876 21.6839348 -14.70240876 21.6839348 -16.05859375 20.55859375 C-16.05859375 22.86859375 -16.05859375 25.17859375 -16.05859375 27.55859375 C-16.71859375 27.55859375 -17.37859375 27.55859375 -18.05859375 27.55859375 C-18.05859375 25.57859375 -18.05859375 23.59859375 -18.05859375 21.55859375 C-19.70859375 21.22859375 -21.35859375 20.89859375 -23.05859375 20.55859375 C-23.05859375 20.22859375 -23.05859375 19.89859375 -23.05859375 19.55859375 C-19.75859375 19.22859375 -16.45859375 18.89859375 -13.05859375 18.55859375 C-13.71859375 17.56859375 -14.37859375 16.57859375 -15.05859375 15.55859375 C-15.94546875 15.88859375 -16.83234375 16.21859375 -17.74609375 16.55859375 C-20.76782722 17.47081518 -22.94233081 17.74190333 -26.05859375 17.55859375 C-23.05859375 15.55859375 -23.05859375 15.55859375 -20.9609375 15.2109375 C-20.33316406 14.99566406 -19.70539063 14.78039062 -19.05859375 14.55859375 C-18.10246146 12.53324928 -18.10246146 12.53324928 -17.62109375 10.12109375 C-16.36910172 5.73912164 -16.36910172 5.73912164 -13.37109375 3.99609375 C-12.22640625 3.77953125 -12.22640625 3.77953125 -11.05859375 3.55859375 C-11.38859375 4.54859375 -11.71859375 5.53859375 -12.05859375 6.55859375 C-11.39859375 6.88859375 -10.73859375 7.21859375 -10.05859375 7.55859375 C-9.95546875 6.60984375 -9.85234375 5.66109375 -9.74609375 4.68359375 C-8.49303872 -1.01211093 -5.14753475 -0.7678643 0 0 Z " fill="#233272" transform="translate(102.05859375,72.44140625)"/>
<path d="M0 0 C-0.33 1.65 -0.66 3.3 -1 5 C2.61627559 4.66360227 4.52590368 4.43458829 7.25 1.9375 C10.78801726 -0.55519398 13.18140405 -0.6184094 17.43359375 -0.47265625 C20.98594009 0.18158105 23.37206552 1.73179487 26.2109375 3.90625 C28.21930806 5.3477338 28.21930806 5.3477338 32 5 C32 3.68 32 2.36 32 1 C34.375 1.3125 34.375 1.3125 37 2 C39.32536063 5.48804095 39.33457898 6.90140754 39 11 C38 13.375 38 13.375 37 15 C37.763125 15.845625 38.52625 16.69125 39.3125 17.5625 C42.05859984 20.86407873 43.61796462 23.9306736 45 28 C44.505 29.485 44.505 29.485 44 31 C43.78196693 32.55853267 43.59633644 34.12182651 43.4375 35.6875 C43.35371094 36.49574219 43.26992187 37.30398437 43.18359375 38.13671875 C43.09271484 39.05904297 43.09271484 39.05904297 43 40 C43.99 40.495 43.99 40.495 45 41 C42.69 41.66 40.38 42.32 38 43 C37.67 44.98 37.34 46.96 37 49 C36.01 48.67 35.02 48.34 34 48 C34.66 47.01 35.32 46.02 36 45 C33.47014472 45.32386813 33.47014472 45.32386813 31 47 C30.4157325 49.07676875 30.4157325 49.07676875 30.125 51.4375 C29.4261376 55.6578147 29.4261376 55.6578147 27.43359375 57.2578125 C24.56575625 58.49116224 22.1164332 59 19 59 C18.34 58.67 17.68 58.34 17 58 C17.33 57.34 17.66 56.68 18 56 C18.99 56 19.98 56 21 56 C21.33 54.02 21.66 52.04 22 50 C20.02 50.495 20.02 50.495 18 51 C18.474375 50.4225 18.94875 49.845 19.4375 49.25 C20.9484867 47.07417916 21.54036151 45.57397552 22 43 C21.01 42.505 21.01 42.505 20 42 C20.639375 41.814375 21.27875 41.62875 21.9375 41.4375 C24.42126213 40.05753944 24.42126213 40.05753944 24.75 36.375 C24.8325 35.26125 24.915 34.1475 25 33 C24.21625 32.855625 23.4325 32.71125 22.625 32.5625 C20 32 20 32 18 31 C18 28 18 28 19 26 C20.31774196 25.60955794 21.65667272 25.29044914 23 25 C25.00382009 24.34490497 27.00458132 23.68025637 29 23 C29 29 29 29 28 31 C30.475 29.515 30.475 29.515 33 28 C33.495 30.475 33.495 30.475 34 33 C33.01 33.33 32.02 33.66 31 34 C30.814375 35.2065625 30.814375 35.2065625 30.625 36.4375 C30.41875 37.283125 30.2125 38.12875 30 39 C29.01 39.495 29.01 39.495 28 40 C27.27306096 41.97888961 26.60183749 43.97954558 26 46 C26.66 46 27.32 46 28 46 C28.33 44.68 28.66 43.36 29 42 C29.66 42 30.32 42 31 42 C31.495 41.01 31.495 41.01 32 40 C33.65 40.33 35.3 40.66 37 41 C36.67 39.35 36.34 37.7 36 36 C36.99 36 37.98 36 39 36 C38.34 34.68 37.68 33.36 37 32 C37.99 32 38.98 32 40 32 C39.525625 31.05125 39.05125 30.1025 38.5625 29.125 C37.70833333 27.41666667 36.85416667 25.70833333 36 24 C36.99 24 37.98 24 39 24 C38.360625 23.5875 37.72125 23.175 37.0625 22.75 C34.68228677 20.73042514 34.72544353 19.9017741 34 17 C32.02329393 15.24577228 32.02329393 15.24577228 30 14 C30.66 13.34 31.32 12.68 32 12 C30.35 12.33 28.7 12.66 27 13 C26.505 12.01 26.505 12.01 26 11 C26.99 11 27.98 11 29 11 C29 10.34 29 9.68 29 9 C28.236875 9.185625 27.47375 9.37125 26.6875 9.5625 C24 10 24 10 21 9 C21.99 9.66 22.98 10.32 24 11 C23.67 11.66 23.34 12.32 23 13 C22.01 12.67 21.02 12.34 20 12 C20.66 12.66 21.32 13.32 22 14 C20.02 14 18.04 14 16 14 C16 14.66 16 15.32 16 16 C18.31 16 20.62 16 23 16 C22.505 17.485 22.505 17.485 22 19 C20.35 18.67 18.7 18.34 17 18 C17.33 18.33 17.66 18.66 18 19 C18.66 19 19.32 19 20 19 C20 19.66 20 20.32 20 21 C18.68 21.33 17.36 21.66 16 22 C15.67 23.32 15.34 24.64 15 26 C15 24.68 15 23.36 15 22 C13.68 21.67 12.36 21.34 11 21 C11 20.34 11 19.68 11 19 C11.99 19.33 12.98 19.66 14 20 C14 19.34 14 18.68 14 18 C12.02 18.33 10.04 18.66 8 19 C8 18.01 8 17.02 8 16 C10.31 16 12.62 16 15 16 C15 15.34 15 14.68 15 14 C13.02 14 11.04 14 9 14 C9.66 13.34 10.32 12.68 11 12 C9.68 12.33 8.36 12.66 7 13 C7.33 12.01 7.66 11.02 8 10 C10.5625 8.8125 10.5625 8.8125 13 8 C10.03 8.66 7.06 9.32 4 10 C4.33 9.34 4.66 8.68 5 8 C4.01 8.33 3.02 8.66 2 9 C2 9.66 2 10.32 2 11 C2.99 11.33 3.98 11.66 5 12 C3.3125 12.75 3.3125 12.75 1 13 C-1.75 11.0625 -1.75 11.0625 -4 9 C-2.35 10.98 -0.7 12.96 1 15 C0.175 15.433125 -0.65 15.86625 -1.5 16.3125 C-2.325 16.869375 -3.15 17.42625 -4 18 C-4 18.99 -4 19.98 -4 21 C-5.5 22.6875 -5.5 22.6875 -7 24 C-6.34 24.33 -5.68 24.66 -5 25 C-6.32 27.31 -7.64 29.62 -9 32 C-8.01 32.33 -7.02 32.66 -6 33 C-6.33 33.99 -6.66 34.98 -7 36 C-6.34 36.33 -5.68 36.66 -5 37 C-8.625 40 -8.625 40 -12 40 C-13.84340045 25.48322148 -13.84340045 25.48322148 -11.1875 20.8125 C-10.465625 19.884375 -9.74375 18.95625 -9 18 C-8.4225 17.21625 -7.845 16.4325 -7.25 15.625 C-6.8375 15.08875 -6.425 14.5525 -6 14 C-6.66 13.01 -7.32 12.02 -8 11 C-8.4375 8.125 -8.4375 8.125 -8 5 C-3.97826087 0 -3.97826087 0 0 0 Z " fill="#1B1D4A" transform="translate(55,31)"/>
<path d="M0 0 C0.886875 0.309375 1.77375 0.61875 2.6875 0.9375 C5.46709155 1.8290671 8.13136375 2.49377007 11 3 C10.3125 5.375 10.3125 5.375 9 8 C6.375 9.3125 6.375 9.3125 4 10 C3.67 12.31 3.34 14.62 3 17 C4.65 17.66 6.3 18.32 8 19 C7.95875 19.763125 7.9175 20.52625 7.875 21.3125 C7.77919176 24.22718416 7.77919176 24.22718416 10 27 C9.01 27 8.02 27 7 27 C7 28.65 7 30.3 7 32 C8.65 32.66 10.3 33.32 12 34 C12 34.99 12 35.98 12 37 C13.98 36.34 15.96 35.68 18 35 C18 35.66 18 36.32 18 37 C18.886875 36.67 19.77375 36.34 20.6875 36 C23.70923347 35.08777857 25.88373706 34.81669042 29 35 C29.495 34.01 29.495 34.01 30 33 C30.66 34.32 31.32 35.64 32 37 C29.03 37.66 26.06 38.32 23 39 C24.32 39.33 25.64 39.66 27 40 C27 41.98 27 43.96 27 46 C27.66 46 28.32 46 29 46 C29 43.69 29 41.38 29 39 C29.99 39.33 30.98 39.66 32 40 C31.34 40 30.68 40 30 40 C30.33 40.99 30.66 41.98 31 43 C32.98 42.505 32.98 42.505 35 42 C35 43.32 35 44.64 35 46 C35.99 46 36.98 46 38 46 C38 44.68 38 43.36 38 42 C40.475 41.505 40.475 41.505 43 41 C43.495 43.475 43.495 43.475 44 46 C46.64 46.33 49.28 46.66 52 47 C52 47.33 52 47.66 52 48 C48.37 48 44.74 48 41 48 C40.67 48.99 40.34 49.98 40 51 C39.40832031 50.7834375 38.81664062 50.566875 38.20703125 50.34375 C32.26339098 48.22239206 32.26339098 48.22239206 26 48 C25.34 46.35 24.68 44.7 24 43 C23.01 43.495 23.01 43.495 22 44 C22 42.68 22 41.36 22 40 C18.37 39.67 14.74 39.34 11 39 C11 38.34 11 37.68 11 37 C10.42765625 36.86722656 9.8553125 36.73445313 9.265625 36.59765625 C7.02349125 36.00619683 4.91420381 35.26711146 2.75 34.4375 C2.04359375 34.16808594 1.3371875 33.89867187 0.609375 33.62109375 C0.07828125 33.41613281 -0.4528125 33.21117187 -1 33 C-0.87625 31.9171875 -0.87625 31.9171875 -0.75 30.8125 C-1.07749127 27.12822325 -2.49828568 25.64887398 -5 23 C-5.66 22.67 -6.32 22.34 -7 22 C-6.34 23.65 -5.68 25.3 -5 27 C-5.99 26.67 -6.98 26.34 -8 26 C-8.45375 25.030625 -8.9075 24.06125 -9.375 23.0625 C-10.72142507 19.81873754 -10.72142507 19.81873754 -13.6875 18.625 C-14.8321875 18.315625 -14.8321875 18.315625 -16 18 C-16 17.67 -16 17.34 -16 17 C-13.69 16.34 -11.38 15.68 -9 15 C-8.67 15.99 -8.34 16.98 -8 18 C-6.35 17.67 -4.7 17.34 -3 17 C-2.67 17.66 -2.34 18.32 -2 19 C-1.01 19.33 -0.02 19.66 1 20 C1 20.99 1 21.98 1 23 C1.66 23 2.32 23 3 23 C1.8734655 19.10045751 0.91473044 16.7822427 -2 14 C-2 13.01 -2 12.02 -2 11 C-2.99 10.67 -3.98 10.34 -5 10 C-4.67 8.35 -4.34 6.7 -4 5 C-2.35 5.99 -0.7 6.98 1 8 C0.34 6.35 -0.32 4.7 -1 3 C0.65 4.32 2.3 5.64 4 7 C2.02 3.535 2.02 3.535 0 0 Z " fill="#191C4C" transform="translate(57,54)"/>
<path d="M0 0 C-0.33 1.65 -0.66 3.3 -1 5 C2.67527934 4.65811355 4.54623668 4.4169717 7.3125 1.875 C10.78726849 -0.54925709 12.70863023 -0.28814496 16.78125 0.390625 C20.138277 1.31262537 22.39427929 2.71205011 25 5 C26.375 7.75 26.375 7.75 27 10 C26.38125 9.835 25.7625 9.67 25.125 9.5 C23.03936614 8.92365356 23.03936614 8.92365356 21 9 C21.99 9.66 22.98 10.32 24 11 C23.67 11.66 23.34 12.32 23 13 C22.01 12.67 21.02 12.34 20 12 C20.66 12.66 21.32 13.32 22 14 C20.02 14 18.04 14 16 14 C16 14.66 16 15.32 16 16 C18.31 16 20.62 16 23 16 C22.505 17.485 22.505 17.485 22 19 C20.35 18.67 18.7 18.34 17 18 C17.33 18.33 17.66 18.66 18 19 C18.66 19 19.32 19 20 19 C20 19.66 20 20.32 20 21 C18.68 21.33 17.36 21.66 16 22 C15.67 23.32 15.34 24.64 15 26 C15 24.68 15 23.36 15 22 C13.68 21.67 12.36 21.34 11 21 C11 20.34 11 19.68 11 19 C11.99 19.33 12.98 19.66 14 20 C14 19.34 14 18.68 14 18 C12.02 18.33 10.04 18.66 8 19 C8 18.01 8 17.02 8 16 C10.31 16 12.62 16 15 16 C15 15.34 15 14.68 15 14 C13.02 14 11.04 14 9 14 C9.66 13.34 10.32 12.68 11 12 C9.68 12.33 8.36 12.66 7 13 C7.33 12.01 7.66 11.02 8 10 C10.5625 8.8125 10.5625 8.8125 13 8 C10.03 8.66 7.06 9.32 4 10 C4.33 9.34 4.66 8.68 5 8 C4.01 8.33 3.02 8.66 2 9 C2 9.66 2 10.32 2 11 C2.99 11.33 3.98 11.66 5 12 C3.3125 12.75 3.3125 12.75 1 13 C-1.75 11.0625 -1.75 11.0625 -4 9 C-2.35 10.98 -0.7 12.96 1 15 C0.175 15.433125 -0.65 15.86625 -1.5 16.3125 C-2.325 16.869375 -3.15 17.42625 -4 18 C-4 18.99 -4 19.98 -4 21 C-5.5 22.6875 -5.5 22.6875 -7 24 C-6.34 24.33 -5.68 24.66 -5 25 C-6.32 27.31 -7.64 29.62 -9 32 C-8.01 32.33 -7.02 32.66 -6 33 C-6.33 33.99 -6.66 34.98 -7 36 C-6.34 36.33 -5.68 36.66 -5 37 C-8.625 40 -8.625 40 -12 40 C-13.84340045 25.48322148 -13.84340045 25.48322148 -11.1875 20.8125 C-10.465625 19.884375 -9.74375 18.95625 -9 18 C-8.4225 17.21625 -7.845 16.4325 -7.25 15.625 C-6.8375 15.08875 -6.425 14.5525 -6 14 C-6.66 13.01 -7.32 12.02 -8 11 C-8.4375 8.125 -8.4375 8.125 -8 5 C-3.97826087 0 -3.97826087 0 0 0 Z " fill="#2C3D7F" transform="translate(55,31)"/>
<path d="M0 0 C1.381875 0.144375 2.76375 0.28875 4.1875 0.4375 C9.55523847 0.98272093 14.92919042 1.36324842 20.3125 1.71875 C23 2 23 2 25 3 C25.33 3.99 25.66 4.98 26 6 C26.66 5.67 27.32 5.34 28 5 C28.66 6.65 29.32 8.3 30 10 C31.32 10 32.64 10 34 10 C34 12.64 34 15.28 34 18 C36.31 18.33 38.62 18.66 41 19 C41 19.66 41 20.32 41 21 C36.05 20.67 31.1 20.34 26 20 C26 19.01 26 18.02 26 17 C24.35 17 22.7 17 21 17 C21 17.66 21 18.32 21 19 C20.01 19 19.02 19 18 19 C18 16.69 18 14.38 18 12 C14.88794071 13.98512949 14.88794071 13.98512949 13.25 17.1875 C13.1675 17.785625 13.085 18.38375 13 19 C12.01 19 11.02 19 10 19 C9.938125 18.443125 9.87625 17.88625 9.8125 17.3125 C8.66626128 14.05012827 6.50609803 12.31332126 4 10 C4.33 9.34 4.66 8.68 5 8 C5.66 8 6.32 8 7 8 C7.33 7.34 7.66 6.68 8 6 C6.68 5.67 5.36 5.34 4 5 C5.65 5 7.3 5 9 5 C9 4.34 9 3.68 9 3 C7.02 3 5.04 3 3 3 C2.67 4.98 2.34 6.96 2 9 C1.34 9 0.68 9 0 9 C0 6.03 0 3.06 0 0 Z " fill="#242D68" transform="translate(54,91)"/>
<path d="M0 0 C0 8.58 0 17.16 0 26 C-3.96 26.495 -3.96 26.495 -8 27 C-9.81476003 28.39585785 -9.81476003 28.39585785 -11 30 C-11.99 30.33 -12.98 30.66 -14 31 C-13.360625 31.4125 -12.72125 31.825 -12.0625 32.25 C-10 34 -10 34 -9.125 36 C-9 38 -9 38 -11 41 C-13.97 40.01 -16.94 39.02 -20 38 C-20 37.01 -20 36.02 -20 35 C-17.69 35.66 -15.38 36.32 -13 37 C-13 36.34 -13 35.68 -13 35 C-13.928125 34.896875 -14.85625 34.79375 -15.8125 34.6875 C-19.03254358 33.9929808 -20.02579865 33.52259061 -22 31 C-21.34 29.35 -20.68 27.7 -20 26 C-16.7 25.67 -13.4 25.34 -10 25 C-10.99 24.67 -11.98 24.34 -13 24 C-13.31100973 18.81650457 -12.99283581 15.33445186 -10 11 C-7.3125 10.125 -7.3125 10.125 -5 10 C-5 14 -5 14 -6.5 15.75 C-6.995 16.1625 -7.49 16.575 -8 17 C-7.01 17.33 -6.02 17.66 -5 18 C-5 19.65 -5 21.3 -5 23 C-4.01 23 -3.02 23 -2 23 C-2.33 17.06 -2.66 11.12 -3 5 C-4.98 5.99 -6.96 6.98 -9 8 C-12.875 8.1875 -12.875 8.1875 -16 8 C-16.33 6.35 -16.66 4.7 -17 3 C-16.34 2.67 -15.68 2.34 -15 2 C-14.67 3.32 -14.34 4.64 -14 6 C-13.15695313 5.566875 -12.31390625 5.13375 -11.4453125 4.6875 C-10.34960938 4.130625 -9.25390625 3.57375 -8.125 3 C-6.48917969 2.1646875 -6.48917969 2.1646875 -4.8203125 1.3125 C-2 0 -2 0 0 0 Z " fill="#323E78" transform="translate(118,76)"/>
<path d="M0 0 C5.38180141 0.97048878 5.38180141 0.97048878 8 2 C9.625 4.5 9.625 4.5 11 7 C14.07561246 8.35980881 14.07561246 8.35980881 17 9 C17 9.66 17 10.32 17 11 C14.69 10.67 12.38 10.34 10 10 C12.93828597 12.50298434 15.17902761 13.46930939 19 14 C20.25134853 11.17045475 20.25134853 11.17045475 19.4375 8.9375 C17.41381358 6.20992266 15.21178058 5.8378558 12 5 C12 4.67 12 4.34 12 4 C13.093125 3.87625 14.18625 3.7525 15.3125 3.625 C19.07381802 3.24535199 19.07381802 3.24535199 22 1 C22 7.6 22 14.2 22 21 C14.5 17.625 14.5 17.625 12.18945312 16.57275391 C6.05541966 13.85262085 -0.05931511 11.64270394 -6.875 11.9375 C-11.92378957 12.03910103 -17.03530055 12.01203489 -22 11 C-22.66 10.34 -23.32 9.68 -24 9 C-23.01 9 -22.02 9 -21 9 C-21.061875 8.236875 -21.12375 7.47375 -21.1875 6.6875 C-21 4 -21 4 -19.625 2.1875 C-18 1 -18 1 -16 1 C-16 3.31 -16 5.62 -16 8 C-15.01 8 -14.02 8 -13 8 C-13 7.34 -13 6.68 -13 6 C-11.35 6 -9.7 6 -8 6 C-8 6.99 -8 7.98 -8 9 C-6.68 9 -5.36 9 -4 9 C-4 6.36 -4 3.72 -4 1 C-3.67 1 -3.34 1 -3 1 C-3 3.64 -3 6.28 -3 9 C0.3 9.33 3.6 9.66 7 10 C7 9.34 7 8.68 7 8 C4.69 7.67 2.38 7.34 0 7 C0 4.69 0 2.38 0 0 Z " fill="#111345" transform="translate(88,102)"/>
<path d="M0 0 C4.35010863 1.45003621 7.99108518 2.90009224 12 5 C12.33 3.68 12.66 2.36 13 1 C14.65 1 16.3 1 18 1 C17.67 1.66 17.34 2.32 17 3 C17.33 3.33 17.66 3.66 18 4 C18.04092937 6.33297433 18.04241723 8.66705225 18 11 C17.34 11 16.68 11 16 11 C16 10.34 16 9.68 16 9 C15.40832031 8.81824219 14.81664062 8.63648437 14.20703125 8.44921875 C13.41683594 8.19785156 12.62664063 7.94648437 11.8125 7.6875 C11.03519531 7.44386719 10.25789063 7.20023437 9.45703125 6.94921875 C7 6 7 6 2 3 C2 11.58 2 20.16 2 29 C4.64 29 7.28 29 10 29 C10.33 35.6 10.66 42.2 11 49 C12.77375 48.071875 14.5475 47.14375 16.375 46.1875 C25.06784035 41.86661696 32.26526532 39.52896445 42 40 C41.505 40.99 41.505 40.99 41 42 C38.70495285 42.53896591 36.3867035 42.98028012 34.0625 43.375 C23.97351424 45.2323965 16.81550897 48.4903069 8 54 C8 46.41 8 38.82 8 31 C5.36 31 2.72 31 0 31 C0 20.77 0 10.54 0 0 Z " fill="#874C43" transform="translate(21,73)"/>
<path d="M0 0 C0 10.23 0 20.46 0 31 C-2.64 31 -5.28 31 -8 31 C-8 38.59 -8 46.18 -8 54 C-9.4025 53.0925 -10.805 52.185 -12.25 51.25 C-20.59736313 46.25806493 -29.33448669 43.83579443 -38.91796875 42.4921875 C-39.60503906 42.32976562 -40.29210937 42.16734375 -41 42 C-41.33 41.34 -41.66 40.68 -42 40 C-36.13415362 39.76405534 -31.49108644 40.40778219 -25.9375 42.25 C-25.26912109 42.45496094 -24.60074219 42.65992188 -23.91210938 42.87109375 C-19.02970868 44.43687823 -15.69556282 46.31682125 -11 49 C-10.67 42.4 -10.34 35.8 -10 29 C-7.36 29 -4.72 29 -2 29 C-2 20.42 -2 11.84 -2 3 C-6.56348096 5.30152846 -6.56348096 5.30152846 -11.12475586 7.60742188 C-15.88888889 10 -15.88888889 10 -17 10 C-17 7.66666667 -17 5.33333333 -17 3 C-17.33 2.34 -17.66 1.68 -18 1 C-15.5625 1.375 -15.5625 1.375 -13 2 C-12.67 2.66 -12.34 3.32 -12 4 C-9.15548161 3.09492597 -6.4231825 2.21159125 -3.75 0.875 C-2 0 -2 0 0 0 Z " fill="#874F45" transform="translate(120,73)"/>
<path d="M0 0 C0.99 0 1.98 0 3 0 C2.67 1.32 2.34 2.64 2 4 C2.61875 3.814375 3.2375 3.62875 3.875 3.4375 C6 3 6 3 8 4 C7.67 4.66 7.34 5.32 7 6 C6.01 6.33 5.02 6.66 4 7 C4 9.64 4 12.28 4 15 C5.65 15 7.3 15 9 15 C8.67 15.66 8.34 16.32 8 17 C6.68 17 5.36 17 4 17 C3.67 20.63 3.34 24.26 3 28 C2.67 28 2.34 28 2 28 C2 23.38 2 18.76 2 14 C-3.10847485 16.00042201 -3.10847485 16.00042201 -6 20 C-6.50660156 18.82630859 -6.50660156 18.82630859 -7.0234375 17.62890625 C-7.46945313 16.61699219 -7.91546875 15.60507813 -8.375 14.5625 C-9.03628906 13.04849609 -9.03628906 13.04849609 -9.7109375 11.50390625 C-10.75076286 8.87856453 -10.75076286 8.87856453 -13 8 C-13 14.27 -13 20.54 -13 27 C-11.02 27.33 -9.04 27.66 -7 28 C-7 28.33 -7 28.66 -7 29 C-9.64 29 -12.28 29 -15 29 C-15 20.75 -15 12.5 -15 4 C-11.68917912 5.32432835 -8.43744277 6.66980174 -5.1875 8.125 C-4.00220703 8.65480469 -4.00220703 8.65480469 -2.79296875 9.1953125 C-2.20128906 9.46085937 -1.60960937 9.72640625 -1 10 C-1 10.66 -1 11.32 -1 12 C-0.34 12 0.32 12 1 12 C1 9.69 1 7.38 1 5 C0.01 5.33 -0.98 5.66 -2 6 C-2 5.34 -2 4.68 -2 4 C-1.34 3.67 -0.68 3.34 0 3 C0 2.01 0 1.02 0 0 Z " fill="#233881" transform="translate(38,72)"/>
<path d="M0 0 C0 3.51716303 -0.82445585 4.37121748 -3 7 C-2.34 7.61875 -1.68 8.2375 -1 8.875 C1 11 1 11 1 13 C2.29233607 14.37310707 3.62437146 15.71034824 5 17 C4.01 17 3.02 17 2 17 C2.7115625 17.86625 2.7115625 17.86625 3.4375 18.75 C4.9484867 20.92582084 5.54036151 22.42602448 6 25 C5.01 25 4.02 25 3 25 C3.66 26.65 4.32 28.3 5 30 C4.34 30 3.68 30 3 30 C2.67 31.32 2.34 32.64 2 34 C0.35 33.34 -1.3 32.68 -3 32 C-3.33 33.32 -3.66 34.64 -4 36 C-4 35.34 -4 34.68 -4 34 C-4.66 34 -5.32 34 -6 34 C-6.33 35.32 -6.66 36.64 -7 38 C-7.66 38 -8.32 38 -9 38 C-9.33 38.99 -9.66 39.98 -10 41 C-10.33 40.34 -10.66 39.68 -11 39 C-10.22265625 37.0546875 -10.22265625 37.0546875 -9.0625 34.875 C-8.68222656 34.15054688 -8.30195312 33.42609375 -7.91015625 32.6796875 C-7.60980469 32.12539062 -7.30945313 31.57109375 -7 31 C-6.34 31 -5.68 31 -5 31 C-4.814375 29.7934375 -4.814375 29.7934375 -4.625 28.5625 C-4.41875 27.716875 -4.2125 26.87125 -4 26 C-3.34 25.67 -2.68 25.34 -2 25 C-2.33 24.34 -2.66 23.68 -3 23 C-2.34 23 -1.68 23 -1 23 C-1.66 22.01 -2.32 21.02 -3 20 C-3.2734375 17.94921875 -3.2734375 17.94921875 -3.375 15.6875 C-3.77686815 11.04706024 -5.12580671 8.61592059 -8 5 C-7.05125 4.54625 -6.1025 4.0925 -5.125 3.625 C-1.99686321 2.19761746 -1.99686321 2.19761746 0 0 Z " fill="#E9EAEF" transform="translate(90,39)"/>
<path d="M0 0 C4.5 3 4.5 3 9 6 C8.360625 6.639375 7.72125 7.27875 7.0625 7.9375 C4.67427672 11.48364972 4.45854028 13.74213055 4.2734375 17.9140625 C4 20 4 20 2 23 C2.66 23.33 3.32 23.66 4 24 C3.67 24.33 3.34 24.66 3 25 C3.66 25.33 4.32 25.66 5 26 C5.625 28.5625 5.625 28.5625 6 31 C6.99 31.33 7.98 31.66 9 32 C9.94921875 34.06640625 9.94921875 34.06640625 10.6875 36.5625 C10.93886719 37.38878906 11.19023438 38.21507812 11.44921875 39.06640625 C11.63097656 39.70449219 11.81273438 40.34257813 12 41 C11.34 40.67 10.68 40.34 10 40 C10 39.34 10 38.68 10 38 C9.34 38 8.68 38 8 38 C7.505 36.515 7.505 36.515 7 35 C6.34 34.67 5.68 34.34 5 34 C4.67 34.66 4.34 35.32 4 36 C4 34.68 4 33.36 4 32 C2.02 32.66 0.04 33.32 -2 34 C-1.67 32.35 -1.34 30.7 -1 29 C-1.66 29 -2.32 29 -3 29 C-2.67 27.68 -2.34 26.36 -2 25 C-2.99 24.67 -3.98 24.34 -5 24 C-3.68 21.69 -2.36 19.38 -1 17 C-1.99 16.67 -2.98 16.34 -4 16 C-3.175 15.401875 -2.35 14.80375 -1.5 14.1875 C-0.675 13.465625 0.15 12.74375 1 12 C1 11.01 1 10.02 1 9 C2.5 7.3125 2.5 7.3125 4 6 C3.34 5.38125 2.68 4.7625 2 4.125 C0 2 0 2 0 0 Z " fill="#E1E3EB" transform="translate(50,39)"/>
<path d="M0 0 C6.14477238 -0.54864039 9.18325216 0.21894788 14.140625 3.90625 C16.21508744 5.33801342 16.21508744 5.33801342 20 5 C20 3.68 20 2.36 20 1 C22.375 1.3125 22.375 1.3125 25 2 C27.32536063 5.48804095 27.33457898 6.90140754 27 11 C26 13.375 26 13.375 25 15 C25.763125 15.845625 26.52625 16.69125 27.3125 17.5625 C30.0491418 20.82003668 31.49414789 24.03723128 33 28 C32.01 28.495 32.01 28.495 31 29 C30.34 28.67 29.68 28.34 29 28 C29 27.34 29 26.68 29 26 C28.34 25.67 27.68 25.34 27 25 C23.14935823 21.61610268 23.14935823 21.61610268 22.5 18.9375 C21.80198414 16.23268855 20.28311753 15.47297905 18 14 C18.66 13.34 19.32 12.68 20 12 C18.35 12.33 16.7 12.66 15 13 C14.67 12.34 14.34 11.68 14 11 C14.99 11 15.98 11 17 11 C17 10.34 17 9.68 17 9 C16.13375 8.62875 16.13375 8.62875 15.25 8.25 C13 7 13 7 11.3125 5 C7.94988558 2.09179293 4.30748752 1.69950652 0 1 C0 0.67 0 0.34 0 0 Z " fill="#242E69" transform="translate(67,31)"/>
<path d="M0 0 C5.64028777 2.92086331 5.64028777 2.92086331 7 7 C6.38125 6.835 5.7625 6.67 5.125 6.5 C3.03936614 5.92365356 3.03936614 5.92365356 1 6 C1.99 6.66 2.98 7.32 4 8 C3.67 8.66 3.34 9.32 3 10 C2.01 9.67 1.02 9.34 0 9 C0.66 9.66 1.32 10.32 2 11 C0.02 11 -1.96 11 -4 11 C-4 11.66 -4 12.32 -4 13 C-1.69 13 0.62 13 3 13 C2.67 13.99 2.34 14.98 2 16 C-0.475 15.505 -0.475 15.505 -3 15 C-2.67 15.33 -2.34 15.66 -2 16 C-1.34 16 -0.68 16 0 16 C0 16.66 0 17.32 0 18 C-1.32 18.33 -2.64 18.66 -4 19 C-4.33 20.32 -4.66 21.64 -5 23 C-5 21.68 -5 20.36 -5 19 C-6.32 18.67 -7.64 18.34 -9 18 C-9 17.34 -9 16.68 -9 16 C-8.01 16.33 -7.02 16.66 -6 17 C-6 16.34 -6 15.68 -6 15 C-7.98 15.33 -9.96 15.66 -12 16 C-12 15.01 -12 14.02 -12 13 C-9.69 13 -7.38 13 -5 13 C-5 12.34 -5 11.68 -5 11 C-6.98 11 -8.96 11 -11 11 C-10.34 10.34 -9.68 9.68 -9 9 C-10.32 9.33 -11.64 9.66 -13 10 C-12.67 9.01 -12.34 8.02 -12 7 C-9.4375 5.8125 -9.4375 5.8125 -7 5 C-9.97 5.66 -12.94 6.32 -16 7 C-10.96279834 0.76977689 -8.23205934 -1.02210133 0 0 Z " fill="#414276" transform="translate(75,34)"/>
<path d="M0 0 C-0.875 4.75 -0.875 4.75 -2 7 C-1.34 7 -0.68 7 0 7 C0.625 8.875 0.625 8.875 1 11 C0.34 11.66 -0.32 12.32 -1 13 C-1.99 13 -2.98 13 -4 13 C-4.66 14.32 -5.32 15.64 -6 17 C-6.66 17 -7.32 17 -8 17 C-8.33 16.01 -8.66 15.02 -9 14 C-11.00016466 12.79117904 -11.00016466 12.79117904 -13 12 C-13 10.35 -13 8.7 -13 7 C-12.34 6.67 -11.68 6.34 -11 6 C-11.66 5.34 -12.32 4.68 -13 4 C-12.9375 1.5 -12.9375 1.5 -12 -1 C-7.44291248 -4.21676766 -4.50822419 -2.29831037 0 0 Z " fill="#8C8EA7" transform="translate(77,74)"/>
<path d="M0 0 C0.99 0.66 1.98 1.32 3 2 C3 2.66 3 3.32 3 4 C0.03 4.66 -2.94 5.32 -6 6 C-4.68 6.33 -3.36 6.66 -2 7 C-2 8.98 -2 10.96 -2 13 C-1.34 13 -0.68 13 0 13 C0 10.69 0 8.38 0 6 C0.99 6.33 1.98 6.66 3 7 C2.34 7 1.68 7 1 7 C1.33 7.99 1.66 8.98 2 10 C3.32 9.67 4.64 9.34 6 9 C6 10.32 6 11.64 6 13 C6.99 13 7.98 13 9 13 C9 11.68 9 10.36 9 9 C10.65 8.67 12.3 8.34 14 8 C14.33 9.65 14.66 11.3 15 13 C17.64 13.33 20.28 13.66 23 14 C23 14.33 23 14.66 23 15 C19.37 15 15.74 15 12 15 C11.67 15.99 11.34 16.98 11 18 C10.40832031 17.7834375 9.81664063 17.566875 9.20703125 17.34375 C3.26339098 15.22239206 3.26339098 15.22239206 -3 15 C-3.66 13.35 -4.32 11.7 -5 10 C-5.99 10.495 -5.99 10.495 -7 11 C-7 9.68 -7 8.36 -7 7 C-11.455 6.01 -11.455 6.01 -16 5 C-15.67 4.34 -15.34 3.68 -15 3 C-12.9375 2.375 -12.9375 2.375 -11 2 C-11 2.66 -11 3.32 -11 4 C-10.113125 3.67 -9.22625 3.34 -8.3125 3 C-5.29076653 2.08777857 -3.11626294 1.81669042 0 2 C0 1.34 0 0.68 0 0 Z " fill="#162466" transform="translate(86,87)"/>
<path d="M0 0 C1.98 1.32 3.96 2.64 6 4 C5.175 4.598125 4.35 5.19625 3.5 5.8125 C2.675 6.534375 1.85 7.25625 1 8 C1 8.99 1 9.98 1 11 C-0.5 12.6875 -0.5 12.6875 -2 14 C-1.34 14.33 -0.68 14.66 0 15 C-1.32 17.31 -2.64 19.62 -4 22 C-3.01 22.33 -2.02 22.66 -1 23 C-1.33 23.99 -1.66 24.98 -2 26 C-1.34 26.33 -0.68 26.66 0 27 C-3.625 30 -3.625 30 -7 30 C-8.84103512 15.50184843 -8.84103512 15.50184843 -6.25 10.875 C-4.78014239 8.99684861 -3.28097977 7.14117028 -1.75 5.3125 C0.30172134 3.08463463 0.30172134 3.08463463 0 0 Z " fill="#1D2E74" transform="translate(50,41)"/>
<path d="M0 0 C4 2 4 2 5.046875 3.9453125 C5.27890625 4.66460937 5.5109375 5.38390625 5.75 6.125 C5.99234375 6.84945312 6.2346875 7.57390625 6.484375 8.3203125 C6.73960938 9.15175781 6.73960938 9.15175781 7 10 C7.598125 9.34 8.19625 8.68 8.8125 8 C11 6 11 6 14 6 C14 10.29 14 14.58 14 19 C13.34 19 12.68 19 12 19 C11.67 16.69 11.34 14.38 11 12 C10.34 13.65 9.68 15.3 9 17 C8.01 17 7.02 17 6 17 C5.34 15.02 4.68 13.04 4 11 C3.67 13.64 3.34 16.28 3 19 C2.01 19 1.02 19 0 19 C0 12.73 0 6.46 0 0 Z " fill="#DDAF0F" transform="translate(25,80)"/>
<path d="M0 0 C0.66 0.33 1.32 0.66 2 1 C4.65776566 1 7.37423517 0.38192943 10 0 C9 2 9 2 5.9375 3.125 C4.968125 3.41375 3.99875 3.7025 3 4 C3.33 4 3.66 4 4 4 C5.33568021 4.32380126 6.66923011 4.65657551 8 5 C7.01 5.495 7.01 5.495 6 6 C7.32 6.33 8.64 6.66 10 7 C10 7.66 10 8.32 10 9 C7.03 9.66 4.06 10.32 1 11 C1 12.32 1 13.64 1 15 C0.01 14.67 -0.98 14.34 -2 14 C-1.42647107 17.87132028 0.48704352 20.08172796 3 23 C2.01 23.33 1.02 23.66 0 24 C-0.66 23.34 -1.32 22.68 -2 22 C-2 22.66 -2 23.32 -2 24 C-3.32 23.34 -4.64 22.68 -6 22 C-6.48761453 16.61456845 -6.79079255 12.38941118 -3.5 7.875 C-2.675 6.92625 -1.85 5.9775 -1 5 C-1.99 4.01 -2.98 3.02 -4 2 C-2.125 0.9375 -2.125 0.9375 0 0 Z " fill="#AF704B" transform="translate(60,38)"/>
<path d="M0 0 C1.6396875 0.2475 1.6396875 0.2475 3.3125 0.5 C6.87525873 1.06718184 6.87525873 1.06718184 10 1 C11.33981486 1.3062434 12.67511887 1.63451555 14 2 C13.01 2.99 12.02 3.98 11 5 C11.825 5.94875 12.65 6.8975 13.5 7.875 C16.79079255 12.38941118 16.48761453 16.61456845 16 22 C14.02 22.99 14.02 22.99 12 24 C12 23.01 12 22.02 12 21 C11.67 20.01 11.34 19.02 11 18 C11 17.01 11 16.02 11 15 C10.37625062 12.83574725 10.37625062 12.83574725 9 11 C6.82791412 10.08839907 6.82791412 10.08839907 4.375 9.75 C3.55773437 9.60046875 2.74046875 9.4509375 1.8984375 9.296875 C1.27195312 9.19890625 0.64546875 9.1009375 0 9 C0 8.34 0 7.68 0 7 C1.32 6.67 2.64 6.34 4 6 C2.68 5.34 1.36 4.68 0 4 C3.13349732 2.95550089 3.98968256 3.06576355 7 4 C4.69 3.01 2.38 2.02 0 1 C0 0.67 0 0.34 0 0 Z " fill="#B77147" transform="translate(71,38)"/>
<path d="M0 0 C2.475 0.99 2.475 0.99 5 2 C5 2.66 5 3.32 5 4 C5.66 4 6.32 4 7 4 C7.19573608 5.43640171 7.38127816 6.87419504 7.5625 8.3125 C7.66691406 9.11300781 7.77132812 9.91351563 7.87890625 10.73828125 C8 13 8 13 7 16 C7.66 16.33 8.32 16.66 9 17 C6.69 17.66 4.38 18.32 2 19 C1.67 20.98 1.34 22.96 1 25 C0.01 24.67 -0.98 24.34 -2 24 C-1.34 23.01 -0.68 22.02 0 21 C-1.65 21.66 -3.3 22.32 -5 23 C-5.66 21.35 -6.32 19.7 -7 18 C-6.34 18 -5.68 18 -5 18 C-4.67 17.34 -4.34 16.68 -4 16 C-2.35 16.33 -0.7 16.66 1 17 C0.67 15.35 0.34 13.7 0 12 C0.99 12 1.98 12 3 12 C2.34 10.68 1.68 9.36 1 8 C1.99 8 2.98 8 4 8 C3.2884375 6.576875 3.2884375 6.576875 2.5625 5.125 C1.28125 2.5625 1.28125 2.5625 0 0 Z " fill="#23275B" transform="translate(91,55)"/>
<path d="M0 0 C3.3 0 6.6 0 10 0 C10.87867729 3.73437848 11.08912219 7.16774573 11 11 C10.01 11.33 9.02 11.66 8 12 C8 10.68 8 9.36 8 8 C6.35 8.33 4.7 8.66 3 9 C3 10.65 3 12.3 3 14 C2.01 14.33 1.02 14.66 0 15 C0 10.05 0 5.1 0 0 Z " fill="#CED0DB" transform="translate(34,103)"/>
<path d="M0 0 C-0.33 0.99 -0.66 1.98 -1 3 C-0.34 3.66 0.32 4.32 1 5 C1.125 8.125 1.125 8.125 1 11 C0.34 11 -0.32 11 -1 11 C-0.67 12.65 -0.34 14.3 0 16 C-1.65 16.33 -3.3 16.66 -5 17 C-5 19.31 -5 21.62 -5 24 C-5.66 24 -6.32 24 -7 24 C-7 22.02 -7 20.04 -7 18 C-8.65 17.67 -10.3 17.34 -12 17 C-12 16.67 -12 16.34 -12 16 C-8.7 15.67 -5.4 15.34 -2 15 C-2.66 14.01 -3.32 13.02 -4 12 C-4.886875 12.33 -5.77375 12.66 -6.6875 13 C-9.70923347 13.91222143 -11.88373706 14.18330958 -15 14 C-12 12 -12 12 -9.91015625 11.65234375 C-9.27980469 11.43707031 -8.64945312 11.22179687 -8 11 C-6.97018198 8.98062998 -6.97018198 8.98062998 -6.4375 6.5625 C-5.45353856 2.75499705 -4.56565253 0 0 0 Z " fill="#857E6B" transform="translate(91,76)"/>
<path d="M0 0 C2.3125 0.1875 2.3125 0.1875 5 1 C8 5.03448276 8 5.03448276 8 8 C8.66 7.67 9.32 7.34 10 7 C9.67 6.01 9.34 5.02 9 4 C12.35810395 5.38956025 14.18586552 6.82526467 16 10 C16 11.65 16 13.3 16 15 C19.3 15.66 22.6 16.32 26 17 C26 17.33 26 17.66 26 18 C20.98952275 18.16984669 17.61361192 18.10907974 13 16 C12.01 16 11.02 16 10 16 C9.67 15.67 9.34 15.34 9 15 C8.01 15.495 8.01 15.495 7 16 C6.34 12.04 5.68 8.08 5 4 C3.02 4 1.04 4 -1 4 C-0.67 2.68 -0.34 1.36 0 0 Z " fill="#C3A65A" transform="translate(41,72)"/>
<path d="M0 0 C0.66 0.99 1.32 1.98 2 3 C3.65 2.67 5.3 2.34 7 2 C7.33 2.66 7.66 3.32 8 4 C8.99 4.33 9.98 4.66 11 5 C11 5.99 11 6.98 11 8 C11.66 8.33 12.32 8.66 13 9 C12.34 9 11.68 9 11 9 C12.66924071 12.04134491 12.66924071 12.04134491 15 13 C15.72693904 14.97888961 16.39816251 16.97954558 17 19 C14.36 18.67 11.72 18.34 9 18 C9.0825 17.278125 9.165 16.55625 9.25 15.8125 C8.92250873 12.12822325 7.50171432 10.64887398 5 8 C4.34 7.67 3.68 7.34 3 7 C3.66 8.65 4.32 10.3 5 12 C4.01 11.67 3.02 11.34 2 11 C1.54625 10.030625 1.0925 9.06125 0.625 8.0625 C-0.72142507 4.81873754 -0.72142507 4.81873754 -3.6875 3.625 C-4.450625 3.41875 -5.21375 3.2125 -6 3 C-6 2.67 -6 2.34 -6 2 C-4.02 1.34 -2.04 0.68 0 0 Z " fill="#252A5D" transform="translate(47,69)"/>
<path d="M0 0 C0.33 1.65 0.66 3.3 1 5 C-1.97 4.505 -1.97 4.505 -5 4 C-3.35 4.99 -1.7 5.98 0 7 C-0.2165625 7.84884766 -0.2165625 7.84884766 -0.4375 8.71484375 C-0.623125 9.44832031 -0.80875 10.18179688 -1 10.9375 C-1.185625 11.66839844 -1.37125 12.39929688 -1.5625 13.15234375 C-2.1807551 15.76336753 -1.67111306 17.39943689 -1 20 C-1.99 20 -2.98 20 -4 20 C-4 19.01 -4 18.02 -4 17 C-5.65 17 -7.3 17 -9 17 C-9.19054727 11.56940269 -8.96288412 7.16548454 -7 2 C-4 0 -4 0 0 0 Z " fill="#455897" transform="translate(100,72)"/>
<path d="M0 0 C1.7074998 1.28062485 3.37373596 2.61767557 5 4 C5 4.66 5 5.32 5 6 C5.928125 5.814375 6.85625 5.62875 7.8125 5.4375 C11 5 11 5 14 6 C14.33 5.01 14.66 4.02 15 3 C15.66 3 16.32 3 17 3 C17.33 2.01 17.66 1.02 18 0 C18.66 0.33 19.32 0.66 20 1 C19.25 7.75 19.25 7.75 17 10 C14.0625 10.125 14.0625 10.125 11 10 C8.99956602 10 6.99869975 10.04172084 5 10.125 C2 10 2 10 -1 8 C-1.25 4.4375 -1.25 4.4375 -1 1 C-0.67 0.67 -0.34 0.34 0 0 Z " fill="#E0DEE2" transform="translate(61,63)"/>
<path d="M0 0 C0.99 0.495 0.99 0.495 2 1 C2 5.95 2 10.9 2 16 C3.32 15.67 4.64 15.34 6 15 C6 13.35 6 11.7 6 10 C7.65 9.67 9.3 9.34 11 9 C11 10.32 11 11.64 11 13 C12.98491642 12.73323796 12.98491642 12.73323796 15 12 C15.33 11.01 15.66 10.02 16 9 C18.31 9.66 20.62 10.32 23 11 C18.65685745 13.30452462 14.05776179 14.99676139 9.48828125 16.7890625 C6.23678928 18.07408328 3.13212968 19.43393516 0 21 C0 14.07 0 7.14 0 0 Z " fill="#161141" transform="translate(31,102)"/>
<path d="M0 0 C1.32 0.33 2.64 0.66 4 1 C4.66 3.97 5.32 6.94 6 10 C6.99 9.34 7.98 8.68 9 8 C9.33 8.99 9.66 9.98 10 11 C10.66 10.67 11.32 10.34 12 10 C12 10.66 12 11.32 12 12 C12.60328125 12.06058594 13.2065625 12.12117188 13.828125 12.18359375 C14.62734375 12.26738281 15.4265625 12.35117188 16.25 12.4375 C17.43335938 12.55931641 17.43335938 12.55931641 18.640625 12.68359375 C20.82364639 12.97634993 22.8773182 13.42064419 25 14 C25 14.66 25 15.32 25 16 C19.72684667 15.5547115 14.98229776 14.91626837 10 13 C10 13.66 10 14.32 10 15 C9.34 15 8.68 15 8 15 C8 14.34 8 13.68 8 13 C6.35 13 4.7 13 3 13 C3.33 12.01 3.66 11.02 4 10 C2.35 10 0.7 10 -1 10 C-1.9765625 3.9453125 -1.9765625 3.9453125 -2 2 C-1.34 1.34 -0.68 0.68 0 0 Z " fill="#213176" transform="translate(43,77)"/>
<path d="M0 0 C5.97873264 0.11935764 5.97873264 0.11935764 7.08984375 1.23046875 C7.27734375 4.66796875 7.27734375 4.66796875 7.08984375 8.23046875 C4.05650453 11.26380797 1.31546295 10.89510215 -2.91015625 11.23046875 C-4.80504577 9.33557923 -4.09034737 6.65907729 -4.140625 4.140625 C-3.80648346 1.37121458 -2.76941042 0.33414154 0 0 Z " fill="#C7CCDC" transform="translate(50.91015625,101.76953125)"/>
<path d="M0 0 C3.3 0 6.6 0 10 0 C9.67 0.99 9.34 1.98 9 3 C8.01 3.33 7.02 3.66 6 4 C6.9590625 4.61875 6.9590625 4.61875 7.9375 5.25 C10 7 10 7 10.875 9 C11 11 11 11 9 14 C6.03 13.01 3.06 12.02 0 11 C0 10.01 0 9.02 0 8 C2.31 8.66 4.62 9.32 7 10 C7 9.34 7 8.68 7 8 C5.6078125 7.8453125 5.6078125 7.8453125 4.1875 7.6875 C0.96745642 6.9929808 -0.02579865 6.52259061 -2 4 C-1.34 2.68 -0.68 1.36 0 0 Z " fill="#E6E7EE" transform="translate(98,103)"/>
<path d="M0 0 C1.65 0 3.3 0 5 0 C4.67 0.66 4.34 1.32 4 2 C4.33 2.33 4.66 2.66 5 3 C5.04092937 5.33297433 5.04241723 7.66705225 5 10 C4.34 10 3.68 10 3 10 C3 9.34 3 8.68 3 8 C2.40832031 7.81824219 1.81664062 7.63648437 1.20703125 7.44921875 C0.41683594 7.19785156 -0.37335937 6.94648437 -1.1875 6.6875 C-1.96480469 6.44386719 -2.74210937 6.20023437 -3.54296875 5.94921875 C-6 5 -6 5 -11 2 C-11 10.58 -11 19.16 -11 28 C-8.36 28 -5.72 28 -3 28 C-3 29.98 -3 31.96 -3 34 C-3.33 34 -3.66 34 -4 34 C-4 32.35 -4 30.7 -4 29 C-6.64 29 -9.28 29 -12 29 C-12 19.76 -12 10.52 -12 1 C-4.125 2.125 -4.125 2.125 -1 4 C-0.67 2.68 -0.34 1.36 0 0 Z " fill="#D3A526" transform="translate(34,74)"/>
<path d="M0 0 C0 2.31 0 4.62 0 7 C0.99 7 1.98 7 3 7 C3 6.34 3 5.68 3 5 C4.65 5 6.3 5 8 5 C8 5.99 8 6.98 8 8 C9.32 8 10.64 8 12 8 C12 5.36 12 2.72 12 0 C12.33 0 12.66 0 13 0 C13 2.64 13 5.28 13 8 C13.66 8 14.32 8 15 8 C15 8.66 15 9.32 15 10 C7.99746254 10.86533258 0.95705874 11.56567858 -6 10 C-6.66 9.34 -7.32 8.68 -8 8 C-7.01 8 -6.02 8 -5 8 C-5.061875 7.236875 -5.12375 6.47375 -5.1875 5.6875 C-5 3 -5 3 -3.625 1.1875 C-2 0 -2 0 0 0 Z " fill="#090A39" transform="translate(72,103)"/>
<path d="M0 0 C1.59412284 3.18824568 1.10174735 6.62896662 1.0625 10.125 C1.05798828 10.87910156 1.05347656 11.63320312 1.04882812 12.41015625 C1.03703499 14.27347127 1.01909942 16.13674555 1 18 C0.01 18 -0.98 18 -2 18 C-2 16.35 -2 14.7 -2 13 C-3.65 12.67 -5.3 12.34 -7 12 C-5.625 10.5 -5.625 10.5 -4 9 C-3.34 9 -2.68 9 -2 9 C-2 7.68 -2 6.36 -2 5 C-4.47627099 5.63921965 -4.47627099 5.63921965 -7 7 C-8.36078035 9.52372901 -8.36078035 9.52372901 -9 12 C-9.33 12 -9.66 12 -10 12 C-9.38785504 5.51126347 -9.38785504 5.51126347 -7.625 3.1875 C-3.26315789 0 -3.26315789 0 0 0 Z " fill="#CF9F11" transform="translate(115,81)"/>
<path d="M0 0 C1.11375 0.2475 1.11375 0.2475 2.25 0.5 C5.19006578 1.11925696 5.19006578 1.11925696 9 1 C9.33 1.99 9.66 2.98 10 4 C10.66 3.34 11.32 2.68 12 2 C12 3.32 12 4.64 12 6 C7 8.5 7 8.5 2 11 C2 11.99 2 12.98 2 14 C1.34 14 0.68 14 0 14 C-2.09230769 9.56923077 -2.09230769 9.56923077 -1.625 6.6875 C-1.41875 6.130625 -1.2125 5.57375 -1 5 C0.32 4.67 1.64 4.34 3 4 C3 3.34 3 2.68 3 2 C1.02 2.99 1.02 2.99 -1 4 C-0.67 2.68 -0.34 1.36 0 0 Z " fill="#D68F5D" transform="translate(72,48)"/>
<path d="M0 0 C2.4375 0.375 2.4375 0.375 5 1 C5.33 1.66 5.66 2.32 6 3 C6.886875 2.67 7.77375 2.34 8.6875 2 C12 1 12 1 17 1 C17 10.24 17 19.48 17 29 C14.36 29 11.72 29 9 29 C8.67 30.32 8.34 31.64 8 33 C8 31.35 8 29.7 8 28 C10.64 28 13.28 28 16 28 C16 19.42 16 10.84 16 2 C11.43651904 4.30152846 11.43651904 4.30152846 6.87524414 6.60742188 C2.11111111 9 2.11111111 9 1 9 C1 6.66666667 1 4.33333333 1 2 C0.67 1.34 0.34 0.68 0 0 Z " fill="#C5913E" transform="translate(102,74)"/>
<path d="M0 0 C0.886875 0.309375 1.77375 0.61875 2.6875 0.9375 C5.46709155 1.8290671 8.13136375 2.49377007 11 3 C10.625 5.3125 10.625 5.3125 9 8 C5.75410038 9.37574553 2.43301724 10.22092044 -1 11 C-0.34 12.65 0.32 14.3 1 16 C0.34 16 -0.32 16 -1 16 C-1.33 14.35 -1.66 12.7 -2 11 C-2.99 10.67 -3.98 10.34 -5 10 C-4.67 8.35 -4.34 6.7 -4 5 C-2.35 5.99 -0.7 6.98 1 8 C0.34 6.35 -0.32 4.7 -1 3 C1.475 4.98 1.475 4.98 4 7 C2.02 3.535 2.02 3.535 0 0 Z " fill="#352F5E" transform="translate(57,54)"/>
<path d="M0 0 C0.66 0 1.32 0 2 0 C2 4.29 2 8.58 2 13 C1.01 13 0.02 13 -1 13 C-1.33 11.68 -1.66 10.36 -2 9 C-3.32 9 -4.64 9 -6 9 C-6 10.32 -6 11.64 -6 13 C-6.99 13 -7.98 13 -9 13 C-9 9.7 -9 6.4 -9 3 C-8.01 3 -7.02 3 -6 3 C-6 3.99 -6 4.98 -6 6 C-4.35 6 -2.7 6 -1 6 C-1.020625 5.195625 -1.04125 4.39125 -1.0625 3.5625 C-1 1 -1 1 0 0 Z " fill="#DB9A17" transform="translate(101,87)"/>
<path d="M0 0 C5.38180141 0.97048878 5.38180141 0.97048878 8 2 C9.625 4.5 9.625 4.5 11 7 C14.07561246 8.35980881 14.07561246 8.35980881 17 9 C17 9.66 17 10.32 17 11 C14.69 10.67 12.38 10.34 10 10 C10 10.66 10 11.32 10 12 C9.34 12 8.68 12 8 12 C7.67 10.68 7.34 9.36 7 8 C4.69 7.67 2.38 7.34 0 7 C0 4.69 0 2.38 0 0 Z " fill="#0F144A" transform="translate(88,102)"/>
<path d="M0 0 C0.99 0 1.98 0 3 0 C2.67 1.32 2.34 2.64 2 4 C2.928125 3.7215625 2.928125 3.7215625 3.875 3.4375 C6 3 6 3 8 4 C7.67 4.66 7.34 5.32 7 6 C6.01 6.33 5.02 6.66 4 7 C4 9.64 4 12.28 4 15 C5.65 15 7.3 15 9 15 C8.67 15.66 8.34 16.32 8 17 C6.68 17 5.36 17 4 17 C3.67 20.63 3.34 24.26 3 28 C2.67 28 2.34 28 2 28 C2 23.38 2 18.76 2 14 C0.68 13.67 -0.64 13.34 -2 13 C-1.67 12.01 -1.34 11.02 -1 10 C-1 10.66 -1 11.32 -1 12 C-0.34 12 0.32 12 1 12 C1 9.69 1 7.38 1 5 C0.01 5.33 -0.98 5.66 -2 6 C-2 5.34 -2 4.68 -2 4 C-1.34 3.67 -0.68 3.34 0 3 C0 2.01 0 1.02 0 0 Z " fill="#0F2175" transform="translate(38,72)"/>
<path d="M0 0 C5.97873264 0.11935764 5.97873264 0.11935764 7.08984375 1.23046875 C7.13077312 3.56344308 7.13226098 5.897521 7.08984375 8.23046875 C6.09984375 8.23046875 5.10984375 8.23046875 4.08984375 8.23046875 C4.08984375 7.57046875 4.08984375 6.91046875 4.08984375 6.23046875 C2.43984375 6.23046875 0.78984375 6.23046875 -0.91015625 6.23046875 C-0.91015625 6.89046875 -0.91015625 7.55046875 -0.91015625 8.23046875 C-1.90015625 8.23046875 -2.89015625 8.23046875 -3.91015625 8.23046875 C-4.03515625 5.35546875 -4.03515625 5.35546875 -3.91015625 2.23046875 C-1.91015625 0.23046875 -1.91015625 0.23046875 0 0 Z " fill="#B9BDCE" transform="translate(75.91015625,101.76953125)"/>
<path d="M0 0 C0 0.33 0 0.66 0 1 C-1.98 1 -3.96 1 -6 1 C-6 1.66 -6 2.32 -6 3 C-3.69 3 -1.38 3 1 3 C0.67 3.99 0.34 4.98 0 6 C-1.65 5.67 -3.3 5.34 -5 5 C-4.67 5.33 -4.34 5.66 -4 6 C-3.34 6 -2.68 6 -2 6 C-2 6.66 -2 7.32 -2 8 C-3.32 8.33 -4.64 8.66 -6 9 C-6.33 10.32 -6.66 11.64 -7 13 C-7 11.68 -7 10.36 -7 9 C-8.32 8.67 -9.64 8.34 -11 8 C-11 7.34 -11 6.68 -11 6 C-10.01 6.33 -9.02 6.66 -8 7 C-8 6.34 -8 5.68 -8 5 C-9.98 5.33 -11.96 5.66 -14 6 C-14 5.01 -14 4.02 -14 3 C-11.69 3 -9.38 3 -7 3 C-7 2.34 -7 1.68 -7 1 C-8.98 1 -10.96 1 -13 1 C-8.22284216 -3.77715784 -6.00994233 -3.00497116 0 0 Z " fill="#162876" transform="translate(77,44)"/>
<path d="M0 0 C1.67542976 0.28604898 3.34385343 0.61781233 5 1 C5.33 2.65 5.66 4.3 6 6 C6.99 6.33 7.98 6.66 9 7 C9.94921875 9.06640625 9.94921875 9.06640625 10.6875 11.5625 C10.93886719 12.38878906 11.19023438 13.21507813 11.44921875 14.06640625 C11.63097656 14.70449219 11.81273437 15.34257813 12 16 C11.34 15.67 10.68 15.34 10 15 C10 14.34 10 13.68 10 13 C9.34 13 8.68 13 8 13 C7.67 12.01 7.34 11.02 7 10 C6.34 9.67 5.68 9.34 5 9 C4.67 9.66 4.34 10.32 4 11 C4 9.68 4 8.36 4 7 C2.02 7.66 0.04 8.32 -2 9 C-1.125 1.125 -1.125 1.125 0 0 Z " fill="#EDEDF1" transform="translate(50,64)"/>
<path d="M0 0 C0.33 0.99 0.66 1.98 1 3 C2.65 3 4.3 3 6 3 C5.814375 3.7425 5.62875 4.485 5.4375 5.25 C5.00796892 7.94990963 5.14877026 9.44631077 6 12 C5.113125 11.62875 4.22625 11.2575 3.3125 10.875 C-0.40826005 9.89215772 -1.67438135 10.23937836 -5 12 C-4.814375 11.071875 -4.62875 10.14375 -4.4375 9.1875 C-3.75876119 5.98656229 -3.75876119 5.98656229 -5 3 C-3.35 3 -1.7 3 0 3 C0 2.01 0 1.02 0 0 Z " fill="#654247" transform="translate(70,110)"/>
<path d="M0 0 C1.216875 0.37125 2.43375 0.7425 3.6875 1.125 C7.43122397 2.08254219 9.54182441 1.94522377 13 0 C13.625 1.875 13.625 1.875 14 4 C13.34 4.66 12.68 5.32 12 6 C11.01 6 10.02 6 9 6 C8.34 7.32 7.68 8.64 7 10 C6.34 10 5.68 10 5 10 C4.67 9.01 4.34 8.02 4 7 C1.99983534 5.79117904 1.99983534 5.79117904 0 5 C0 3.35 0 1.7 0 0 Z " fill="#EDEDF1" transform="translate(64,81)"/>
<path d="M0 0 C0 5.94 0 11.88 0 18 C-0.33 18 -0.66 18 -1 18 C-1.06058594 17.22914062 -1.12117188 16.45828125 -1.18359375 15.6640625 C-1.26738281 14.66117188 -1.35117188 13.65828125 -1.4375 12.625 C-1.51871094 11.62726563 -1.59992188 10.62953125 -1.68359375 9.6015625 C-1.84965626 7.02072387 -1.84965626 7.02072387 -3 5 C-3.845625 5.495 -4.69125 5.99 -5.5625 6.5 C-9.33796832 8.14747708 -11.92817548 8.24430947 -16 8 C-16.33 6.35 -16.66 4.7 -17 3 C-16.34 2.67 -15.68 2.34 -15 2 C-14.67 3.32 -14.34 4.64 -14 6 C-13.15695313 5.566875 -12.31390625 5.13375 -11.4453125 4.6875 C-10.34960938 4.130625 -9.25390625 3.57375 -8.125 3 C-7.03445312 2.443125 -5.94390625 1.88625 -4.8203125 1.3125 C-2 0 -2 0 0 0 Z " fill="#2C4387" transform="translate(118,76)"/>
<path d="M0 0 C0.8146875 0.00257812 1.629375 0.00515625 2.46875 0.0078125 C3.2834375 0.00523438 4.098125 0.00265625 4.9375 0 C6.96875 0.1328125 6.96875 0.1328125 7.96875 1.1328125 C8.00955783 3.13239614 8.01129356 5.13326504 7.96875 7.1328125 C6.97875 7.1328125 5.98875 7.1328125 4.96875 7.1328125 C4.96875 6.4728125 4.96875 5.8128125 4.96875 5.1328125 C3.31875 5.1328125 1.66875 5.1328125 -0.03125 5.1328125 C-0.03125 5.7928125 -0.03125 6.4528125 -0.03125 7.1328125 C-1.02125 7.1328125 -2.01125 7.1328125 -3.03125 7.1328125 C-3.07379356 5.13326504 -3.07205783 3.13239614 -3.03125 1.1328125 C-2.03125 0.1328125 -2.03125 0.1328125 0 0 Z " fill="#DE861B" transform="translate(70.03125,92.8671875)"/>
<path d="M0 0 C0.99 0.66 1.98 1.32 3 2 C3 2.66 3 3.32 3 4 C0.03 4.66 -2.94 5.32 -6 6 C-5.01 6.33 -4.02 6.66 -3 7 C-3 8.98 -3 10.96 -3 13 C-3.66 12.01 -4.32 11.02 -5 10 C-5.99 10.495 -5.99 10.495 -7 11 C-7 9.68 -7 8.36 -7 7 C-11.455 6.01 -11.455 6.01 -16 5 C-15.67 4.34 -15.34 3.68 -15 3 C-12.9375 2.375 -12.9375 2.375 -11 2 C-11 2.66 -11 3.32 -11 4 C-10.113125 3.67 -9.22625 3.34 -8.3125 3 C-5.29076653 2.08777857 -3.11626294 1.81669042 0 2 C0 1.34 0 0.68 0 0 Z " fill="#162364" transform="translate(86,87)"/>
<path d="M0 0 C0 4.29 0 8.58 0 13 C-0.66 13 -1.32 13 -2 13 C-2.33 10.69 -2.66 8.38 -3 6 C-3.66 7.65 -4.32 9.3 -5 11 C-5.99 11 -6.98 11 -8 11 C-8.625 9.1875 -8.625 9.1875 -9 7 C-4.33333333 0 -4.33333333 0 0 0 Z " fill="#E7A913" transform="translate(39,86)"/>
<path d="M0 0 C2.86724686 0.57344937 3.8614515 0.8614515 6 3 C5.625 5.125 5.625 5.125 5 7 C2.525 6.01 2.525 6.01 0 5 C-0.33 6.32 -0.66 7.64 -1 9 C-1 8.34 -1 7.68 -1 7 C-1.66 7 -2.32 7 -3 7 C-3.33 8.32 -3.66 9.64 -4 11 C-4.66 11 -5.32 11 -6 11 C-6.33 11.99 -6.66 12.98 -7 14 C-7.33 13.34 -7.66 12.68 -8 12 C-7.22265625 10.0546875 -7.22265625 10.0546875 -6.0625 7.875 C-5.49208984 6.78832031 -5.49208984 6.78832031 -4.91015625 5.6796875 C-4.60980469 5.12539062 -4.30945313 4.57109375 -4 4 C-3.34 4 -2.68 4 -2 4 C-2 3.34 -2 2.68 -2 2 C-1.34 2 -0.68 2 0 2 C0 1.34 0 0.68 0 0 Z " fill="#ECECF1" transform="translate(87,66)"/>
<path d="M0 0 C0 3.51716303 -0.82445585 4.37121748 -3 7 C-2.34 7.61875 -1.68 8.2375 -1 8.875 C1 11 1 11 1 13 C2.29233607 14.37310707 3.62437146 15.71034824 5 17 C3.33388095 17.042721 1.66617115 17.04063832 0 17 C-0.33 16.67 -0.66 16.34 -1 16 C-1.66 17.32 -2.32 18.64 -3 20 C-3.03867188 19.12988281 -3.03867188 19.12988281 -3.078125 18.2421875 C-3.48567151 12.6291606 -4.49364211 9.41122445 -8 5 C-7.05125 4.54625 -6.1025 4.0925 -5.125 3.625 C-1.99686321 2.19761746 -1.99686321 2.19761746 0 0 Z " fill="#D7BEAA" transform="translate(90,39)"/>
<path d="M0 0 C3.27275026 0 5.846632 0.29925156 9 1 C8.67 1.99 8.34 2.98 8 4 C7.01 3.34 6.02 2.68 5 2 C4.79029441 6.14093698 4.79029441 6.14093698 6 10 C2.33118845 9.29445932 -0.70450534 7.72264494 -4 6 C-3.67 4.68 -3.34 3.36 -3 2 C-2.34 2.66 -1.68 3.32 -1 4 C-0.67 2.68 -0.34 1.36 0 0 Z " fill="#C79371" transform="translate(61,48)"/>
<path d="M0 0 C3.3 0.33 6.6 0.66 10 1 C10.59732819 3.76264289 11 6.16032769 11 9 C10.34 9 9.68 9 9 9 C8.67 8.34 8.34 7.68 8 7 C5.98330173 5.86649466 5.98330173 5.86649466 4 5 C5.65 5 7.3 5 9 5 C9 4.34 9 3.68 9 3 C7.02 3 5.04 3 3 3 C2.67 4.98 2.34 6.96 2 9 C1.34 9 0.68 9 0 9 C0 6.03 0 3.06 0 0 Z " fill="#CB7621" transform="translate(54,91)"/>
<path d="M0 0 C0 4 0 4 -1.5 5.75 C-1.995 6.1625 -2.49 6.575 -3 7 C-2.34 7.66 -1.68 8.32 -1 9 C-2.32 9 -3.64 9 -5 9 C-5 10.65 -5 12.3 -5 14 C-5.99 14 -6.98 14 -8 14 C-8.3129725 8.7837917 -7.85058429 5.43424223 -5 1 C-2 0 -2 0 0 0 Z " fill="#C17E23" transform="translate(113,86)"/>
<path d="M0 0 C2.3125 0.1875 2.3125 0.1875 5 1 C8 5.03448276 8 5.03448276 8 8 C8.99 8.33 9.98 8.66 11 9 C10.6875 11.375 10.6875 11.375 10 14 C9.01 14.66 8.02 15.32 7 16 C6.34 12.04 5.68 8.08 5 4 C3.02 4 1.04 4 -1 4 C-0.67 2.68 -0.34 1.36 0 0 Z " fill="#C2986F" transform="translate(41,72)"/>
<path d="M0 0 C1.32 0 2.64 0 4 0 C4 0.66 4 1.32 4 2 C4.99 1.67 5.98 1.34 7 1 C7.99 1.99 8.98 2.98 10 4 C9.67 4.99 9.34 5.98 9 7 C8.67 6.01 8.34 5.02 8 4 C5.03 3.505 5.03 3.505 2 3 C2 3.99 2 4.98 2 6 C3.65 6.33 5.3 6.66 7 7 C7 7.33 7 7.66 7 8 C5.02 8 3.04 8 1 8 C0.67 8.99 0.34 9.98 0 11 C-0.19406478 9.35492782 -0.38007935 7.70890406 -0.5625 6.0625 C-0.66691406 5.14597656 -0.77132812 4.22945313 -0.87890625 3.28515625 C-0.91886719 2.53105469 -0.95882812 1.77695313 -1 1 C-0.67 0.67 -0.34 0.34 0 0 Z " fill="#E2B80E" transform="translate(42,88)"/>
<path d="M0 0 C0 1.32 0 2.64 0 4 C1.98491642 3.73323796 1.98491642 3.73323796 4 3 C4.33 2.01 4.66 1.02 5 0 C7.31 0.66 9.62 1.32 12 2 C9.04925888 3.56779517 6.12880766 4.70074575 2.9375 5.6875 C2.08027344 5.95949219 1.22304688 6.23148437 0.33984375 6.51171875 C-2 7 -2 7 -5 6 C-5 4.35 -5 2.7 -5 1 C-2 0 -2 0 0 0 Z " fill="#0B0B3B" transform="translate(42,111)"/>
<path d="M0 0 C0.66 0.33 1.32 0.66 2 1 C2 2.66666667 2 4.33333333 2 6 C-1.53411321 8.12046792 -4.94393835 8.53199289 -9 9 C-8.67 8.01 -8.34 7.02 -8 6 C-8 5.01 -8 4.02 -8 3 C-7.4225 2.87625 -6.845 2.7525 -6.25 2.625 C-3.95785175 2.07484649 -3.95785175 2.07484649 -1.875 0.875 C-1.25625 0.58625 -0.6375 0.2975 0 0 Z " fill="#5F475F" transform="translate(82,54)"/>
<path d="M0 0 C0.66 0.33 1.32 0.66 2 1 C2 2.32 2 3.64 2 5 C1.01 5.33 0.02 5.66 -1 6 C-1.33 7.65 -1.66 9.3 -2 11 C-2.66 10.67 -3.32 10.34 -4 10 C-4.12375 9.195625 -4.2475 8.39125 -4.375 7.5625 C-4.72567164 4.84016601 -4.72567164 4.84016601 -7.0625 3.6875 C-7.701875 3.460625 -8.34125 3.23375 -9 3 C-7.68 2.34 -6.36 1.68 -5 1 C-4.67 1.66 -4.34 2.32 -4 3 C-2.68 2.01 -1.36 1.02 0 0 Z " fill="#2D2F61" transform="translate(87,59)"/>
<path d="M0 0 C5.75 0.75 5.75 0.75 8 3 C8.125 6.125 8.125 6.125 8 9 C7.01 9 6.02 9 5 9 C5 8.01 5 7.02 5 6 C3.35 6 1.7 6 0 6 C0 6.99 0 7.98 0 9 C-0.99 9 -1.98 9 -3 9 C-3 7.35 -3 5.7 -3 4 C-2.01 4.495 -2.01 4.495 -1 5 C-0.01 4.67 0.98 4.34 2 4 C1.34 3.67 0.68 3.34 0 3 C0 2.01 0 1.02 0 0 Z " fill="#8C553F" transform="translate(44,91)"/>
<path d="M0 0 C1.32 0.66 2.64 1.32 4 2 C4 3.65 4 5.3 4 7 C2.35 7 0.7 7 -1 7 C-1 6.01 -1 5.02 -1 4 C-1.99 4 -2.98 4 -4 4 C-4.33 6.97 -4.66 9.94 -5 13 C-5.66 12.34 -6.32 11.68 -7 11 C-7.66 11.99 -8.32 12.98 -9 14 C-9.1875 11.125 -9.1875 11.125 -9 8 C-8.01 7.34 -7.02 6.68 -6 6 C-5.74969023 3.41619823 -5.74969023 3.41619823 -6 1 C-5.67 1.66 -5.34 2.32 -5 3 C-3.35 3 -1.7 3 0 3 C0 3.99 0 4.98 0 6 C0.99 6 1.98 6 3 6 C2.67 5.01 2.34 4.02 2 3 C1.34 2.67 0.68 2.34 0 2 C0 1.34 0 0.68 0 0 Z " fill="#14216D" transform="translate(96,86)"/>
<path d="M0 0 C0.33 0.99 0.66 1.98 1 3 C1.66 3.33 2.32 3.66 3 4 C2.34 4 1.68 4 1 4 C2.66924071 7.04134491 2.66924071 7.04134491 5 8 C5.72693904 9.97888961 6.39816251 11.97954558 7 14 C4.36 13.67 1.72 13.34 -1 13 C-0.979375 12.236875 -0.95875 11.47375 -0.9375 10.6875 C-0.87057159 7.89814214 -0.87057159 7.89814214 -2 5 C-1.0625 2.3125 -1.0625 2.3125 0 0 Z " fill="#1F3177" transform="translate(57,74)"/>
<path d="M0 0 C0.33 0 0.66 0 1 0 C1 6.6 1 13.2 1 20 C0.67 20 0.34 20 0 20 C-0.06316406 19.09636719 -0.12632813 18.19273438 -0.19140625 17.26171875 C-0.51456266 10.75237513 -0.51456266 10.75237513 -3.69140625 5.46875 C-5.81666709 4.54182769 -5.81666709 4.54182769 -9 4 C-9 3.67 -9 3.34 -9 3 C-7.88625 2.87625 -6.7725 2.7525 -5.625 2.625 C-1.96896323 2.3534187 -1.96896323 2.3534187 0 0 Z " fill="#1D1A4C" transform="translate(109,103)"/>
<path d="M0 0 C0.99 0.33 1.98 0.66 3 1 C2.34 1 1.68 1 1 1 C1.33 1.99 1.66 2.98 2 4 C3.32 3.67 4.64 3.34 6 3 C6.33 5.64 6.66 8.28 7 11 C6.278125 10.67 5.55625 10.34 4.8125 10 C1.98302573 8.99396471 -0.02895466 8.83022598 -3 9 C-3 6.36 -3 3.72 -3 1 C-2.67 1 -2.34 1 -2 1 C-2 2.98 -2 4.96 -2 7 C-1.34 7 -0.68 7 0 7 C0 4.69 0 2.38 0 0 Z " fill="#37345E" transform="translate(86,93)"/>
<path d="M0 0 C0.66 0.33 1.32 0.66 2 1 C1.67 2.65 1.34 4.3 1 6 C1.804375 6.268125 2.60875 6.53625 3.4375 6.8125 C4.283125 7.204375 5.12875 7.59625 6 8 C6.33 8.99 6.66 9.98 7 11 C9.97 11.495 9.97 11.495 13 12 C13 12.33 13 12.66 13 13 C10.36 13 7.72 13 5 13 C5 12.34 5 11.68 5 11 C4.484375 10.87625 3.96875 10.7525 3.4375 10.625 C0.27297649 9.81358372 -2.86124985 8.9054087 -6 8 C-6 7.67 -6 7.34 -6 7 C-4.02 7 -2.04 7 0 7 C-0.33 6.01 -0.66 5.02 -1 4 C-0.5625 1.8125 -0.5625 1.8125 0 0 Z " fill="#3B3443" transform="translate(63,80)"/>
<path d="M0 0 C0.33 1.32 0.66 2.64 1 4 C2.65 3.67 4.3 3.34 6 3 C5.67 4.32 5.34 5.64 5 7 C5.66 7.33 6.32 7.66 7 8 C3.375 11 3.375 11 0 11 C-0.19491452 9.54263913 -0.38069358 8.08405407 -0.5625 6.625 C-0.66691406 5.81289062 -0.77132812 5.00078125 -0.87890625 4.1640625 C-1 2 -1 2 0 0 Z " fill="#364179" transform="translate(43,60)"/>
<path d="M0 0 C2.475 0.495 2.475 0.495 5 1 C5 2.65 5 4.3 5 6 C5.66 6.33 6.32 6.66 7 7 C7.625 9.0625 7.625 9.0625 8 11 C7.01 11.66 6.02 12.32 5 13 C4.01 11.68 3.02 10.36 2 9 C2.66 8.34 3.32 7.68 4 7 C3.67 6.34 3.34 5.68 3 5 C2.01 4.67 1.02 4.34 0 4 C0 2.68 0 1.36 0 0 Z " fill="#F8913B" transform="translate(65,52)"/>
<path d="M0 0 C3.51817355 0.63193445 5.52010028 2.1567169 8.26171875 4.40625 C7.27171875 4.90125 7.27171875 4.90125 6.26171875 5.40625 C5.45734375 5.07625 4.65296875 4.74625 3.82421875 4.40625 C-1.17081412 3.00413551 -5.64834623 3.73604503 -10.73828125 4.40625 C-7.67262856 0.14099408 -4.95131584 -0.19641584 0 0 Z " fill="#E0A46C" transform="translate(72.73828125,33.59375)"/>
<path d="M0 0 C-0.66 1.98 -1.32 3.96 -2 6 C-2.66 6 -3.32 6 -4 6 C-4.33 5.34 -4.66 4.68 -5 4 C-4.67 6.97 -4.34 9.94 -4 13 C-4.99 13 -5.98 13 -7 13 C-8.44430855 10.11138291 -8.37688506 8.20352299 -8 5 C-3.97826087 0 -3.97826087 0 0 0 Z " fill="#3C4983" transform="translate(55,31)"/>
<path d="M0 0 C0.66 0 1.32 0 2 0 C2 2.31 2 4.62 2 7 C4.31 7.33 6.62 7.66 9 8 C9 8.66 9 9.32 9 10 C5.7 9.67 2.4 9.34 -1 9 C-1.09765625 2.84765625 -1.09765625 2.84765625 -1 1 C-0.67 0.67 -0.34 0.34 0 0 Z " fill="#DDDFE8" transform="translate(86,102)"/>
<path d="M0 0 C-0.33 1.32 -0.66 2.64 -1 4 C-3.3125 4.625 -3.3125 4.625 -6 5 C-6.99 4.34 -7.98 3.68 -9 3 C-9 2.01 -9 1.02 -9 0 C-5.93109813 -1.53445094 -3.29905734 -0.54984289 0 0 Z " fill="#131747" transform="translate(75,75)"/>
<path d="M0 0 C0.66 0 1.32 0 2 0 C2 1.32 2 2.64 2 4 C2.99 4.33 3.98 4.66 5 5 C4.01 6.485 4.01 6.485 3 8 C-1.95 7.67 -6.9 7.34 -12 7 C-12 6.67 -12 6.34 -12 6 C-10.56496445 5.63597631 -9.12683494 5.28413409 -7.6875 4.9375 C-6.88699219 4.74027344 -6.08648437 4.54304688 -5.26171875 4.33984375 C-3 4 -3 4 0 5 C0 3.35 0 1.7 0 0 Z " fill="#1E2252" transform="translate(62,106)"/>
<path d="M0 0 C1.32 0.66 2.64 1.32 4 2 C4 2.66 4 3.32 4 4 C4.33 4.66 4.66 5.32 5 6 C4.01 6.33 3.02 6.66 2 7 C2 8.65 2 10.3 2 12 C1.01 12.33 0.02 12.66 -1 13 C-1 11.02 -1 9.04 -1 7 C-2.32 6.67 -3.64 6.34 -5 6 C-5 5.34 -5 4.68 -5 4 C-4.360625 3.855625 -3.72125 3.71125 -3.0625 3.5625 C-1.02454854 3.18992819 -1.02454854 3.18992819 0 2 C0 1.34 0 0.68 0 0 Z " fill="#221C43" transform="translate(100,72)"/>
<path d="M0 0 C2.27295712 1.14805166 3.99144083 2.40345297 6 4 C3 4 3 4 1 3 C-1.07564676 2.80241769 -1.07564676 2.80241769 -3.375 2.8125 C-4.14585938 2.79832031 -4.91671875 2.78414062 -5.7109375 2.76953125 C-8.21834888 3.02198393 -9.83261902 3.74806533 -12 5 C-12.33 4.01 -12.66 3.02 -13 2 C-9.22188201 -2.10664999 -4.9867106 -1.30911919 0 0 Z " fill="#26418C" transform="translate(74,32)"/>
<path d="M0 0 C-0.33 0.99 -0.66 1.98 -1 3 C-0.34 3.66 0.32 4.32 1 5 C1.125 8.125 1.125 8.125 1 11 C0.01 10.34 -0.98 9.68 -2 9 C-2 8.34 -2 7.68 -2 7 C-2.99 7 -3.98 7 -5 7 C-5.66 7.99 -6.32 8.98 -7 10 C-6.47731534 7.23723823 -5.89130413 4.6739124 -5 2 C-2 0 -2 0 0 0 Z " fill="#C0A477" transform="translate(91,76)"/>
<path d="M0 0 C4.5 3 4.5 3 9 6 C6.36 8.97 3.72 11.94 1 15 C0.67 13.68 0.34 12.36 0 11 C1.9375 8.25 1.9375 8.25 4 6 C3.34 5.38125 2.68 4.7625 2 4.125 C0 2 0 2 0 0 Z " fill="#DBC1AB" transform="translate(50,39)"/>
<path d="M0 0 C0.886875 0.185625 1.77375 0.37125 2.6875 0.5625 C5.85178811 0.98042484 7.94839642 0.80777742 11 0 C10.525625 0.5775 10.05125 1.155 9.5625 1.75 C8.0515133 3.92582084 7.45963849 5.42602448 7 8 C6.01 8 5.02 8 4 8 C3.896875 7.38125 3.79375 6.7625 3.6875 6.125 C3.12474627 3.63473516 3.12474627 3.63473516 0 2 C0 1.34 0 0.68 0 0 Z " fill="#DFE2EC" transform="translate(60,102)"/>
<path d="M0 0 C0.33 0 0.66 0 1 0 C1.2475 0.886875 1.495 1.77375 1.75 2.6875 C3.03934768 6.10427135 4.59980129 8.2797748 7 11 C6.01 11.33 5.02 11.66 4 12 C3.34 11.34 2.68 10.68 2 10 C2 10.66 2 11.32 2 12 C0.68 11.34 -0.64 10.68 -2 10 C-1.85950482 8.52031676 -1.71245174 7.04125484 -1.5625 5.5625 C-1.48128906 4.73878906 -1.40007813 3.91507813 -1.31640625 3.06640625 C-1 1 -1 1 0 0 Z " fill="#D77B34" transform="translate(56,50)"/>
<path d="M0 0 C0.99 0 1.98 0 3 0 C2.67 1.32 2.34 2.64 2 4 C2.928125 3.7215625 2.928125 3.7215625 3.875 3.4375 C6 3 6 3 8 4 C7.67 4.66 7.34 5.32 7 6 C6.01 6.33 5.02 6.66 4 7 C3.26676204 9.01508358 3.26676204 9.01508358 3 11 C2.34 11 1.68 11 1 11 C1 9.02 1 7.04 1 5 C0.01 5.33 -0.98 5.66 -2 6 C-2 5.34 -2 4.68 -2 4 C-1.34 3.67 -0.68 3.34 0 3 C0 2.01 0 1.02 0 0 Z " fill="#2B2143" transform="translate(38,72)"/>
<path d="M0 0 C1.65 0 3.3 0 5 0 C4.67 0.66 4.34 1.32 4 2 C4.33 2.33 4.66 2.66 5 3 C5.04092937 5.33297433 5.04241723 7.66705225 5 10 C4.34 10 3.68 10 3 10 C3 9.34 3 8.68 3 8 C2.34 8 1.68 8 1 8 C-0.35439668 5.29120665 -0.06501451 2.99066732 0 0 Z " fill="#8D483A" transform="translate(34,74)"/>
<path d="M0 0 C0.99 0 1.98 0 3 0 C3 0.99 3 1.98 3 3 C4.32 3.66 5.64 4.32 7 5 C5.68 5.33 4.36 5.66 3 6 C3 7.32 3 8.64 3 10 C2.01 10 1.02 10 0 10 C0 6.7 0 3.4 0 0 Z " fill="#C37F22" transform="translate(92,90)"/>
<path d="M0 0 C0.99 0.33 1.98 0.66 3 1 C3.25 6.625 3.25 6.625 1 10 C0.34 10 -0.32 10 -1 10 C-1.9765625 3.9453125 -1.9765625 3.9453125 -2 2 C-1.34 1.34 -0.68 0.68 0 0 Z " fill="#ABADC2" transform="translate(43,77)"/>
<path d="M0 0 C0.886875 0.309375 1.77375 0.61875 2.6875 0.9375 C5.46709155 1.8290671 8.13136375 2.49377007 11 3 C10.34 4.65 9.68 6.3 9 8 C8.01 8 7.02 8 6 8 C6 7.34 6 6.68 6 6 C5.38125 5.7525 4.7625 5.505 4.125 5.25 C1.64931313 3.79371361 1.04874998 2.62187494 0 0 Z " fill="#4B436B" transform="translate(57,54)"/>
<path d="M0 0 C2.64 0.99 5.28 1.98 8 3 C8 2.34 8 1.68 8 1 C8.99 1.33 9.98 1.66 11 2 C10.34 3.32 9.68 4.64 9 6 C6.03 5.01 3.06 4.02 0 3 C0 2.01 0 1.02 0 0 Z " fill="#EFF1F6" transform="translate(98,111)"/>
<path d="M0 0 C0.33 0 0.66 0 1 0 C1.33 6.27 1.66 12.54 2 19 C-0.64 19 -3.28 19 -6 19 C-6 18.67 -6 18.34 -6 18 C-4.35 17.67 -2.7 17.34 -1 17 C-0.67 11.39 -0.34 5.78 0 0 Z " fill="#0F2375" transform="translate(116,82)"/>
<path d="M0 0 C0 0.66 0 1.32 0 2 C-1.32 2 -2.64 2 -4 2 C-4 4.31 -4 6.62 -4 9 C-4.66 9 -5.32 9 -6 9 C-6 7.02 -6 5.04 -6 3 C-7.65 2.67 -9.3 2.34 -11 2 C-11 1.67 -11 1.34 -11 1 C-7.26513121 0.4254048 -3.78706732 0 0 0 Z " fill="#DE9316" transform="translate(90,91)"/>
<path d="M0 0 C1.32 0.66 2.64 1.32 4 2 C3.34 4.64 2.68 7.28 2 10 C0.5 8.875 0.5 8.875 -1 7 C-1.25 3.875 -1.25 3.875 -1 1 C-0.67 0.67 -0.34 0.34 0 0 Z " fill="#B3B4C6" transform="translate(96,77)"/>
<path d="M0 0 C3.91894024 2.61262683 4.07812826 4.46746393 5 9 C4.625 11.9375 4.625 11.9375 4 14 C3.01 14.33 2.02 14.66 1 15 C1 14.01 1 13.02 1 12 C0.67 11.01 0.34 10.02 0 9 C0.33 8.67 0.66 8.34 1 8 C1.1613058 4.93518979 0.98150241 2.94450722 0 0 Z " fill="#E48634" transform="translate(82,47)"/>
<path d="M0 0 C5.78898419 -0.20674944 10.42932723 0.40837921 16 2 C16 2.66 16 3.32 16 4 C10.43109483 3.52013969 5.32932432 2.70084819 0 1 C0 0.67 0 0.34 0 0 Z " fill="#8E3536" transform="translate(78,113)"/>
<path d="M0 0 C0.33 1.65 0.66 3.3 1 5 C-1.97 4.505 -1.97 4.505 -5 4 C-5.33 5.32 -5.66 6.64 -6 8 C-6.66 8 -7.32 8 -8 8 C-7.6875 5.125 -7.6875 5.125 -7 2 C-4 0 -4 0 0 0 Z " fill="#CD822D" transform="translate(100,72)"/>
<path d="M0 0 C1.6875 1.5 1.6875 1.5 3 4 C2.35208262 6.82923922 1.23902204 9.38216883 0 12 C-0.66 11.34 -1.32 10.68 -2 10 C-2.66 10.66 -3.32 11.32 -4 12 C-4 11.34 -4 10.68 -4 10 C-4.66 9.67 -5.32 9.34 -6 9 C-5.38125 8.814375 -4.7625 8.62875 -4.125 8.4375 C-0.94397134 6.28562767 -0.80548053 3.62466237 0 0 Z " fill="#1A1E51" transform="translate(81,64)"/>
<path d="M0 0 C4.875 0.875 4.875 0.875 6 2 C6.04063832 3.66617115 6.042721 5.33388095 6 7 C5.34 5.68 4.68 4.36 4 3 C3.67 4.65 3.34 6.3 3 8 C2.67 7.34 2.34 6.68 2 6 C0.02 6 -1.96 6 -4 6 C-2.68 5.34 -1.36 4.68 0 4 C0 2.68 0 1.36 0 0 Z " fill="#1E2661" transform="translate(87,32)"/>
<path d="M0 0 C0 0.66 0 1.32 0 2 C-2.31 1.67 -4.62 1.34 -7 1 C-7 1.66 -7 2.32 -7 3 C-7.66 3 -8.32 3 -9 3 C-9.103125 2.360625 -9.20625 1.72125 -9.3125 1.0625 C-9.539375 0.381875 -9.76625 -0.29875 -10 -1 C-10.99 -1.33 -11.98 -1.66 -13 -2 C-8.02398374 -3.71050559 -4.57383705 -2.00885647 0 0 Z " fill="#2B305C" transform="translate(105,111)"/>
<path d="M0 0 C5.75 -0.125 5.75 -0.125 8 1 C8 2.65 8 4.3 8 6 C7.01 6 6.02 6 5 6 C5 5.01 5 4.02 5 3 C3.35 3 1.7 3 0 3 C0 2.01 0 1.02 0 0 Z " fill="#87523F" transform="translate(70,94)"/>
<path d="M0 0 C2.49415272 0.99766109 3.78740335 1.68616685 5.3125 3.9375 C6 6 6 6 5 9 C4.34 9 3.68 9 3 9 C2.67 9.66 2.34 10.32 2 11 C1.01348113 8.04044339 1 6.07135164 1 3 C0.67 2.01 0.34 1.02 0 0 Z " fill="#8D7454" transform="translate(50,76)"/>
<path d="M0 0 C1.65 0.33 3.3 0.66 5 1 C5 1.99 5 2.98 5 4 C4.01 4 3.02 4 2 4 C1.67 4.99 1.34 5.98 1 7 C0.34 7 -0.32 7 -1 7 C-1.66 5.35 -2.32 3.7 -3 2 C-2.34 2 -1.68 2 -1 2 C-0.67 1.34 -0.34 0.68 0 0 Z " fill="#1D2053" transform="translate(87,71)"/>
<path d="M0 0 C0.99 0.33 1.98 0.66 3 1 C4.1875 3.5625 4.1875 3.5625 5 6 C4.01 6.33 3.02 6.66 2 7 C1.67 8.98 1.34 10.96 1 13 C0.01 12.67 -0.98 12.34 -2 12 C-1.34 11.01 -0.68 10.02 0 9 C-0.66 8.67 -1.32 8.34 -2 8 C-1.01 8 -0.02 8 1 8 C1.20970559 3.85906302 1.20970559 3.85906302 0 0 Z " fill="#33345D" transform="translate(91,67)"/>
<path d="M0 0 C2.875 0.25 2.875 0.25 6 1 C7.375 3.0625 7.375 3.0625 8 5 C7.34 5 6.68 5 6 5 C6 5.66 6 6.32 6 7 C5.34 6.67 4.68 6.34 4 6 C4.33 5.34 4.66 4.68 5 4 C2.03 3.505 2.03 3.505 -1 3 C-0.67 2.01 -0.34 1.02 0 0 Z " fill="#D0D3E1" transform="translate(100,107)"/>
<path d="M0 0 C0.33 0.66 0.66 1.32 1 2 C2.65 1.34 4.3 0.68 6 0 C3.525 4.455 3.525 4.455 1 9 C-1.08954032 4.82091936 -1.16552619 4.19589427 0 0 Z " fill="#192360" transform="translate(44,55)"/>
<path d="M0 0 C0 0.33 0 0.66 0 1 C-1.98 1 -3.96 1 -6 1 C-6.33 1.66 -6.66 2.32 -7 3 C-7 2.34 -7 1.68 -7 1 C-8.98 1 -10.96 1 -13 1 C-8.22284216 -3.77715784 -6.00994233 -3.00497116 0 0 Z " fill="#2D3877" transform="translate(77,44)"/>
<path d="M0 0 C1.134375 0.020625 2.26875 0.04125 3.4375 0.0625 C3.4375 0.3925 3.4375 0.7225 3.4375 1.0625 C1.7875 1.3925 0.1375 1.7225 -1.5625 2.0625 C-1.5625 4.7025 -1.5625 7.3425 -1.5625 10.0625 C-2.5525 9.7325 -3.5425 9.4025 -4.5625 9.0625 C-4.66015625 2.91015625 -4.66015625 2.91015625 -4.5625 1.0625 C-3.5625 0.0625 -3.5625 0.0625 0 0 Z " fill="#F7F7F9" transform="translate(51.5625,102.9375)"/>
<path d="M0 0 C2.31 0 4.62 0 7 0 C7 1.32 7 2.64 7 4 C4.39417629 4.93065133 3.35801776 5.14917407 0.75 4.0625 C0.1725 3.711875 -0.405 3.36125 -1 3 C-0.67 2.01 -0.34 1.02 0 0 Z " fill="#595B7D" transform="translate(67,79)"/>
<path d="M0 0 C0.99 0.33 1.98 0.66 3 1 C3.33 1.99 3.66 2.98 4 4 C4.66 3.34 5.32 2.68 6 2 C6 3.32 6 4.64 6 6 C4.02 6.66 2.04 7.32 0 8 C0 5.36 0 2.72 0 0 Z " fill="#E8E9ED" transform="translate(78,48)"/>
<path d="M0 0 C0.79921875 0.00902344 1.5984375 0.01804687 2.421875 0.02734375 C3.02515625 0.03894531 3.6284375 0.05054687 4.25 0.0625 C3.92 0.7225 3.59 1.3825 3.25 2.0625 C0.74609375 2.4765625 0.74609375 2.4765625 -2.3125 2.6875 C-3.32441406 2.76226562 -4.33632813 2.83703125 -5.37890625 2.9140625 C-6.16136719 2.96304688 -6.94382813 3.01203125 -7.75 3.0625 C-8.08 2.4025 -8.41 1.7425 -8.75 1.0625 C-5.75519083 0.1901588 -3.11424089 -0.04579766 0 0 Z " fill="#883436" transform="translate(58.75,112.9375)"/>
<path d="M0 0 C3.875 1.75 3.875 1.75 5 4 C3.68 3.67 2.36 3.34 1 3 C0.67 4.32 0.34 5.64 0 7 C-0.66 6.34 -1.32 5.68 -2 5 C-2.66 4.67 -3.32 4.34 -4 4 C-4 3.01 -4 2.02 -4 1 C-3.01 1.33 -2.02 1.66 -1 2 C-0.67 1.34 -0.34 0.68 0 0 Z " fill="#0A0C3B" transform="translate(62,77)"/>
<path d="M0 0 C0.66 0.99 1.32 1.98 2 3 C3.32 2.67 4.64 2.34 6 2 C5.34 3.32 4.68 4.64 4 6 C0.7 5.01 -2.6 4.02 -6 3 C-6 2.67 -6 2.34 -6 2 C-4.02 1.34 -2.04 0.68 0 0 Z " fill="#1A1D4F" transform="translate(47,69)"/>
<path d="M0 0 C0.66 0 1.32 0 2 0 C2 2.64 2 5.28 2 8 C0.02 7.34 -1.96 6.68 -4 6 C-3.67 4.68 -3.34 3.36 -3 2 C-2.34 2.66 -1.68 3.32 -1 4 C-0.67 2.68 -0.34 1.36 0 0 Z " fill="#EDEDEF" transform="translate(61,48)"/>
<path d="M0 0 C1.32 0.33 2.64 0.66 4 1 C3.01 1.495 3.01 1.495 2 2 C3.32 2.33 4.64 2.66 6 3 C6 3.66 6 4.32 6 5 C3.36 5.33 0.72 5.66 -2 6 C-2.33 5.01 -2.66 4.02 -3 3 C-2.34 3 -1.68 3 -1 3 C-0.67 2.01 -0.34 1.02 0 0 Z " fill="#E0873C" transform="translate(64,42)"/>
<path d="M0 0 C1 3 1 3 0.0625 5 C-0.288125 5.66 -0.63875 6.32 -1 7 C-1 7.99 -1 8.98 -1 10 C-2.65 9.67 -4.3 9.34 -6 9 C-5.01 8.67 -4.02 8.34 -3 8 C-3.061875 7.236875 -3.12375 6.47375 -3.1875 5.6875 C-3 3 -3 3 -1.5 1.1875 C-1.005 0.795625 -0.51 0.40375 0 0 Z " fill="#080C43" transform="translate(70,103)"/>
<path d="M0 0 C1.65 0 3.3 0 5 0 C5 1.65 5 3.3 5 5 C3.35 5 1.7 5 0 5 C0 3.35 0 1.7 0 0 Z " fill="#121547" transform="translate(50,105)"/>
<path d="M0 0 C1.98 0.99 1.98 0.99 4 2 C3.67 2.99 3.34 3.98 3 5 C4.65 5.33 6.3 5.66 8 6 C8 6.33 8 6.66 8 7 C6.02 7 4.04 7 2 7 C1.67 7.99 1.34 8.98 1 10 C0.67 6.7 0.34 3.4 0 0 Z " fill="#DA8D1A" transform="translate(41,89)"/>
<path d="M0 0 C2.475 0.99 2.475 0.99 5 2 C5 2.66 5 3.32 5 4 C5.66 4 6.32 4 7 4 C7 5.98 7 7.96 7 10 C3.49545668 7.66363779 2.72636828 5.76662171 1 2 C0.67 1.34 0.34 0.68 0 0 Z " fill="#121A56" transform="translate(91,55)"/>
<path d="M0 0 C1.98 0.99 1.98 0.99 4 2 C4.1875 4.8125 4.1875 4.8125 4 8 C3.01 8.99 2.02 9.98 1 11 C0.67 7.37 0.34 3.74 0 0 Z " fill="#38447D" transform="translate(90,34)"/>
<path d="M0 0 C0.66 0 1.32 0 2 0 C2 2.31 2 4.62 2 7 C1.01 7 0.02 7 -1 7 C-1 6.01 -1 5.02 -1 4 C-2.65 4 -4.3 4 -6 4 C-6 3.67 -6 3.34 -6 3 C-4.02 3 -2.04 3 0 3 C0 2.01 0 1.02 0 0 Z " fill="#F1F3F7" transform="translate(81,103)"/>
<path d="M0 0 C0.66 1.32 1.32 2.64 2 4 C3.65 3.34 5.3 2.68 7 2 C7.99 3.485 7.99 3.485 9 5 C5.94152152 5.54372951 3.11227195 6 0 6 C-0.38218767 4.34385343 -0.71395102 2.67542976 -1 1 C-0.67 0.67 -0.34 0.34 0 0 Z " fill="#43518D" transform="translate(102,78)"/>
<path d="M0 0 C1.485 0.99 1.485 0.99 3 2 C3 3.32 3 4.64 3 6 C1.02 6.99 1.02 6.99 -1 8 C-1.04241723 5.66705225 -1.04092937 3.33297433 -1 1 C-0.67 0.67 -0.34 0.34 0 0 Z " fill="#ACADBD" transform="translate(61,63)"/>
<path d="M0 0 C0 3 0 6 0 9 C-0.99 8.67 -1.98 8.34 -3 8 C-3.66 9.32 -4.32 10.64 -5 12 C-5.56705966 7.17999289 -3.84482 4.79309334 -1 1 C-0.67 0.67 -0.34 0.34 0 0 Z " fill="#41508E" transform="translate(47,48)"/>
<path d="M0 0 C0.99 0.66 1.98 1.32 3 2 C3 2.66 3 3.32 3 4 C-0.63 4 -4.26 4 -8 4 C-4.77208445 1.8480563 -3.71599191 1.79913557 0 2 C0 1.34 0 0.68 0 0 Z " fill="#163791" transform="translate(86,87)"/>
<path d="M0 0 C6.875 2.75 6.875 2.75 8 5 C6.33388095 5.042721 4.66617115 5.04063832 3 5 C2.67 4.67 2.34 4.34 2 4 C1.34 5.32 0.68 6.64 0 8 C0 5.36 0 2.72 0 0 Z " fill="#C7CAD7" transform="translate(87,51)"/>
<path d="M0 0 C-0.33 1.98 -0.66 3.96 -1 6 C-3.97 5.505 -3.97 5.505 -7 5 C-2.25 0 -2.25 0 0 0 Z " fill="#16286F" transform="translate(92,41)"/>
<path d="M0 0 C1.32 1.65 2.64 3.3 4 5 C3.34 5.66 2.68 6.32 2 7 C-0.31 6.01 -2.62 5.02 -5 4 C-5 3.67 -5 3.34 -5 3 C-3.35 3 -1.7 3 0 3 C0 2.01 0 1.02 0 0 Z " fill="#D48A33" transform="translate(70,110)"/>
<path d="M0 0 C0.33 0 0.66 0 1 0 C1.9765625 6.0546875 1.9765625 6.0546875 2 8 C1.34 8.66 0.68 9.32 0 10 C-0.66 10 -1.32 10 -2 10 C-2.6875 8.375 -2.6875 8.375 -3 6 C-1.5625 2.75 -1.5625 2.75 0 0 Z " fill="#1D1C38" transform="translate(71,103)"/>
<path d="M0 0 C2.475 0.495 2.475 0.495 5 1 C4.67 2.98 4.34 4.96 4 7 C2.68 6.67 1.36 6.34 0 6 C0 4.02 0 2.04 0 0 Z " fill="#2B3163" transform="translate(58,104)"/>
<path d="M0 0 C-0.66 1.65 -1.32 3.3 -2 5 C-2.99 5 -3.98 5 -5 5 C-5 4.34 -5 3.68 -5 3 C-5.66 3 -6.32 3 -7 3 C-6.67 2.01 -6.34 1.02 -6 0 C-3.42525708 -0.99667468 -2.51072708 -1.25536354 0 0 Z " fill="#1F2C68" transform="translate(86,81)"/>
<path d="M0 0 C-0.3125 1.9375 -0.3125 1.9375 -1 4 C-1.99 4.33 -2.98 4.66 -4 5 C-4.99 4.34 -5.98 3.68 -7 3 C-4.49955934 -0.00052879 -4.2621484 0 0 0 Z " fill="#E6883A" transform="translate(79,62)"/>
<path d="M0 0 C3 0 6 0 9 0 C9 0.66 9 1.32 9 2 C7.68 2.33 6.36 2.66 5 3 C4.67 4.32 4.34 5.64 4 7 C4 5.68 4 4.36 4 3 C2.68 2.67 1.36 2.34 0 2 C0 1.34 0 0.68 0 0 Z " fill="#3C3669" transform="translate(66,50)"/>
<path d="M0 0 C1.32 1.32 2.64 2.64 4 4 C2.68 4.99 1.36 5.98 0 7 C-0.66 5.02 -1.32 3.04 -2 1 C-1.34 0.67 -0.68 0.34 0 0 Z " fill="#27336F" transform="translate(91,46)"/>
<path d="M0 0 C2.625 0.375 2.625 0.375 5 1 C5 2.98 5 4.96 5 7 C4.67 5.68 4.34 4.36 4 3 C1.03 2.505 1.03 2.505 -2 2 C-1.34 1.34 -0.68 0.68 0 0 Z " fill="#F7B114" transform="translate(110,91)"/>
<path d="M0 0 C0 1.32 0 2.64 0 4 C-1.65 4.33 -3.3 4.66 -5 5 C-5 3.68 -5 2.36 -5 1 C-2 0 -2 0 0 0 Z " fill="#162881" transform="translate(113,86)"/>
<path d="M0 0 C2.375 0.3125 2.375 0.3125 5 1 C5.66 1.99 6.32 2.98 7 4 C5.1875 4.6875 5.1875 4.6875 3 5 C1.25 3.6875 1.25 3.6875 0 2 C0 1.34 0 0.68 0 0 Z " fill="#E68536" transform="translate(62,62)"/>
<path d="M0 0 C2.475 0.495 2.475 0.495 5 1 C5 1.99 5 2.98 5 4 C3.68 4.33 2.36 4.66 1 5 C0.67 3.35 0.34 1.7 0 0 Z " fill="#EA843A" transform="translate(65,52)"/>
<path d="M0 0 C0.33 0.66 0.66 1.32 1 2 C2.32 2 3.64 2 5 2 C4.34 3.98 3.68 5.96 3 8 C0.4345406 5.4345406 0.45953913 3.52313332 0 0 Z " fill="#132986" transform="translate(30,84)"/>
<path d="M0 0 C0.33 0 0.66 0 1 0 C1.33 2.64 1.66 5.28 2 8 C1.34 8 0.68 8 0 8 C-0.33 8.66 -0.66 9.32 -1 10 C-1.33 7.36 -1.66 4.72 -2 2 C-1.34 2 -0.68 2 0 2 C0 1.34 0 0.68 0 0 Z " fill="#252B61" transform="translate(94,78)"/>
<path d="M0 0 C0.99 0 1.98 0 3 0 C3 2.97 3 5.94 3 9 C2.67 9 2.34 9 2 9 C1.896875 8.21625 1.79375 7.4325 1.6875 6.625 C1.22404978 3.66954819 1.22404978 3.66954819 -2 2 C-1.34 1.34 -0.68 0.68 0 0 Z " fill="#F5DE02" transform="translate(112,81)"/>
<path d="M0 0 C0 1.98 0 3.96 0 6 C-0.99 6.495 -0.99 6.495 -2 7 C-2.66 5.02 -3.32 3.04 -4 1 C-2 0 -2 0 0 0 Z " fill="#10164E" transform="translate(60,64)"/>
<path d="M0 0 C1.485 0.99 1.485 0.99 3 2 C2.67 3.65 2.34 5.3 2 7 C1.34 7 0.68 7 0 7 C-0.38133299 5.0085944 -0.71325582 3.00720923 -1 1 C-0.67 0.67 -0.34 0.34 0 0 Z " fill="#DEE2EC" transform="translate(42,108)"/>
<path d="M0 0 C0 1.98 0 3.96 0 6 C-0.66 5.34 -1.32 4.68 -2 4 C-2.66 4.99 -3.32 5.98 -4 7 C-4 5.02 -4 3.04 -4 1 C-2 0 -2 0 0 0 Z " fill="#152F81" transform="translate(91,93)"/>
<path d="M0 0 C0.99 0 1.98 0 3 0 C3 0.66 3 1.32 3 2 C2.01 2.495 2.01 2.495 1 3 C0.27840576 4.64363134 -0.39351421 6.31050386 -1 8 C-1.33 8 -1.66 8 -2 8 C-1.125 1.125 -1.125 1.125 0 0 Z " fill="#F8DB02" transform="translate(107,85)"/>
<path d="M0 0 C0.66 0 1.32 0 2 0 C2 2.31 2 4.62 2 7 C1.34 7 0.68 7 0 7 C-0.38133299 5.0085944 -0.71325582 3.00720923 -1 1 C-0.67 0.67 -0.34 0.34 0 0 Z " fill="#ACAFC3" transform="translate(37,77)"/>
<path d="M0 0 C1.32 0.66 2.64 1.32 4 2 C3.01 2.495 3.01 2.495 2 3 C2.66 4.65 3.32 6.3 4 8 C3.34 8 2.68 8 2 8 C1.67 6.35 1.34 4.7 1 3 C0.01 2.67 -0.98 2.34 -2 2 C-1.34 1.34 -0.68 0.68 0 0 Z " fill="#353B6B" transform="translate(54,62)"/>
<path d="M0 0 C2.475 0.495 2.475 0.495 5 1 C5 2.98 5 4.96 5 7 C4.34 6.01 3.68 5.02 3 4 C2.01 4.495 2.01 4.495 1 5 C0.67 3.35 0.34 1.7 0 0 Z " fill="#142D7E" transform="translate(78,93)"/>
<path d="M0 0 C2.97 0.33 5.94 0.66 9 1 C9 1.33 9 1.66 9 2 C6.69 2 4.38 2 2 2 C1.67 2.66 1.34 3.32 1 4 C0.67 2.68 0.34 1.36 0 0 Z " fill="#EEB210" transform="translate(54,91)"/>
<path d="M0 0 C-1 3 -1 3 -2.875 4.25 C-5 5 -5 5 -8 4 C-7.34 4 -6.68 4 -6 4 C-6 3.34 -6 2.68 -6 2 C-2.25 0 -2.25 0 0 0 Z " fill="#B8AB2C" transform="translate(116,75)"/>
<path d="M0 0 C0.66 0.33 1.32 0.66 2 1 C2 2.32 2 3.64 2 5 C0.68 5.33 -0.64 5.66 -2 6 C-1.125 1.125 -1.125 1.125 0 0 Z " fill="#AEB0C2" transform="translate(79,63)"/>
<path d="M0 0 C0.33 0.66 0.66 1.32 1 2 C1.66 2.33 2.32 2.66 3 3 C3.625 5.0625 3.625 5.0625 4 7 C3.01 7.33 2.02 7.66 1 8 C-1.125 3.375 -1.125 3.375 0 0 Z " fill="#BA6F45" transform="translate(71,54)"/>
</svg>
