<?xml version="1.0" encoding="UTF-8"?>
<svg version="1.1" xmlns="http://www.w3.org/2000/svg" width="386" height="558">
<path d="M0 0 C6.67034641 2.264026 13.30659859 4.40676508 20.16113281 6.05078125 C23.62146171 7.19759523 25.1579438 8.87587494 27.32763672 11.76879883 C28.35130998 14.83981862 28.46031152 16.9489031 28.47290039 20.16601562 C28.48232666 21.83610435 28.48232666 21.83610435 28.49194336 23.53993225 C28.4937561 25.36058449 28.4937561 25.36058449 28.49560547 27.21801758 C28.49979492 28.48209946 28.50398438 29.74618134 28.50830078 31.04856873 C28.51986224 35.18449215 28.51821067 39.32036439 28.51513672 43.45629883 C28.51501713 44.15840233 28.51489754 44.86050583 28.51477432 45.58388519 C28.49690398 128.08313937 22.92242654 209.63017043 -38.42675781 270.95996094 C-57.0994413 289.11534763 -91.59181888 315.99686147 -118.85986328 317.51879883 C-151.0830741 316.62596427 -188.70319453 283.93381446 -210.32080078 262.09301758 C-250.62503246 219.18236082 -263.33130311 161.90611697 -266.67236328 104.76879883 C-266.80155151 102.81272705 -266.80155151 102.81272705 -266.93334961 100.81713867 C-267.90982819 84.97929311 -267.92863005 69.11721667 -267.9675293 53.25512695 C-267.97874988 49.16888011 -268.01342412 45.0831546 -268.052701 40.99709511 C-268.07882431 37.81945798 -268.08721539 34.64194939 -268.09081078 31.46421432 C-268.09565798 29.95636693 -268.10721837 28.44852455 -268.12584877 26.94078445 C-268.15023637 24.84346563 -268.14928167 22.74756406 -268.14233398 20.65014648 C-268.14820023 19.46248688 -268.15406647 18.27482727 -268.16011047 17.05117798 C-267.56420294 13.04091512 -266.21456623 10.8958319 -263.67236328 7.76879883 C-259.19202714 5.41762995 -254.49052762 4.00694089 -249.64892578 2.56958008 C-248.99458054 2.37360229 -248.34023529 2.17762451 -247.6660614 1.97570801 C-245.54422293 1.34062159 -243.42083802 0.7108903 -241.29736328 0.08129883 C-238.30296271 -0.81150836 -235.30959722 -1.70771975 -232.31689453 -2.60620117 C-231.57314072 -2.82938522 -230.8293869 -3.05256927 -230.06309509 -3.28251648 C-224.66163725 -4.91194266 -219.30223435 -6.64990405 -213.94995117 -8.43457031 C-139.40480227 -33.17656251 -73.03826078 -24.86857693 0 0 Z " fill="#111333" transform="translate(313.67236328125,62.231201171875)"/>
<path d="M0 0 C6.67034641 2.264026 13.30659859 4.40676508 20.16113281 6.05078125 C23.62146171 7.19759523 25.1579438 8.87587494 27.32763672 11.76879883 C28.35130998 14.83981862 28.46031152 16.9489031 28.47290039 20.16601562 C28.48232666 21.83610435 28.48232666 21.83610435 28.49194336 23.53993225 C28.4937561 25.36058449 28.4937561 25.36058449 28.49560547 27.21801758 C28.49979492 28.48209946 28.50398438 29.74618134 28.50830078 31.04856873 C28.51986224 35.18449215 28.51821067 39.32036439 28.51513672 43.45629883 C28.51501713 44.15840233 28.51489754 44.86050583 28.51477432 45.58388519 C28.49690398 128.08313937 22.92242654 209.63017043 -38.42675781 270.95996094 C-57.0994413 289.11534763 -91.59181888 315.99686147 -118.85986328 317.51879883 C-151.0830741 316.62596427 -188.70319453 283.93381446 -210.32080078 262.09301758 C-250.62503246 219.18236082 -263.33130311 161.90611697 -266.67236328 104.76879883 C-266.80155151 102.81272705 -266.80155151 102.81272705 -266.93334961 100.81713867 C-267.90982819 84.97929311 -267.92863005 69.11721667 -267.9675293 53.25512695 C-267.97874988 49.16888011 -268.01342412 45.0831546 -268.052701 40.99709511 C-268.07882431 37.81945798 -268.08721539 34.64194939 -268.09081078 31.46421432 C-268.09565798 29.95636693 -268.10721837 28.44852455 -268.12584877 26.94078445 C-268.15023637 24.84346563 -268.14928167 22.74756406 -268.14233398 20.65014648 C-268.14820023 19.46248688 -268.15406647 18.27482727 -268.16011047 17.05117798 C-267.56420294 13.04091512 -266.21456623 10.8958319 -263.67236328 7.76879883 C-259.19202714 5.41762995 -254.49052762 4.00694089 -249.64892578 2.56958008 C-248.99458054 2.37360229 -248.34023529 2.17762451 -247.6660614 1.97570801 C-245.54422293 1.34062159 -243.42083802 0.7108903 -241.29736328 0.08129883 C-238.30296271 -0.81150836 -235.30959722 -1.70771975 -232.31689453 -2.60620117 C-231.57314072 -2.82938522 -230.8293869 -3.05256927 -230.06309509 -3.28251648 C-224.66163725 -4.91194266 -219.30223435 -6.64990405 -213.94995117 -8.43457031 C-139.40480227 -33.17656251 -73.03826078 -24.86857693 0 0 Z M-243.67236328 25.76879883 C-244.67323239 81.38147327 -244.67323239 81.38147327 -239.96661377 136.71618652 C-239.67352992 138.76066064 -239.39570722 140.80673057 -239.12109375 142.85375977 C-233.605656 183.3773486 -217.72673391 222.31241109 -187.67236328 250.76879883 C-186.86798828 251.59379883 -186.06361328 252.41879883 -185.23486328 253.26879883 C-184.38923828 254.09379883 -183.54361328 254.91879883 -182.67236328 255.76879883 C-182.04845703 256.38883789 -181.42455078 257.00887695 -180.78173828 257.64770508 C-170.5852448 267.34131028 -148.22789818 286.76879883 -133.67236328 286.76879883 C-133.67236328 223.07879883 -133.67236328 159.38879883 -133.67236328 93.76879883 C-153.14236328 93.76879883 -172.61236328 93.76879883 -192.67236328 93.76879883 C-198.91979055 102.62057131 -198.91979055 102.62057131 -203.42236328 112.08129883 C-203.71183838 112.80333496 -204.00131348 113.52537109 -204.29956055 114.26928711 C-207.0771007 121.41198322 -209.67236328 129.04441229 -209.67236328 136.76879883 C-210.33236328 136.76879883 -210.99236328 136.76879883 -211.67236328 136.76879883 C-211.67236328 113.33879883 -211.67236328 89.90879883 -211.67236328 65.76879883 C-150.95236328 65.76879883 -90.23236328 65.76879883 -27.67236328 65.76879883 C-27.67236328 89.19879883 -27.67236328 112.62879883 -27.67236328 136.76879883 C-28.33236328 136.76879883 -28.99236328 136.76879883 -29.67236328 136.76879883 C-29.78451172 135.76526367 -29.78451172 135.76526367 -29.89892578 134.74145508 C-31.77522081 121.03714338 -36.54832426 103.89283785 -46.67236328 93.76879883 C-66.14236328 93.76879883 -85.61236328 93.76879883 -105.67236328 93.76879883 C-105.67236328 157.45879883 -105.67236328 221.14879883 -105.67236328 286.76879883 C-72.67811168 278.52023593 -41.26696693 244.47314442 -24.42236328 216.45629883 C-10.07305938 191.72188457 -2.53464266 163.68504265 0.63525391 135.46020508 C0.94984301 132.66858976 1.27847896 129.87889353 1.60888672 127.08911133 C4.20039062 104.81844012 4.46428061 82.72663021 4.39630127 60.3326416 C4.38590893 56.5372779 4.38147023 52.74190715 4.37646484 48.9465332 C4.36587094 41.55393634 4.34889734 34.16137355 4.32763672 26.76879883 C3.71959702 26.56669296 3.11155731 26.3645871 2.48509216 26.15635681 C1.68217239 25.88916336 0.87925262 25.62196991 0.05200195 25.34667969 C-0.74166275 25.08269882 -1.53532745 24.81871796 -2.3530426 24.54673767 C-5.45060615 23.50776319 -8.53184494 22.42674293 -11.60986328 21.33129883 C-12.71201172 20.94071289 -13.81416016 20.55012695 -14.94970703 20.14770508 C-17.79333545 19.09439885 -20.57945795 17.98255189 -23.37939453 16.82348633 C-28.95436197 14.58202628 -34.63207687 12.91945782 -40.42236328 11.33129883 C-41.51436035 11.03054443 -42.60635742 10.72979004 -43.73144531 10.41992188 C-115.08960907 -8.98829955 -175.11445145 3.11376915 -243.67236328 25.76879883 Z " fill="#F1D0A1" transform="translate(313.67236328125,62.231201171875)"/>
<path d="M0 0 C6.67034641 2.264026 13.30659859 4.40676508 20.16113281 6.05078125 C23.62146171 7.19759523 25.1579438 8.87587494 27.32763672 11.76879883 C28.35130998 14.83981862 28.46031152 16.9489031 28.47290039 20.16601562 C28.48232666 21.83610435 28.48232666 21.83610435 28.49194336 23.53993225 C28.4937561 25.36058449 28.4937561 25.36058449 28.49560547 27.21801758 C28.49979492 28.48209946 28.50398438 29.74618134 28.50830078 31.04856873 C28.51986224 35.18449215 28.51821067 39.32036439 28.51513672 43.45629883 C28.51501713 44.15840233 28.51489754 44.86050583 28.51477432 45.58388519 C28.49690398 128.08313937 22.92242654 209.63017043 -38.42675781 270.95996094 C-57.0994413 289.11534763 -91.59181888 315.99686147 -118.85986328 317.51879883 C-151.0830741 316.62596427 -188.70319453 283.93381446 -210.32080078 262.09301758 C-250.62503246 219.18236082 -263.33130311 161.90611697 -266.67236328 104.76879883 C-266.80155151 102.81272705 -266.80155151 102.81272705 -266.93334961 100.81713867 C-267.90982819 84.97929311 -267.92863005 69.11721667 -267.9675293 53.25512695 C-267.97874988 49.16888011 -268.01342412 45.0831546 -268.052701 40.99709511 C-268.07882431 37.81945798 -268.08721539 34.64194939 -268.09081078 31.46421432 C-268.09565798 29.95636693 -268.10721837 28.44852455 -268.12584877 26.94078445 C-268.15023637 24.84346563 -268.14928167 22.74756406 -268.14233398 20.65014648 C-268.14820023 19.46248688 -268.15406647 18.27482727 -268.16011047 17.05117798 C-267.56420294 13.04091512 -266.21456623 10.8958319 -263.67236328 7.76879883 C-259.19202714 5.41762995 -254.49052762 4.00694089 -249.64892578 2.56958008 C-248.99458054 2.37360229 -248.34023529 2.17762451 -247.6660614 1.97570801 C-245.54422293 1.34062159 -243.42083802 0.7108903 -241.29736328 0.08129883 C-238.30296271 -0.81150836 -235.30959722 -1.70771975 -232.31689453 -2.60620117 C-231.57314072 -2.82938522 -230.8293869 -3.05256927 -230.06309509 -3.28251648 C-224.66163725 -4.91194266 -219.30223435 -6.64990405 -213.94995117 -8.43457031 C-139.40480227 -33.17656251 -73.03826078 -24.86857693 0 0 Z M-128.88671875 -18.17260742 C-165.67752359 -17.02315889 -200.86097413 -5.85422938 -235.55908203 5.46411133 C-242.36746635 7.68187865 -249.20224257 9.7951098 -256.06689453 11.83129883 C-258.78959724 12.60207202 -258.78959724 12.60207202 -260.67236328 14.76879883 C-260.86550096 17.23459113 -260.93473347 19.5875355 -260.9152832 22.05395508 C-260.91718155 22.80561951 -260.9190799 23.55728394 -260.92103577 24.33172607 C-260.92475623 26.83168803 -260.91400603 29.33136235 -260.90283203 31.83129883 C-260.90163886 33.57893846 -260.90118736 35.32657873 -260.90144348 37.07421875 C-260.89987547 40.75305149 -260.89157348 44.43178737 -260.87817383 48.1105957 C-260.86138379 52.77440572 -260.85735379 57.43810729 -260.85811901 62.10194397 C-260.85784352 65.72274775 -260.85229935 69.34352884 -260.84511757 72.96432495 C-260.84198034 74.67991972 -260.83997537 76.39551702 -260.83922386 78.1111145 C-260.83112919 86.95074188 -260.69730537 95.76477338 -260.22436523 104.59301758 C-260.18577739 105.32736526 -260.14718954 106.06171295 -260.10743237 106.8183136 C-259.86766343 110.86349721 -259.37771573 114.78104007 -258.67236328 118.76879883 C-258.54838413 121.08032129 -258.44627001 123.39306714 -258.35986328 125.70629883 C-257.84940743 135.59506075 -256.05881954 145.24442341 -254.20751953 154.95727539 C-253.86687272 156.74691441 -253.53280637 158.53782776 -253.20751953 160.33032227 C-250.91270726 172.96702081 -247.27691341 184.78701527 -242.67236328 196.76879883 C-242.37346191 197.56286133 -242.07456055 198.35692383 -241.76660156 199.17504883 C-233.2100647 221.68397002 -220.20665303 241.31901988 -203.67236328 258.76879883 C-202.42712891 260.09331055 -202.42712891 260.09331055 -201.15673828 261.44458008 C-194.19003207 268.64554687 -186.69970152 274.79969387 -178.67236328 280.76879883 C-177.67978516 281.51774414 -176.68720703 282.26668945 -175.66455078 283.03833008 C-162.65369438 292.46525606 -148.16134246 300.03671196 -133.48486328 306.51879883 C-132.75638184 306.85403564 -132.02790039 307.18927246 -131.27734375 307.53466797 C-124.51901166 310.38533521 -117.87877047 311.08838571 -110.80688477 308.86987305 C-107.80048528 307.6336582 -104.89824947 306.27281557 -101.98486328 304.83129883 C-100.41502686 304.08021851 -100.41502686 304.08021851 -98.81347656 303.31396484 C-48.59919194 279.00963354 -11.66257309 239.87237618 6.98266602 187.0703125 C13.98495931 166.53238378 17.11635079 144.68806204 19.07763672 123.14379883 C19.25069336 121.27461792 19.25069336 121.27461792 19.42724609 119.36767578 C21.34827548 96.56418374 21.58381786 73.64628279 21.67773438 50.77392578 C21.69133299 47.77070401 21.71973331 44.7681207 21.75976562 41.76513672 C21.80889191 38.07167646 21.83381621 34.37881423 21.84096146 30.68504143 C21.8476573 29.29470062 21.8628362 27.90437259 21.88685226 26.5142231 C21.91829002 24.59484615 21.91555482 22.6750004 21.91113281 20.75537109 C21.92326309 19.12427147 21.92326309 19.12427147 21.93563843 17.46022034 C21.58174001 14.56876509 21.58174001 14.56876509 18.98550415 12.94786072 C15.87214408 11.56673683 12.91133604 10.85203109 9.57763672 10.14379883 C2.49612172 8.51793657 -4.18736837 6.19285942 -10.98486328 3.64379883 C-36.28205024 -5.69784493 -61.95495407 -12.51045941 -88.67236328 -16.23120117 C-89.55150391 -16.35962402 -90.43064453 -16.48804688 -91.33642578 -16.62036133 C-103.86676426 -18.42084204 -116.25123043 -18.50695331 -128.88671875 -18.17260742 Z " fill="#141535" transform="translate(313.67236328125,62.231201171875)"/>
<path d="M0 0 C9 0 9 0 12 1 C12.33 10.24 12.66 19.48 13 29 C15.1965625 25.8753125 15.1965625 25.8753125 17.4375 22.6875 C20.81239116 17.95619858 24.23347035 13.26672986 27.8125 8.6875 C28.49957031 7.80449219 29.18664062 6.92148437 29.89453125 6.01171875 C32.35715902 3.65874417 33.63765842 3.23795033 37 3 C39.45703125 3.12109375 39.45703125 3.12109375 41.8125 3.4375 C42.60269531 3.53933594 43.39289063 3.64117187 44.20703125 3.74609375 C44.79871094 3.82988281 45.39039063 3.91367187 46 4 C42.56843198 8.04749048 39.07893139 12.01944821 35.5 15.9375 C32.72281775 19.03005719 29.97341151 22.13000702 27.375 25.375 C26.88773438 25.98085938 26.40046875 26.58671875 25.8984375 27.2109375 C24.82642437 28.92763503 24.82642437 28.92763503 25.2277832 30.7199707 C26.27483081 33.81145903 27.82470628 36.44303278 29.45703125 39.26953125 C29.80126633 39.868759 30.1455014 40.46798676 30.50016785 41.08537292 C31.59973931 42.99707331 32.70597272 44.90481901 33.8125 46.8125 C34.54537016 48.08372604 35.27779657 49.35520801 36.00976562 50.62695312 C37.36810594 52.98574665 38.72948843 55.34267836 40.09301758 57.69848633 C40.72232178 58.78798584 41.35162598 59.87748535 42 61 C42.37281097 61.62756195 42.74562195 62.2551239 43.12973022 62.90170288 C46 67.7835972 46 67.7835972 46 70 C41.05 70 36.1 70 31 70 C29.95199219 68.03675781 28.90398438 66.07351563 27.82421875 64.05078125 C26.8018184 62.13761358 25.7789818 60.22467975 24.75610352 58.31176758 C24.04861615 56.98811804 23.34157843 55.66422806 22.63500977 54.34008789 C21.61594521 52.43050885 20.59523581 50.52181688 19.57421875 48.61328125 C18.96151123 47.46641846 18.34880371 46.31955566 17.7175293 45.13793945 C16.21209622 42.38750146 14.6131914 39.68865234 13 37 C12.67 47.89 12.34 58.78 12 70 C8.04 70 4.08 70 0 70 C0 46.9 0 23.8 0 0 Z " fill="#101233" transform="translate(31,434)"/>
<path d="M0 0 C9 0 9 0 12.08203125 2.68359375 C13.02205801 3.91261409 13.93089915 5.16591782 14.8125 6.4375 C15.55717529 7.43728882 15.55717529 7.43728882 16.31689453 8.45727539 C17.91083844 10.61633577 19.45763258 12.8038601 21 15 C22.07357295 16.50046228 23.14779229 18.00046227 24.22265625 19.5 C26.23951969 22.32853175 28.23386951 25.17088698 30.2109375 28.02734375 C33.05563669 32.07924722 36.02953123 36.03937498 39 40 C39 27.79 39 15.58 39 3 C41.97 3 44.94 3 48 3 C48 23.13 48 43.26 48 64 C44 66 44 66 40 66 C38.31508269 63.99855756 36.96953053 62.12749475 35.5859375 59.9296875 C35.17139313 59.29700958 34.75684875 58.66433167 34.32974243 58.01248169 C32.9982067 55.97494529 31.6860724 53.92575061 30.375 51.875 C28.65871067 49.22325858 26.93506927 46.57633453 25.2109375 43.9296875 C24.78641296 43.27530701 24.36188843 42.62092651 23.92449951 41.94671631 C17.13649381 30.9413723 17.13649381 30.9413723 9 21 C9 35.52 9 50.04 9 65 C6.03 65 3.06 65 0 65 C0 43.55 0 22.1 0 0 Z " fill="#101233" transform="translate(80,439)"/>
<path d="M0 0 C3.96 0 7.92 0 12 0 C12.02255473 7.9361421 12.04091723 15.87225946 12.05181217 23.80842495 C12.05704008 27.49314498 12.06413605 31.17784203 12.07543945 34.86254883 C12.08627162 38.41570831 12.09227753 41.96884563 12.09487724 45.52202034 C12.0967309 46.88045666 12.10035038 48.23889171 12.10573006 49.59731865 C12.11294475 51.49382223 12.11340809 53.39034793 12.11352539 55.28686523 C12.115746 56.36830307 12.11796661 57.44974091 12.12025452 58.56394958 C12 61 12 61 11 62 C7.37 62 3.74 62 0 62 C0 51.44 0 40.88 0 30 C-7.59 30 -15.18 30 -23 30 C-23 40.56 -23 51.12 -23 62 C-26.96 62 -30.92 62 -35 62 C-35 41.87 -35 21.74 -35 1 C-31.04 1 -27.08 1 -23 1 C-23 7.93 -23 14.86 -23 22 C-15.41 21.67 -7.82 21.34 0 21 C0 14.07 0 7.14 0 0 Z " fill="#101233" transform="translate(254,442)"/>
<path d="M0 0 C1.10118164 -0.01836914 1.10118164 -0.01836914 2.22460938 -0.03710938 C7.08951004 -0.05005942 11.07118574 0.64466313 15.6875 2.1875 C16.1825 5.6525 16.1825 5.6525 16.6875 9.1875 C12.75344655 10.49308697 10.8164576 9.43606785 7.03515625 7.90234375 C1.33279253 6.16601669 -4.42100015 6.39107901 -9.875 8.6875 C-10.679375 9.1825 -11.48375 9.6775 -12.3125 10.1875 C-12.9725 10.1875 -13.6325 10.1875 -14.3125 10.1875 C-18.52744939 20.04619517 -19.17661204 29.83886876 -16.3125 40.1875 C-14.52923397 44.30968743 -12.43870815 47.2439202 -9 50.125 C-3.98312432 52.10841597 0.38739366 52.51252658 5.6875 51.1875 C6.0175 43.2675 6.3475 35.3475 6.6875 27.1875 C10.6475 27.1875 14.6075 27.1875 18.6875 27.1875 C18.6875 37.4175 18.6875 47.6475 18.6875 58.1875 C9.12485483 61.77349194 -0.99505103 64.35638377 -11.1328125 61.3515625 C-19.9529452 57.33260295 -25.91855081 50.19255113 -29.3125 41.1875 C-32.50146199 30.98282164 -32.24883036 21.81261614 -27.3125 12.1875 C-20.48993906 2.84318236 -11.10333459 0.00959666 0 0 Z " fill="#101233" transform="translate(190.3125,442.8125)"/>
<path d="M0 0 C1.45217049 2.29716168 1.42583875 3.76430253 1.30859375 6.4609375 C1.26798828 7.67330078 1.26798828 7.67330078 1.2265625 8.91015625 C1.17435547 9.83248047 1.17435547 9.83248047 1.12109375 10.7734375 C-1.06640625 11.4609375 -1.06640625 11.4609375 -3.87890625 11.7734375 C-4.66265625 11.2990625 -5.44640625 10.8246875 -6.25390625 10.3359375 C-9.69747638 8.28619338 -11.93144666 8.34280554 -15.87890625 8.7734375 C-18.34077204 9.74447538 -18.34077204 9.74447538 -19.87890625 11.7734375 C-20.84714258 15.27398422 -21.44397592 18.40251822 -19.87890625 21.7734375 C-18.56430555 22.47632244 -17.22640426 23.13588645 -15.87890625 23.7734375 C0.14069923 32.78776996 0.14069923 32.78776996 2.6484375 39.6953125 C4.24314118 46.70673694 3.70433133 53.34011633 0.45703125 59.765625 C-2.87207889 64.76902444 -7.20014708 67.9003835 -12.87890625 69.7734375 C-20.05989188 70.61121916 -26.24323749 69.52601121 -32.87890625 66.7734375 C-33.86139149 62.7206859 -33.96050199 58.93482013 -33.87890625 54.7734375 C-31.75390625 54.0234375 -31.75390625 54.0234375 -28.87890625 53.7734375 C-25.75390625 55.6484375 -25.75390625 55.6484375 -22.87890625 57.7734375 C-19.28626173 58.97098567 -16.65173151 59.10438708 -12.87890625 58.7734375 C-10.27575631 57.4204247 -10.27575631 57.4204247 -8.87890625 54.7734375 C-8.36291428 51.52268808 -8.09869229 49.83285917 -8.87890625 46.7734375 C-11.53998242 43.82467742 -14.22761012 42.17850046 -17.5859375 40.08984375 C-18.54886719 39.49042969 -19.51179688 38.89101563 -20.50390625 38.2734375 C-21.42429687 37.726875 -22.3446875 37.1803125 -23.29296875 36.6171875 C-27.18652527 33.84111699 -30.21263073 30.29014373 -31.87890625 25.7734375 C-32.53578847 19.17049152 -33.03174593 12.26590288 -28.87890625 6.7734375 C-22.42339497 -0.11577738 -8.85397751 -5.77993542 0 0 Z " fill="#101233" transform="translate(353.87890625,435.2265625)"/>
<path d="M0 0 C0 2.64 0 5.28 0 8 C-3.76300374 9.25433458 -7.27210909 9.10695422 -11.1875 9.0625 C-11.93708984 9.05798828 -12.68667969 9.05347656 -13.45898438 9.04882812 C-15.30602383 9.03706354 -17.15302213 9.01912865 -19 9 C-18.99476318 9.87398438 -18.98952637 10.74796875 -18.98413086 11.6484375 C-18.89020592 29.79616264 -19.03035634 47.87112663 -20 66 C-23.96 66 -27.92 66 -32 66 C-31.67 47.52 -31.34 29.04 -31 10 C-34.3 10.33 -37.6 10.66 -41 11 C-42.87422326 11.0578464 -44.75007557 11.08928463 -46.625 11.0625 C-47.88183594 11.04896484 -47.88183594 11.04896484 -49.1640625 11.03515625 C-49.76992188 11.02355469 -50.37578125 11.01195312 -51 11 C-51 8.36 -51 5.72 -51 3 C-45.3444279 2.56796117 -39.68850882 2.14090158 -34.03222656 1.71826172 C-32.11187836 1.57409046 -30.19162812 1.42860759 -28.27148438 1.28173828 C-25.49634727 1.06970857 -22.7208809 0.86254794 -19.9453125 0.65625 C-19.1001004 0.59062866 -18.25488831 0.52500732 -17.38406372 0.45739746 C-11.58006272 0.03232333 -5.81861763 -0.07304311 0 0 Z " fill="#101233" transform="translate(320,438)"/>
<path d="M0 0 C2.64 0 5.28 0 8 0 C10.97 6.27 13.94 12.54 17 19 C19.92162734 14.32539625 22.71910883 9.8249138 25.3125 5 C26.08013672 3.576875 26.08013672 3.576875 26.86328125 2.125 C27.23839844 1.42375 27.61351562 0.7225 28 0 C30.31 0 32.62 0 35 0 C35.76214036 10.35694312 36.13430792 20.6135207 36 31 C33.69 31 31.38 31 29 31 C28.34 25.39 27.68 19.78 27 14 C26.39671875 15.14339844 25.7934375 16.28679687 25.171875 17.46484375 C24.36528017 18.95610628 23.55795013 20.44697132 22.75 21.9375 C22.35425781 22.69224609 21.95851562 23.44699219 21.55078125 24.22460938 C21.15761719 24.94326172 20.76445312 25.66191406 20.359375 26.40234375 C20.00327148 27.06741943 19.64716797 27.73249512 19.28027344 28.41772461 C18 30 18 30 14 31 C11.03 24.73 8.06 18.46 5 12 C4.67 18.27 4.34 24.54 4 31 C2.02 31 0.04 31 -2 31 C-1.34 20.77 -0.68 10.54 0 0 Z " fill="#101232" transform="translate(200,395)"/>
<path d="M0 0 C3.63 0 7.26 0 11 0 C11 20.13 11 40.26 11 61 C7.37 61 3.74 61 0 61 C0 40.87 0 20.74 0 0 Z " fill="#101233" transform="translate(140,443)"/>
<path d="M0 0 C1.76528757 2.60147642 2.06240524 4.62263104 2.1875 7.75 C1 10.5625 1 10.5625 -0.8125 12.75 C-2.92578125 13.38671875 -2.92578125 13.38671875 -4.8125 13.75 C-1.99089381 18.80487748 0.08437126 21.83392643 5.1875 24.75 C5.1875 26.07 5.1875 27.39 5.1875 28.75 C0.30470684 29.17093044 -1.85664667 29.35659923 -6.0625 26.6875 C-8.197992 24.66775283 -9.59442354 22.57247013 -11 20 C-12.48082722 16.4858236 -12.48082722 16.4858236 -15.8125 15.75 C-15.8125 20.04 -15.8125 24.33 -15.8125 28.75 C-18.4525 28.75 -21.0925 28.75 -23.8125 28.75 C-23.8125 18.52 -23.8125 8.29 -23.8125 -2.25 C-6.4156746 -4.42460317 -6.4156746 -4.42460317 0 0 Z M-15.8125 1.75 C-15.8125 5.05 -15.8125 8.35 -15.8125 11.75 C-11.38585436 12.05495485 -11.38585436 12.05495485 -7.4375 10.25 C-6.90125 9.755 -6.365 9.26 -5.8125 8.75 C-6.15477572 5.77934491 -6.15477572 5.77934491 -6.8125 2.75 C-9.76914519 1.2716774 -12.55479737 1.68967217 -15.8125 1.75 Z " fill="#101232" transform="translate(143.8125,397.25)"/>
<path d="M0 0 C2.64 0 5.28 0 8 0 C8 3.96 8 7.92 8 12 C12.29 12 16.58 12 21 12 C21 8.04 21 4.08 21 0 C23.64 0 26.28 0 29 0 C29 10.23 29 20.46 29 31 C26.36 31 23.72 31 21 31 C21 26.38 21 21.76 21 17 C16.71 17 12.42 17 8 17 C8 21.62 8 26.24 8 31 C5.36 31 2.72 31 0 31 C0 20.77 0 10.54 0 0 Z " fill="#101233" transform="translate(270,395)"/>
<path d="M0 0 C2.64 0 5.28 0 8 0 C8.01458252 0.68626465 8.02916504 1.3725293 8.04418945 2.07958984 C8.11850151 5.17863901 8.21521582 8.27659055 8.3125 11.375 C8.33505859 12.45523437 8.35761719 13.53546875 8.38085938 14.6484375 C8.41630859 15.6796875 8.45175781 16.7109375 8.48828125 17.7734375 C8.51446533 18.72653809 8.54064941 19.67963867 8.56762695 20.66162109 C8.78165161 21.81911865 8.78165161 21.81911865 9 23 C12.49124017 25.32749345 13.89222251 25.50299316 18 25 C20.35807168 23.70709361 20.35807168 23.70709361 22 21 C22.64096402 17.42473538 22.69689161 13.87585491 22.75 10.25 C22.77964844 9.26644531 22.80929688 8.28289062 22.83984375 7.26953125 C22.91042411 4.84627224 22.96317701 2.42396846 23 0 C24.98 0 26.96 0 29 0 C28.94789331 3.70945736 28.85276213 7.41662744 28.75 11.125 C28.72873047 12.69507813 28.72873047 12.69507813 28.70703125 14.296875 C28.51306547 20.42619379 28.23935678 24.41488008 24 29 C20.72477992 31.40275131 17.54694875 31.2986811 13.5625 31.3125 C11.89380859 31.33763672 11.89380859 31.33763672 10.19140625 31.36328125 C6.57465684 30.95158272 4.78842286 30.33598035 2 28 C-0.83826149 22.61240183 -0.2244897 16.55611654 -0.125 10.625 C-0.11597656 9.60277344 -0.10695312 8.58054687 -0.09765625 7.52734375 C-0.0742043 5.01798478 -0.04138355 2.50911664 0 0 Z " fill="#101232" transform="translate(165,395)"/>
<path d="M0 0 C2.30727605 1.86070649 2.85329205 3.20059136 3.3828125 6.0859375 C3.71921045 10.48836287 3.44310648 12.42515917 0.6875 16 C-3.6939956 19.07232583 -8.82234861 18.81057373 -14 19 C-14 22.63 -14 26.26 -14 30 C-16.31 30 -18.62 30 -21 30 C-21 19.77 -21 9.54 -21 -1 C-13.34750791 -2.09321316 -7.29966398 -2.80756307 0 0 Z M-14 3 C-14 6.63 -14 10.26 -14 14 C-10.39991481 14.32728047 -8.58388508 14.40422813 -5.5625 12.3125 C-3.74392115 10.102406 -3.74392115 10.102406 -4.0625 7.375 C-4.86655546 4.67710239 -4.86655546 4.67710239 -8 3 C-11.12521833 2.83300768 -11.12521833 2.83300768 -14 3 Z " fill="#101233" transform="translate(263,396)"/>
<path d="M0 0 C10.56 0 21.12 0 32 0 C31.67 1.65 31.34 3.3 31 5 C27.37 5 23.74 5 20 5 C20 13.58 20 22.16 20 31 C17.36 31 14.72 31 12 31 C12 22.42 12 13.84 12 5 C8.37 5 4.74 5 1 5 C0.67 3.35 0.34 1.7 0 0 Z " fill="#101133" transform="translate(87,395)"/>
<path d="M0 0 C2.64 0 5.28 0 8 0 C8 10.23 8 20.46 8 31 C5.36 31 2.72 31 0 31 C0 20.77 0 10.54 0 0 Z " fill="#101233" transform="translate(151,395)"/>
<path d="M0 0 C1.32 0 2.64 0 4 0 C4.99 1.98 5.98 3.96 7 6 C7.5775 5.195625 8.155 4.39125 8.75 3.5625 C11 1 11 1 15 0 C15 4.29 15 8.58 15 13 C14.01 13 13.02 13 12 13 C11.67 11.35 11.34 9.7 11 8 C9.515 10.475 9.515 10.475 8 13 C7.01 12.67 6.02 12.34 5 12 C4.67 11.34 4.34 10.68 4 10 C3.67 10.99 3.34 11.98 3 13 C2.01 13 1.02 13 0 13 C0 8.71 0 4.42 0 0 Z " fill="#1B1437" transform="translate(77,526)"/>
<path d="M0 0 C1.32 0 2.64 0 4 0 C4.99 1.98 5.98 3.96 7 6 C8.50559539 4.03617993 9.89131683 2.21736634 11 0 C12.32 0 13.64 0 15 0 C15 4.29 15 8.58 15 13 C14.01 13 13.02 13 12 13 C11.67 11.35 11.34 9.7 11 8 C9.515 10.475 9.515 10.475 8 13 C5 12 5 12 3.8125 9.9375 C3.544375 9.298125 3.27625 8.65875 3 8 C2.67 9.65 2.34 11.3 2 13 C1.01 12.67 0.02 12.34 -1 12 C-0.67 8.04 -0.34 4.08 0 0 Z " fill="#1B1437" transform="translate(112,526)"/>
<path d="M0 0 C6.8359375 -0.1953125 6.8359375 -0.1953125 9 0 C9.66 0.66 10.32 1.32 11 2 C10.625 5.625 10.625 5.625 10 9 C10.99 9.66 11.98 10.32 13 11 C13 11.66 13 12.32 13 13 C10.6875 13.25 10.6875 13.25 8 13 C6.1875 11 6.1875 11 5 9 C4.67 10.32 4.34 11.64 4 13 C2.68 13 1.36 13 0 13 C0 8.71 0 4.42 0 0 Z M4 2 C4 3.32 4 4.64 4 6 C4.99 6 5.98 6 7 6 C6.67 4.68 6.34 3.36 6 2 C5.34 2 4.68 2 4 2 Z " fill="#1A1437" transform="translate(208,526)"/>
<path d="M0 0 C7.75 -0.125 7.75 -0.125 10 1 C9.979375 1.721875 9.95875 2.44375 9.9375 3.1875 C9.90401239 6.0030771 9.90401239 6.0030771 10.625 8.6875 C10.74875 9.450625 10.8725 10.21375 11 11 C9 13 9 13 6.8359375 13.1953125 C4.55729167 13.13020833 2.27864583 13.06510417 0 13 C0 8.71 0 4.42 0 0 Z M4 2 C4 2.99 4 3.98 4 5 C4.66 5 5.32 5 6 5 C6 4.01 6 3.02 6 2 C5.34 2 4.68 2 4 2 Z M4 7 C4 8.32 4 9.64 4 11 C4.99 10.67 5.98 10.34 7 10 C6.67 9.01 6.34 8.02 6 7 C5.34 7 4.68 7 4 7 Z " fill="#1B1437" transform="translate(131,526)"/>
<path d="M0 0 C3.9375 0.5 3.9375 0.5 5.9375 1.5625 C7.52183618 4.63215135 7.29998449 7.11681143 6.9375 10.5 C5.9375 12.4375 5.9375 12.4375 3.9375 13.5 C-0.5325353 14.07737956 -3.24660122 14.04393252 -7.0625 11.5 C-8 8.6875 -8 8.6875 -8.0625 5.5 C-6.06598858 1.50697716 -4.37039854 0.17739625 0 0 Z M-4.0625 4.5 C-3.7325 6.48 -3.4025 8.46 -3.0625 10.5 C-1.4125 10.83 0.2375 11.16 1.9375 11.5 C3.22792763 9.23398135 3.22792763 9.23398135 3.9375 6.5 C2.8102078 4.13517472 2.8102078 4.13517472 0.9375 2.5 C-1.38607511 2.31509993 -1.38607511 2.31509993 -4.0625 4.5 Z " fill="#1B1437" transform="translate(198.0625,525.5)"/>
<path d="M0 0 C4.59037956 1.14759489 5.33669182 2.29039218 8 6 C8.33 4.02 8.66 2.04 9 0 C9.99 0 10.98 0 12 0 C12 4.29 12 8.58 12 13 C7.46539569 11.86634892 6.09975347 10.35806626 3 7 C2.67 8.98 2.34 10.96 2 13 C1.34 13 0.68 13 0 13 C0 8.71 0 4.42 0 0 Z " fill="#1B1437" transform="translate(175,526)"/>
<path d="M0 0 C1.32 0 2.64 0 4 0 C4 1.65 4 3.3 4 5 C5.65 5 7.3 5 9 5 C9 3.35 9 1.7 9 0 C9.99 0 10.98 0 12 0 C12 4.29 12 8.58 12 13 C11.01 13 10.02 13 9 13 C9 11.02 9 9.04 9 7 C7.35 7 5.7 7 4 7 C4 8.98 4 10.96 4 13 C2.68 13 1.36 13 0 13 C0 8.71 0 4.42 0 0 Z " fill="#1B1437" transform="translate(236,526)"/>
<path d="M0 0 C1.32 0 2.64 0 4 0 C4.33 3.3 4.66 6.6 5 10 C6.32 10 7.64 10 9 10 C9 6.7 9 3.4 9 0 C9.99 0 10.98 0 12 0 C12.05416188 1.60379341 12.09286638 3.20811406 12.125 4.8125 C12.14820312 5.70582031 12.17140625 6.59914063 12.1953125 7.51953125 C12 10 12 10 10 13 C8.125 13.36328125 8.125 13.36328125 6 13.3125 C5.29875 13.30863281 4.5975 13.30476562 3.875 13.30078125 C2 13 2 13 0 11 C-0.1953125 8.3984375 -0.1953125 8.3984375 -0.125 5.375 C-0.10695313 4.37210938 -0.08890625 3.36921875 -0.0703125 2.3359375 C-0.04710938 1.56507813 -0.02390625 0.79421875 0 0 Z " fill="#1B1437" transform="translate(96,526)"/>
<path d="M0 0 C0.99 0 1.98 0 3 0 C4.65 4.29 6.3 8.58 8 13 C6.35 12.67 4.7 12.34 3 12 C3 11.34 3 10.68 3 10 C1.35 10 -0.3 10 -2 10 C-2 10.99 -2 11.98 -2 13 C-3.32 12.67 -4.64 12.34 -6 12 C-4.02 8.04 -2.04 4.08 0 0 Z M0 5 C0 5.66 0 6.32 0 7 C0.66 6.67 1.32 6.34 2 6 C1.34 5.67 0.68 5.34 0 5 Z " fill="#1B1437" transform="translate(277,526)"/>
<path d="M0 0 C1.859375 0.2265625 1.859375 0.2265625 4 1 C5.265625 2.9609375 5.265625 2.9609375 6.25 5.375 C6.58515625 6.16648437 6.9203125 6.95796875 7.265625 7.7734375 C8 10 8 10 8 13 C6.68 13 5.36 13 4 13 C4 12.01 4 11.02 4 10 C1.52733235 10.34444881 1.52733235 10.34444881 -1 11 C-1.33 11.66 -1.66 12.32 -2 13 C-2.99 13 -3.98 13 -5 13 C-4.54554036 11.58208592 -4.08625056 10.16571954 -3.625 8.75 C-3.24214844 7.56664062 -3.24214844 7.56664062 -2.8515625 6.359375 C-2.04826333 4.13372042 -1.10288338 2.09068328 0 0 Z M1 5 C0.67 5.66 0.34 6.32 0 7 C0.66 7 1.32 7 2 7 C1.67 6.34 1.34 5.68 1 5 Z " fill="#1B1437" transform="translate(149,526)"/>
<path d="M0 0 C2.97 0 5.94 0 9 0 C9 0.66 9 1.32 9 2 C7.02 2 5.04 2 3 2 C3 2.99 3 3.98 3 5 C4.98 5 6.96 5 9 5 C9 5.99 9 6.98 9 8 C7.02 8 5.04 8 3 8 C3 8.99 3 9.98 3 11 C5.31 11 7.62 11 10 11 C10 11.66 10 12.32 10 13 C6.7 13 3.4 13 0 13 C0 8.71 0 4.42 0 0 Z " fill="#1B1437" transform="translate(260,526)"/>
<path d="M0 0 C4.29 0 8.58 0 13 0 C13 0.99 13 1.98 13 3 C11.35 3 9.7 3 8 3 C8 6.3 8 9.6 8 13 C6.68 13 5.36 13 4 13 C4 9.7 4 6.4 4 3 C2.68 3 1.36 3 0 3 C0 2.01 0 1.02 0 0 Z " fill="#1C1337" transform="translate(298,526)"/>
<path d="M0 0 C0.33 0.99 0.66 1.98 1 3 C-0.65 3 -2.3 3 -4 3 C-1.525 4.98 -1.525 4.98 1 7 C0.125 11.875 0.125 11.875 -1 13 C-3.33297433 13.04092937 -5.66705225 13.04241723 -8 13 C-8.33 12.01 -8.66 11.02 -9 10 C-7.02 10 -5.04 10 -3 10 C-3.825 9.443125 -4.65 8.88625 -5.5 8.3125 C-8 6 -8 6 -8.3125 3.25 C-8.209375 2.5075 -8.10625 1.765 -8 1 C-5.29120665 -0.35439668 -2.99066732 -0.06501451 0 0 Z " fill="#1B1437" transform="translate(295,526)"/>
<path d="M0 0 C4.29 0 8.58 0 13 0 C13 0.99 13 1.98 13 3 C11.35 3 9.7 3 8 3 C8 6.3 8 9.6 8 13 C7.01 13 6.02 13 5 13 C5 9.7 5 6.4 5 3 C3.35 3 1.7 3 0 3 C0 2.01 0 1.02 0 0 Z " fill="#1B1337" transform="translate(221,526)"/>
<path d="M0 0 C0.99 0 1.98 0 3 0 C3 4.29 3 8.58 3 13 C2.01 13 1.02 13 0 13 C0 8.71 0 4.42 0 0 Z " fill="#1B1437" transform="translate(160,526)"/>
</svg>
