<svg width="44" height="44" viewBox="0 0 44 44" fill="none" xmlns="http://www.w3.org/2000/svg">
<g id="Layer_1" clip-path="url(#clip0_1081_6580)">
<g id="Group">
<g id="Group_2">
<g id="Group_3">
<g id="Group_4">
<path id="Vector" d="M35.7489 43.705H31.6585C31.3176 43.705 31.0449 43.4323 31.0449 43.0914V6.4826C31.0449 5.7327 31.3517 5.01689 31.8971 4.4715C32.4084 3.96021 33.056 3.68752 33.7718 3.7216C34.4536 3.7216 35.1012 4.02838 35.5784 4.50559C36.0897 5.01689 36.3624 5.66453 36.3624 6.38035V43.0914C36.3283 43.4323 36.0556 43.705 35.7489 43.705ZM31.9653 42.7847H35.408V6.38035C35.408 5.93722 35.2376 5.4941 34.8967 5.15323C34.5899 4.84646 34.1809 4.67602 33.7378 4.64194C33.2946 4.64194 32.8856 4.81237 32.5447 5.11915C32.1698 5.46001 31.9653 5.97131 31.9653 6.44852V42.7847Z" fill="#E07E27"/>
</g>
<g id="Group_5">
<path id="Vector_2" d="M35.8852 10.1634H31.5221C31.2494 10.1634 31.0449 9.95889 31.0449 9.6862C31.0449 9.4135 31.2494 9.20898 31.5221 9.20898H35.8852C36.1579 9.20898 36.3624 9.4135 36.3624 9.6862C36.3283 9.95889 36.1238 10.1634 35.8852 10.1634Z" fill="#E07E27"/>
</g>
<g id="Group_6">
<path id="Vector_3" d="M35.8852 12.5169H31.5221C31.2494 12.5169 31.0449 12.3124 31.0449 12.0397C31.0449 11.767 31.2494 11.5625 31.5221 11.5625H35.8852C36.1579 11.5625 36.3624 11.767 36.3624 12.0397C36.3624 12.3124 36.1238 12.5169 35.8852 12.5169Z" fill="#E07E27"/>
</g>
<g id="Group_7">
<path id="Vector_4" d="M35.8852 14.8685H31.5221C31.2494 14.8685 31.0449 14.664 31.0449 14.3913C31.0449 14.1186 31.2494 13.9141 31.5221 13.9141H35.8852C36.1579 13.9141 36.3624 14.1186 36.3624 14.3913C36.3283 14.664 36.1238 14.8685 35.8852 14.8685Z" fill="#E07E27"/>
</g>
</g>
<g id="Group_8">
<g id="Group_9">
<path id="Vector_5" d="M24.0223 43.705H19.9319C19.5911 43.705 19.3184 43.4323 19.3184 43.0914V6.4826C19.3184 5.7327 19.6251 5.01689 20.1705 4.4715C20.6818 3.96021 21.3295 3.68752 22.0453 3.7216C22.727 3.7216 23.3746 4.02838 23.8519 4.50559C24.3632 5.01689 24.6358 5.66453 24.6358 6.38035V16.1972C24.6358 16.4699 24.4313 16.6745 24.1586 16.6745C23.8859 16.6745 23.6814 16.4699 23.6814 16.1972V6.38035C23.6814 5.93722 23.511 5.4941 23.1701 5.15323C22.8633 4.84646 22.4543 4.67602 22.0112 4.64194C21.5681 4.64194 21.159 4.81237 20.8182 5.11915C20.4432 5.46001 20.2387 5.97131 20.2387 6.44852V42.7165H23.6814V25.4688C23.6814 25.1961 23.8859 24.9915 24.1586 24.9915C24.4313 24.9915 24.6358 25.1961 24.6358 25.4688V43.0914C24.6358 43.4323 24.3632 43.705 24.0223 43.705Z" fill="#E07E27"/>
</g>
<g id="Group_10">
<path id="Vector_6" d="M24.1586 10.1634H19.7956C19.5229 10.1634 19.3184 9.95889 19.3184 9.6862C19.3184 9.4135 19.5229 9.20898 19.7956 9.20898H24.1586C24.4313 9.20898 24.6358 9.4135 24.6358 9.6862C24.6358 9.95889 24.4313 10.1634 24.1586 10.1634Z" fill="#E07E27"/>
</g>
<g id="Group_11">
<path id="Vector_7" d="M24.1586 12.5169H19.7956C19.5229 12.5169 19.3184 12.3124 19.3184 12.0397C19.3184 11.767 19.5229 11.5625 19.7956 11.5625H24.1586C24.4313 11.5625 24.6358 11.767 24.6358 12.0397C24.6358 12.3124 24.4313 12.5169 24.1586 12.5169Z" fill="#E07E27"/>
</g>
<g id="Group_12">
<path id="Vector_8" d="M24.1586 14.8685H19.7956C19.5229 14.8685 19.3184 14.664 19.3184 14.3913C19.3184 14.1186 19.5229 13.9141 19.7956 13.9141H24.1586C24.4313 13.9141 24.6358 14.1186 24.6358 14.3913C24.6358 14.664 24.4313 14.8685 24.1586 14.8685Z" fill="#E07E27"/>
</g>
</g>
<g id="Group_13">
<g id="Group_14">
<path id="Vector_9" d="M12.2957 43.705H8.20535C7.86449 43.705 7.5918 43.4323 7.5918 43.0914V6.4826C7.5918 5.7327 7.89857 5.01689 8.44396 4.4715C8.95525 3.96021 9.6029 3.68752 10.3187 3.7216C11.0004 3.7216 11.6481 4.02838 12.1253 4.50559C12.6366 5.01689 12.9093 5.66453 12.9093 6.38035V43.0914C12.9093 43.4323 12.6366 43.705 12.2957 43.705ZM8.54622 42.7847H11.9889V6.38035C11.9889 5.93722 11.8185 5.4941 11.4777 5.15323C11.1709 4.84646 10.7618 4.67602 10.3187 4.64194C9.87559 4.64194 9.46655 4.81237 9.12569 5.11915C8.75074 5.46001 8.54622 5.97131 8.54622 6.44852V42.7847Z" fill="#E07E27"/>
</g>
<g id="Group_15">
<path id="Vector_10" d="M12.4321 10.1634H8.06901C7.79632 10.1634 7.5918 9.95889 7.5918 9.6862C7.5918 9.4135 7.79632 9.20898 8.06901 9.20898H12.4321C12.7048 9.20898 12.9093 9.4135 12.9093 9.6862C12.9093 9.95889 12.7048 10.1634 12.4321 10.1634Z" fill="#E07E27"/>
</g>
<g id="Group_16">
<path id="Vector_11" d="M12.4321 12.5169H8.06901C7.79632 12.5169 7.5918 12.3124 7.5918 12.0397C7.5918 11.767 7.79632 11.5625 8.06901 11.5625H12.4321C12.7048 11.5625 12.9093 11.767 12.9093 12.0397C12.9093 12.3124 12.7048 12.5169 12.4321 12.5169Z" fill="#E07E27"/>
</g>
<g id="Group_17">
<path id="Vector_12" d="M12.4321 14.8685H8.06901C7.79632 14.8685 7.5918 14.664 7.5918 14.3913C7.5918 14.1186 7.79632 13.9141 8.06901 13.9141H12.4321C12.7048 13.9141 12.9093 14.1186 12.9093 14.3913C12.9093 14.664 12.7048 14.8685 12.4321 14.8685Z" fill="#E07E27"/>
</g>
</g>
<g id="Group_18">
<g id="Group_19">
<path id="Vector_13" d="M30.7349 4.02825H25.5879C25.1788 4.02825 24.8721 3.68738 24.8721 3.31243V0.790034C24.8721 0.380997 25.2129 0.0742188 25.5879 0.0742188H30.769C31.1781 0.0742188 31.4848 0.415083 31.4848 0.790034V3.27834C31.4848 3.68738 31.144 4.02825 30.7349 4.02825ZM25.7924 3.07383H30.5645V0.994553H25.7924V3.07383Z" fill="#E07E27"/>
</g>
<g id="Group_20">
<path id="Vector_14" d="M33.2221 2.52864H31.0065C30.7338 2.52864 30.5293 2.32412 30.5293 2.05143C30.5293 1.77874 30.7338 1.57422 31.0065 1.57422H33.2221C33.4948 1.57422 33.6993 1.77874 33.6993 2.05143C33.6993 2.32412 33.4948 2.52864 33.2221 2.52864Z" fill="#E07E27"/>
</g>
<g id="Group_21">
<path id="Vector_15" d="M25.3159 2.52864H23.1003C22.8276 2.52864 22.623 2.32412 22.623 2.05143C22.623 1.77874 22.8276 1.57422 23.1003 1.57422H25.3159C25.5886 1.57422 25.7931 1.77874 25.7931 2.05143C25.7931 2.32412 25.5545 2.52864 25.3159 2.52864Z" fill="#E07E27"/>
</g>
</g>
<g id="Group_22">
<g id="Group_23">
<path id="Vector_16" d="M18.3638 4.02825H13.2168C12.8078 4.02825 12.501 3.68738 12.501 3.31243V0.790034C12.501 0.380997 12.8418 0.0742188 13.2168 0.0742188H18.3979C18.807 0.0742188 19.1137 0.415083 19.1137 0.790034V3.27834C19.1137 3.68738 18.7729 4.02825 18.3638 4.02825ZM13.4213 3.07383H18.1934V0.994553H13.4213V3.07383Z" fill="#E07E27"/>
</g>
<g id="Group_24">
<path id="Vector_17" d="M20.851 2.52864H18.6354C18.3627 2.52864 18.1582 2.32412 18.1582 2.05143C18.1582 1.77874 18.3627 1.57422 18.6354 1.57422H20.851C21.1237 1.57422 21.3282 1.77874 21.3282 2.05143C21.3282 2.32412 21.1237 2.52864 20.851 2.52864Z" fill="#E07E27"/>
</g>
<g id="Group_25">
<path id="Vector_18" d="M12.9448 2.52864H10.7292C10.4565 2.52864 10.252 2.32412 10.252 2.05143C10.252 1.77874 10.4565 1.57422 10.7292 1.57422H12.9448C13.2175 1.57422 13.422 1.77874 13.422 2.05143C13.422 2.32412 13.2175 2.52864 12.9448 2.52864Z" fill="#E07E27"/>
</g>
</g>
</g>
<g id="Group_26">
<g id="Group_27">
<path id="Vector_19" d="M23.7147 17.9361C23.6125 17.9361 23.5102 17.902 23.4079 17.7997C23.2034 17.6293 23.2034 17.3225 23.3739 17.1521C23.5443 16.9476 23.8511 16.9476 24.0215 17.118C24.226 17.2884 24.226 17.5952 24.0556 17.7997C23.9533 17.8679 23.817 17.9361 23.7147 17.9361Z" fill="#E07E27"/>
</g>
<g id="Group_28">
<path id="Vector_20" d="M25.1815 23.1158C25.0793 23.1158 24.9429 23.0817 24.8747 22.9794C24.6702 22.809 24.6702 22.5022 24.8407 22.3318C25.0111 22.1273 25.3179 22.1272 25.4883 22.2977C25.6928 22.4681 25.6928 22.7749 25.5224 22.9453C25.4201 23.0817 25.3179 23.1158 25.1815 23.1158Z" fill="#E07E27"/>
</g>
<g id="Group_29">
<path id="Vector_21" d="M23.7147 17.9361C23.6125 17.9361 23.4761 17.902 23.4079 17.7997C23.2034 17.6293 23.2034 17.3225 23.3739 17.1521C23.5443 16.9476 23.8511 16.9476 24.0215 17.118C24.226 17.2884 24.226 17.5952 24.0556 17.7656C23.9533 17.8679 23.817 17.9361 23.7147 17.9361Z" fill="#E07E27"/>
</g>
<g id="Group_30">
<g id="Group_31">
<path id="Vector_22" d="M29.6436 23.3216C29.5414 23.3216 29.405 23.2875 29.3368 23.1853L22.6218 17.0497C22.4173 16.8793 22.4173 16.5725 22.5877 16.4021C22.7582 16.1976 23.0649 16.1976 23.2354 16.368L29.9504 22.5036C30.1549 22.674 30.1549 22.9808 29.9845 23.1512C29.8822 23.2875 29.7459 23.3216 29.6436 23.3216Z" fill="#E07E27"/>
</g>
</g>
<g id="Group_32">
<g id="Group_33">
<path id="Vector_23" d="M27.7022 25.4349C27.6 25.4349 27.4636 25.4008 27.3954 25.2986L20.6804 19.163C20.4759 18.9926 20.4759 18.6858 20.6463 18.5154C20.8167 18.3108 21.1235 18.3108 21.294 18.4813L28.009 24.6168C28.2135 24.7873 28.2135 25.094 28.0431 25.2645C27.9408 25.4008 27.8386 25.4349 27.7022 25.4349Z" fill="#E07E27"/>
</g>
</g>
<g id="Group_34">
<path id="Vector_24" d="M25.3166 26.0815C24.0554 26.0815 22.7601 25.6043 21.7375 24.6839C19.6242 22.7069 19.4878 19.4005 21.4649 17.2872C22.4193 16.2646 23.7146 15.6851 25.1121 15.6169C26.5096 15.5829 27.839 16.0601 28.8616 17.0145C29.8842 17.9689 30.4637 19.2642 30.5318 20.6617C30.5659 22.0593 30.0887 23.3887 29.1343 24.4112C28.1117 25.502 26.7142 26.0815 25.3166 26.0815ZM25.3166 16.5373C25.2484 16.5373 25.2144 16.5373 25.1462 16.5373C23.9873 16.5714 22.9306 17.0486 22.1466 17.9007C20.5445 19.6391 20.6127 22.3661 22.3511 23.9681C24.0895 25.5702 26.8164 25.502 28.4185 23.7636C29.2025 22.9114 29.6115 21.8207 29.5774 20.6617C29.5433 19.5028 29.0661 18.4461 28.214 17.6621C27.43 16.9463 26.4074 16.5373 25.3166 16.5373Z" fill="#E07E27"/>
</g>
</g>
</g>
</g>
<defs>
<clipPath id="clip0_1081_6580">
<rect width="43.6307" height="43.6307" fill="white" transform="translate(0.160156 0.0742188)"/>
</clipPath>
</defs>
</svg>
