<svg width="46" height="46" viewBox="0 0 46 46" fill="none" xmlns="http://www.w3.org/2000/svg">
<g id="Layer_1">
<path id="Vector" d="M13.2803 16.5966C13.1957 16.5966 13.112 16.5799 13.0339 16.5476C12.9557 16.5152 12.8847 16.4678 12.8249 16.408L5.57623 9.15929H5.05137C4.96677 9.15923 4.883 9.14251 4.80486 9.11007C4.72672 9.07763 4.65574 9.03011 4.59597 8.97023L2.99333 7.36759C2.93353 7.30779 2.88608 7.23679 2.85372 7.15865C2.82135 7.08051 2.80469 6.99676 2.80469 6.91219C2.80469 6.82761 2.82135 6.74386 2.85372 6.66572C2.88608 6.58759 2.93353 6.51659 2.99333 6.45679L6.45483 2.99529C6.51464 2.93548 6.58563 2.88804 6.66377 2.85567C6.74191 2.8233 6.82566 2.80664 6.91023 2.80664C6.99481 2.80664 7.07856 2.8233 7.1567 2.85567C7.23484 2.88804 7.30583 2.93548 7.36563 2.99529L8.96873 4.59793C9.02853 4.65773 9.07597 4.72873 9.10833 4.80687C9.14069 4.88501 9.15734 4.96875 9.15733 5.05333V5.57819L16.406 12.8269C16.4658 12.8867 16.5133 12.9577 16.5456 13.0358C16.578 13.1139 16.5947 13.1977 16.5947 13.2823C16.5947 13.3668 16.578 13.4506 16.5456 13.5287C16.5133 13.6069 16.4658 13.6779 16.406 13.7377L13.7357 16.408C13.6759 16.4678 13.6049 16.5152 13.5268 16.5476C13.4486 16.5799 13.3649 16.5966 13.2803 16.5966ZM5.31817 7.87129H5.84303C5.92761 7.87128 6.01135 7.88793 6.08949 7.92029C6.16763 7.95265 6.23863 8.00009 6.29843 8.05989L13.2803 15.0427L15.0407 13.2823L8.05793 6.30269C7.99813 6.24288 7.9507 6.17188 7.91834 6.09374C7.88598 6.01561 7.86933 5.93186 7.86933 5.84729V5.32013L6.91023 4.36149L4.35953 6.91219L5.31817 7.87129Z" fill="#E07E27"/>
<path id="Vector_2" d="M21.6099 22.2517C21.4808 22.2517 21.3546 22.2129 21.2479 22.1404L12.9219 16.4824C12.8435 16.429 12.778 16.359 12.7298 16.2773C12.6817 16.1956 12.6522 16.1044 12.6434 16.01C12.6346 15.9156 12.6468 15.8204 12.679 15.7313C12.7112 15.6422 12.7627 15.5612 12.8299 15.4943L15.5002 12.824C15.5671 12.7569 15.648 12.7054 15.7372 12.6731C15.8263 12.6409 15.9215 12.6288 16.0158 12.6375C16.1102 12.6463 16.2015 12.6758 16.2832 12.724C16.3648 12.7721 16.4348 12.8377 16.4882 12.916L22.1462 21.242C22.212 21.3388 22.2502 21.4517 22.2566 21.5686C22.2631 21.6855 22.2375 21.8019 22.1828 21.9054C22.128 22.0088 22.046 22.0954 21.9458 22.1558C21.8455 22.2161 21.7306 22.248 21.6136 22.248L21.6099 22.2517ZM14.289 15.8577L19.1834 19.1812L15.858 14.2868L14.289 15.8577Z" fill="#E07E27"/>
<path id="Vector_3" d="M36.1023 43.1944C35.5373 43.1943 34.9956 42.9697 34.5962 42.5702L11.7158 19.6884C11.631 19.6035 11.5715 19.4966 11.5442 19.3797C11.5169 19.2628 11.5228 19.1406 11.5613 19.0269L12.6699 15.7448C12.7015 15.651 12.7544 15.5656 12.8244 15.4955L15.4947 12.8252C15.5648 12.7552 15.6502 12.7023 15.744 12.6707L19.0261 11.5625C19.1398 11.5245 19.2618 11.519 19.3784 11.5465C19.495 11.5741 19.6016 11.6336 19.6862 11.7185L42.5666 34.5984C42.8557 34.887 43.0554 35.2528 43.1419 35.652C43.2284 36.0512 43.198 36.4668 43.0542 36.8492C41.9226 39.8364 39.8342 41.9248 36.847 43.0564C36.6092 43.1471 36.3568 43.1939 36.1023 43.1944ZM12.9095 19.0619L35.507 41.6589C35.62 41.7728 35.7633 41.8517 35.92 41.8863C36.0766 41.9208 36.2399 41.9094 36.3902 41.8535C39.0541 40.8415 40.8407 39.0567 41.8513 36.3924C41.9072 36.2421 41.9186 36.0788 41.8841 35.9222C41.8496 35.7655 41.7706 35.6221 41.6568 35.5092L19.0593 12.9117L16.2993 13.8441L13.8442 16.301L12.9095 19.0619Z" fill="#E07E27"/>
<path id="Vector_4" d="M5.84327 9.15802C5.71589 9.15803 5.59137 9.12026 5.48545 9.0495C5.37954 8.97874 5.29699 8.87815 5.24824 8.76047C5.1995 8.64279 5.18674 8.5133 5.2116 8.38837C5.23645 8.26344 5.29779 8.14868 5.38787 8.05862L8.05587 5.39062C8.11567 5.33066 8.1867 5.28307 8.26489 5.25057C8.34309 5.21806 8.42692 5.20128 8.5116 5.20117C8.59629 5.20107 8.68016 5.21764 8.75844 5.24995C8.83671 5.28225 8.90786 5.32966 8.96782 5.38947C9.02777 5.44927 9.07536 5.5203 9.10786 5.5985C9.14037 5.67669 9.15716 5.76052 9.15726 5.84521C9.15737 5.92989 9.14079 6.01376 9.10849 6.09204C9.07618 6.17032 9.02877 6.24146 8.96897 6.30142L6.30097 8.96942C6.24098 9.02962 6.16962 9.07729 6.09105 9.10967C6.01247 9.14204 5.92825 9.15848 5.84327 9.15802Z" fill="#E07E27"/>
<path id="Vector_5" d="M7.70264 11.0189C7.57526 11.0189 7.45074 10.9811 7.34483 10.9104C7.23891 10.8396 7.15636 10.739 7.10762 10.6213C7.05887 10.5037 7.04612 10.3742 7.07097 10.2492C7.09582 10.1243 7.15717 10.0095 7.24724 9.91948L9.91754 7.24918C9.97734 7.18938 10.0483 7.14194 10.1265 7.10957C10.2046 7.07721 10.2884 7.06055 10.3729 7.06055C10.4575 7.06055 10.5413 7.07721 10.6194 7.10957C10.6975 7.14194 10.7685 7.18938 10.8283 7.24918C10.8881 7.30898 10.9356 7.37998 10.9679 7.45812C11.0003 7.53626 11.017 7.62 11.017 7.70458C11.017 7.78916 11.0003 7.8729 10.9679 7.95104C10.9356 8.02918 10.8881 8.10018 10.8283 8.15998L8.16034 10.828C8.10045 10.8885 8.02917 10.9365 7.9506 10.9693C7.87204 11.002 7.78776 11.0189 7.70264 11.0189Z" fill="#E07E27"/>
<path id="Vector_6" d="M9.5634 12.8778C9.43569 12.8781 9.31077 12.8404 9.20453 12.7695C9.09829 12.6986 9.01553 12.5977 8.96676 12.4797C8.91799 12.3616 8.90543 12.2318 8.93066 12.1066C8.95589 11.9814 9.01778 11.8665 9.10846 11.7766L11.7765 9.10855C11.8363 9.04875 11.9073 9.00131 11.9854 8.96895C12.0635 8.93658 12.1473 8.91992 12.2319 8.91992C12.3164 8.91992 12.4002 8.93658 12.4783 8.96895C12.5565 9.00131 12.6275 9.04875 12.6873 9.10855C12.7471 9.16836 12.7945 9.23936 12.8269 9.31749C12.8592 9.39563 12.8759 9.47938 12.8759 9.56395C12.8759 9.64853 12.8592 9.73228 12.8269 9.81042C12.7945 9.88855 12.7471 9.95955 12.6873 10.0194L10.0193 12.6874C9.95956 12.7475 9.88855 12.7953 9.81032 12.828C9.73209 12.8607 9.64818 12.8776 9.5634 12.8778Z" fill="#E07E27"/>
<path id="Vector_7" d="M11.4214 14.7373C11.294 14.7373 11.1695 14.6995 11.0636 14.6288C10.9577 14.558 10.8751 14.4574 10.8264 14.3397C10.7776 14.2221 10.7649 14.0926 10.7897 13.9676C10.8146 13.8427 10.8759 13.7279 10.966 13.6379L13.634 10.9699C13.6938 10.9101 13.7648 10.8626 13.8429 10.8303C13.9211 10.7979 14.0048 10.7813 14.0894 10.7812C14.174 10.7812 14.2577 10.7979 14.3359 10.8303C14.414 10.8626 14.485 10.9101 14.5448 10.9699C14.6046 11.0297 14.652 11.1007 14.6844 11.1788C14.7168 11.257 14.7334 11.3407 14.7334 11.4253C14.7334 11.5099 14.7168 11.5936 14.6844 11.6717C14.652 11.7499 14.6046 11.8209 14.5448 11.8807L11.8745 14.551C11.7539 14.6703 11.5911 14.7373 11.4214 14.7373Z" fill="#E07E27"/>
<path id="Vector_8" d="M35.0503 42.7587C34.9229 42.7587 34.7984 42.721 34.6925 42.6502C34.5866 42.5794 34.504 42.4789 34.4553 42.3612C34.4065 42.2435 34.3938 42.114 34.4186 41.9891C34.4435 41.8641 34.5048 41.7494 34.5949 41.6593L41.6568 34.5988C41.7776 34.478 41.9414 34.4102 42.1122 34.4102C42.283 34.4102 42.4468 34.478 42.5676 34.5988C42.6884 34.7196 42.7562 34.8834 42.7562 35.0542C42.7562 35.225 42.6884 35.3888 42.5676 35.5096L35.5071 42.5701C35.4471 42.6301 35.3759 42.6776 35.2975 42.71C35.2191 42.7424 35.1351 42.7589 35.0503 42.7587Z" fill="#E07E27"/>
</g>
</svg>
