<svg width="44" height="44" viewBox="0 0 44 44" fill="none" xmlns="http://www.w3.org/2000/svg">
<g id="Layer_1">
<path id="Vector" d="M12.7573 16.021C12.6771 16.0211 12.5977 16.0053 12.5236 15.9746C12.4495 15.9439 12.3821 15.8989 12.3254 15.8422L5.45008 8.96684H4.95225C4.87201 8.96679 4.79256 8.95093 4.71844 8.92016C4.64433 8.88939 4.577 8.84432 4.52031 8.78752L3.00022 7.26743C2.94349 7.21071 2.89849 7.14337 2.86779 7.06925C2.83709 6.99514 2.82129 6.91571 2.82129 6.83549C2.82129 6.75527 2.83709 6.67583 2.86779 6.60172C2.89849 6.5276 2.94349 6.46026 3.00022 6.40354L6.28343 3.12034C6.34015 3.06361 6.40749 3.01861 6.4816 2.98791C6.55571 2.95721 6.63515 2.94141 6.71537 2.94141C6.79559 2.94141 6.87502 2.95721 6.94914 2.98791C7.02325 3.01861 7.09059 3.06361 7.14731 3.12034L8.66784 4.64043C8.72456 4.69715 8.76955 4.76449 8.80024 4.83861C8.83094 4.91272 8.84673 4.99215 8.84673 5.07237V5.5702L15.722 12.4455C15.7788 12.5022 15.8238 12.5696 15.8545 12.6437C15.8852 12.7178 15.901 12.7972 15.901 12.8775C15.901 12.9577 15.8852 13.0371 15.8545 13.1112C15.8238 13.1853 15.7788 13.2527 15.722 13.3094L13.1893 15.8422C13.1326 15.8989 13.0652 15.9439 12.9911 15.9746C12.917 16.0053 12.8376 16.0211 12.7573 16.021ZM5.20531 7.74519H5.70314C5.78336 7.74518 5.86279 7.76097 5.9369 7.79167C6.01101 7.82236 6.07836 7.86735 6.13508 7.92407L12.7573 14.5472L14.4271 12.8775L7.80395 6.25738C7.74723 6.20065 7.70224 6.13331 7.67155 6.0592C7.64086 5.98509 7.62506 5.90565 7.62507 5.82544V5.32543L6.71537 4.41617L4.29605 6.83549L5.20531 7.74519Z" fill="#E07E27"/>
<path id="Vector_2" d="M20.6577 21.3853C20.5352 21.3853 20.4156 21.3485 20.3143 21.2797L12.4171 15.9131C12.3428 15.8625 12.2807 15.796 12.235 15.7186C12.1893 15.6411 12.1614 15.5546 12.153 15.465C12.1447 15.3755 12.1562 15.2853 12.1868 15.2007C12.2174 15.1162 12.2662 15.0394 12.3299 14.9759L14.8626 12.4432C14.9261 12.3795 15.0029 12.3306 15.0874 12.3001C15.172 12.2695 15.2622 12.258 15.3518 12.2663C15.4413 12.2746 15.5278 12.3026 15.6053 12.3483C15.6828 12.3939 15.7492 12.4561 15.7998 12.5304L21.1664 20.4276C21.2288 20.5194 21.265 20.6265 21.2711 20.7374C21.2772 20.8482 21.253 20.9586 21.201 21.0568C21.1491 21.1549 21.0714 21.237 20.9762 21.2943C20.8811 21.3515 20.7722 21.3818 20.6611 21.3818L20.6577 21.3853ZM13.7138 15.3206L18.3561 18.4729L15.2021 13.8306L13.7138 15.3206Z" fill="#E07E27"/>
<path id="Vector_3" d="M34.4039 41.2487C33.868 41.2486 33.3542 41.0356 32.9754 40.6567L11.2735 18.9535C11.193 18.8729 11.1367 18.7715 11.1107 18.6607C11.0848 18.5498 11.0904 18.4339 11.1269 18.3261L12.1784 15.213C12.2084 15.124 12.2586 15.043 12.325 14.9765L14.8578 12.4438C14.9243 12.3774 15.0052 12.3272 15.0942 12.2972L18.2073 11.2461C18.3151 11.2101 18.4308 11.2048 18.5414 11.231C18.652 11.2571 18.7531 11.3136 18.8334 11.394L40.5353 33.0955C40.8094 33.3692 40.9989 33.7161 41.0809 34.0948C41.1629 34.4734 41.1341 34.8677 40.9978 35.2303C39.9244 38.0637 37.9436 40.0445 35.1102 41.1178C34.8846 41.2039 34.6453 41.2482 34.4039 41.2487ZM12.4057 18.3592L33.8393 39.7923C33.9464 39.9004 34.0824 39.9752 34.231 40.0079C34.3795 40.0407 34.5344 40.0299 34.677 39.9769C37.2036 39.017 38.8982 37.3242 39.8568 34.7971C39.9098 34.6545 39.9206 34.4996 39.8879 34.351C39.8551 34.2025 39.7803 34.0665 39.6723 33.9594L18.2387 12.5258L15.6209 13.4102L13.2923 15.7405L12.4057 18.3592Z" fill="#E07E27"/>
<path id="Vector_4" d="M5.70365 8.96593C5.58283 8.96594 5.46472 8.93012 5.36427 8.863C5.26381 8.79588 5.18551 8.70048 5.13927 8.58886C5.09304 8.47724 5.08094 8.35442 5.10451 8.23592C5.12809 8.11743 5.18627 8.00858 5.2717 7.92316L7.80228 5.39258C7.859 5.33571 7.92637 5.29057 8.00054 5.25974C8.07471 5.22891 8.15422 5.21299 8.23454 5.21289C8.31487 5.21279 8.39442 5.22851 8.46866 5.25915C8.54291 5.2898 8.61039 5.33476 8.66726 5.39149C8.72413 5.44821 8.76926 5.51558 8.80009 5.58975C8.83093 5.66392 8.84685 5.74343 8.84695 5.82375C8.84705 5.90407 8.83133 5.98363 8.80068 6.05787C8.77004 6.13212 8.72507 6.1996 8.66835 6.25647L6.13777 8.78704C6.08087 8.84414 6.0132 8.88936 5.93867 8.92007C5.86414 8.95078 5.78425 8.96637 5.70365 8.96593Z" fill="#E07E27"/>
<path id="Vector_5" d="M7.46732 10.731C7.3465 10.731 7.2284 10.6952 7.12794 10.6281C7.02748 10.561 6.94918 10.4656 6.90294 10.3539C6.85671 10.2423 6.84461 10.1195 6.86818 10.001C6.89176 9.88251 6.94994 9.77366 7.03538 9.68824L9.56813 7.15548C9.62486 7.09876 9.6922 7.05376 9.76631 7.02306C9.84042 6.99236 9.91986 6.97656 10.0001 6.97656C10.0803 6.97656 10.1597 6.99236 10.2338 7.02306C10.308 7.05376 10.3753 7.09876 10.432 7.15548C10.4887 7.2122 10.5337 7.27954 10.5644 7.35366C10.5951 7.42777 10.6109 7.5072 10.6109 7.58742C10.6109 7.66764 10.5951 7.74708 10.5644 7.82119C10.5337 7.8953 10.4887 7.96264 10.432 8.01937L7.90144 10.5499C7.84464 10.6073 7.77702 10.6529 7.70251 10.6839C7.62799 10.715 7.54806 10.731 7.46732 10.731Z" fill="#E07E27"/>
<path id="Vector_6" d="M9.23231 12.4942C9.11117 12.4945 8.99268 12.4588 8.89192 12.3915C8.79115 12.3243 8.71265 12.2286 8.6664 12.1166C8.62014 12.0047 8.60822 11.8815 8.63216 11.7627C8.65609 11.644 8.71479 11.535 8.8008 11.4497L11.3314 8.91915C11.3881 8.86243 11.4554 8.81743 11.5296 8.78673C11.6037 8.75603 11.6831 8.74023 11.7633 8.74023C11.8435 8.74023 11.923 8.75603 11.9971 8.78673C12.0712 8.81743 12.1385 8.86243 12.1953 8.91915C12.252 8.97587 12.297 9.04322 12.3277 9.11733C12.3584 9.19144 12.3742 9.27087 12.3742 9.35109C12.3742 9.43131 12.3584 9.51075 12.3277 9.58486C12.297 9.65897 12.252 9.72631 12.1953 9.78304L9.66469 12.3136C9.60805 12.3707 9.54071 12.416 9.46651 12.447C9.39231 12.478 9.31272 12.4941 9.23231 12.4942Z" fill="#E07E27"/>
<path id="Vector_7" d="M10.9947 14.2581C10.8738 14.2581 10.7557 14.2223 10.6553 14.1552C10.5548 14.0881 10.4765 13.9927 10.4303 13.8811C10.3841 13.7694 10.372 13.6466 10.3955 13.5281C10.4191 13.4096 10.4773 13.3008 10.5627 13.2154L13.0933 10.6848C13.15 10.6281 13.2174 10.5831 13.2915 10.5524C13.3656 10.5217 13.445 10.5059 13.5252 10.5059C13.6055 10.5059 13.6849 10.5217 13.759 10.5524C13.8331 10.5831 13.9005 10.6281 13.9572 10.6848C14.0139 10.7415 14.0589 10.8088 14.0896 10.883C14.1203 10.9571 14.1361 11.0365 14.1361 11.1167C14.1361 11.1969 14.1203 11.2764 14.0896 11.3505C14.0589 11.4246 14.0139 11.4919 13.9572 11.5487L11.4244 14.0814C11.31 14.1946 11.1556 14.2581 10.9947 14.2581Z" fill="#E07E27"/>
<path id="Vector_8" d="M33.4058 40.8365C33.285 40.8365 33.1669 40.8007 33.0664 40.7336C32.966 40.6665 32.8877 40.5711 32.8414 40.4595C32.7952 40.3478 32.7831 40.225 32.8067 40.1065C32.8302 39.988 32.8884 39.8792 32.9739 39.7938L39.672 33.0969C39.7866 32.9823 39.942 32.918 40.104 32.918C40.266 32.918 40.4214 32.9823 40.5359 33.0969C40.6505 33.2114 40.7148 33.3668 40.7148 33.5288C40.7148 33.6908 40.6505 33.8462 40.5359 33.9608L33.839 40.6576C33.7822 40.7145 33.7146 40.7596 33.6403 40.7903C33.5659 40.821 33.4862 40.8367 33.4058 40.8365Z" fill="#E07E27"/>
<path id="Vector_9" fill-rule="evenodd" clip-rule="evenodd" d="M5.20554 31.8798C3.79068 33.2946 3.55151 35.5058 4.61579 37.1838L10.5095 31.29C8.83149 30.2256 6.61435 30.4711 5.20554 31.8798ZM5.20554 36.0047L4.91092 36.2994C4.87039 36.3397 4.80407 36.3397 4.76354 36.2994C4.72287 36.2587 4.72287 36.1928 4.76354 36.152L5.05824 35.8574C5.099 35.8167 5.16487 35.8167 5.20556 35.8574C5.24621 35.8981 5.24621 35.964 5.20554 36.0047ZM5.94208 35.2681L5.64748 35.5628C5.60707 35.6032 5.54057 35.6031 5.5001 35.5628C5.45943 35.5221 5.45943 35.4562 5.5001 35.4154L5.7948 35.1208C5.83554 35.0801 5.90143 35.0801 5.94212 35.1208C5.9828 35.1614 5.9828 35.2274 5.94208 35.2681ZM6.67869 34.5315L6.38407 34.8262C6.3436 34.8666 6.27728 34.8666 6.23677 34.8262C6.19603 34.7855 6.19603 34.7195 6.23677 34.6789L6.53147 34.3843C6.57214 34.3436 6.63805 34.3436 6.67871 34.3843C6.71944 34.4248 6.71944 34.4908 6.67869 34.5315ZM7.41523 33.7949L7.12061 34.0896C7.0802 34.13 7.01376 34.1299 6.97333 34.0896C6.93259 34.0489 6.93259 33.9829 6.97333 33.9422L7.26803 33.6476C7.3087 33.6069 7.3746 33.6069 7.41527 33.6476C7.45607 33.6883 7.45607 33.7542 7.41523 33.7949ZM8.15195 33.0583L7.85725 33.353C7.8167 33.3934 7.75046 33.3932 7.70987 33.353C7.6692 33.3122 7.6692 33.2463 7.70987 33.2056L8.00465 32.911C8.04531 32.8703 8.11122 32.8703 8.15199 32.911C8.19261 32.9517 8.19261 33.0176 8.15195 33.0583ZM8.88854 32.3217L8.59385 32.6164C8.55342 32.6568 8.48704 32.6569 8.44657 32.6164C8.4059 32.5757 8.4059 32.5098 8.44657 32.4691L8.74126 32.1745C8.78193 32.1337 8.84784 32.1337 8.88858 32.1745C8.92921 32.2151 8.92921 32.281 8.88854 32.3217ZM9.3304 31.8798C9.28995 31.9202 9.22355 31.9202 9.18308 31.8798C9.14234 31.8391 9.14234 31.7731 9.18308 31.7324L9.47778 31.4378C9.51845 31.3971 9.58436 31.3971 9.6251 31.4378C9.66585 31.4785 9.66585 31.5444 9.6251 31.5851L9.3304 31.8798Z" fill="#E07E27"/>
<path id="Vector_10" fill-rule="evenodd" clip-rule="evenodd" d="M11.2373 31.8798C11.0649 31.7073 10.8769 31.549 10.6777 31.4082L4.72559 37.3601C4.86642 37.5595 5.02476 37.7474 5.19716 37.9198C5.3696 38.0923 5.55753 38.2506 5.75682 38.3913L11.7089 32.4394C11.5681 32.2401 11.4096 32.0522 11.2373 31.8798Z" fill="#E07E27"/>
<path id="Vector_11" fill-rule="evenodd" clip-rule="evenodd" d="M11.8274 32.615L5.93359 38.5087C7.6116 39.5731 9.82882 39.3278 11.2375 37.919C12.6524 36.5041 12.8916 34.2929 11.8274 32.615ZM7.26005 38.0663L6.96536 38.361C6.92489 38.4014 6.85853 38.4014 6.81806 38.361C6.77739 38.3202 6.77739 38.2543 6.81806 38.2136L7.11268 37.9189C7.15334 37.8782 7.21929 37.8782 7.26005 37.9189C7.30066 37.9596 7.30066 38.0256 7.26005 38.0663ZM7.99659 37.3296L7.70197 37.6242C7.66148 37.6647 7.59508 37.6649 7.55459 37.6242C7.51395 37.5836 7.51395 37.5177 7.55459 37.477L7.84921 37.1823C7.88996 37.1416 7.95585 37.1416 7.99659 37.1823C8.03726 37.223 8.03726 37.289 7.99659 37.3296ZM8.73323 36.5931L8.43853 36.8877C8.39806 36.9283 8.33174 36.9282 8.29123 36.8877C8.25056 36.847 8.25056 36.7811 8.29123 36.7405L8.58585 36.4458C8.62665 36.405 8.69256 36.405 8.73323 36.4458C8.7739 36.4865 8.7739 36.5524 8.73323 36.5931ZM9.46977 35.8565L9.17507 36.1511C9.13468 36.1916 9.0682 36.1915 9.02779 36.1511C8.98712 36.1104 8.98712 36.0445 9.02779 36.0038L9.32239 35.7092C9.36319 35.6684 9.4291 35.6685 9.46977 35.7092C9.51043 35.7499 9.51043 35.8158 9.46977 35.8565ZM10.2064 35.1199L9.91176 35.4145C9.87139 35.4548 9.80466 35.4551 9.76438 35.4145C9.72372 35.3738 9.72372 35.3079 9.76438 35.2671L10.059 34.9725C10.0997 34.9318 10.1657 34.9318 10.2064 34.9725C10.2471 35.0132 10.2471 35.0793 10.2064 35.1199ZM10.943 34.3833L10.6484 34.6779C10.6079 34.7184 10.5415 34.7184 10.501 34.6779C10.4604 34.6373 10.4604 34.5713 10.501 34.5306L10.7956 34.2359C10.8363 34.1952 10.9023 34.1952 10.943 34.2359C10.9836 34.2766 10.9836 34.3426 10.943 34.3833ZM11.6796 33.6467L11.3849 33.9413C11.3443 33.9817 11.2782 33.9817 11.2376 33.9413C11.1969 33.9006 11.1969 33.8347 11.2376 33.794L11.5322 33.4993C11.573 33.4586 11.6389 33.4586 11.6796 33.4993C11.7202 33.54 11.7202 33.606 11.6796 33.6467Z" fill="#E07E27"/>
</g>
</svg>
