<svg width="44" height="45" viewBox="0 0 44 45" fill="none" xmlns="http://www.w3.org/2000/svg">
<g id="svg8">
<g id="layer1">
<path id="path2442" d="M22.0952 3.70703C11.5618 3.70703 3.00684 12.262 3.00684 22.7955C3.00684 33.3289 11.5618 41.8838 22.0952 41.8838C32.6287 41.8838 41.1837 33.3289 41.1837 22.7955C41.1837 12.262 32.6287 3.70703 22.0952 3.70703ZM22.0952 5.29766C24.8975 5.29766 27.5431 5.95832 29.8903 7.12608C30.1114 6.90484 30.378 6.6384 29.4072 7.60917C28.6572 8.35921 29.7818 9.48547 30.5319 8.73543L31.335 7.9308C31.794 8.21638 32.2385 8.52323 32.6678 8.84882L8.15021 33.368C7.82458 32.9389 7.51775 32.494 7.23214 32.0352L8.02749 31.2382C8.34898 30.9252 8.34673 30.4072 8.02749 30.0996C7.70768 29.7925 7.20991 29.7996 6.90436 30.1116C5.94358 31.0733 6.20969 30.8065 6.42591 30.5901C5.25773 28.2433 4.59754 25.5978 4.59754 22.795C4.59754 13.1213 12.4215 5.29769 22.0952 5.29766ZM33.8966 9.86939C34.2892 10.2277 34.6658 10.6032 35.0244 10.9957L10.2955 35.7199C9.90416 35.3625 9.52823 34.988 9.1708 34.5967L33.8966 9.86939ZM36.0434 12.2197C36.3693 12.6488 36.6741 13.0937 36.9599 13.5526C36.9758 13.5375 37.7726 12.7414 36.1552 14.3587C35.4052 15.1088 36.5299 16.2335 37.2799 15.4834L37.7661 14.9972C38.9361 17.345 39.5976 19.9913 39.5976 22.7955C39.5976 32.4692 31.769 40.2915 22.0952 40.2915C19.2923 40.2915 16.6472 39.6315 14.3002 38.4632L14.7771 37.9862C15.0986 37.6733 15.0963 37.1568 14.7771 36.8492C14.4573 36.5421 13.958 36.5477 13.6524 36.8612C12.0517 38.4634 12.8163 37.6994 12.8555 37.6597C12.3962 37.3738 11.9522 37.0675 11.5227 36.7416L36.0434 12.2197Z" fill="#E07E27"/>
<path id="path2446" d="M22.6537 27.8577C21.9036 28.6078 23.0283 29.7324 23.7783 28.9824L24.8965 27.8642C25.218 27.5512 25.2156 27.0339 24.8964 26.7263C24.5766 26.4193 24.0779 26.426 23.7724 26.7383C21.5264 28.9864 24.9011 25.6103 22.6537 27.8577Z" fill="#E07E27"/>
<path id="path2448" d="M26.0326 24.4808C25.2825 25.2308 26.4072 26.3555 27.1572 25.6055L28.2754 24.4873C28.5969 24.1743 28.5945 23.657 28.2753 23.3494C27.9555 23.0423 27.4568 23.0491 27.1513 23.3614C24.9053 25.6095 28.28 22.2333 26.0326 24.4808Z" fill="#E07E27"/>
<path id="path2450" d="M15.9105 34.6058C15.1604 35.3558 16.2851 36.4805 17.0352 35.7305L18.1534 34.6123C18.4749 34.2993 18.4725 33.782 18.1532 33.4744C17.8334 33.1673 17.3347 33.1741 17.0292 33.4864C14.7832 35.7345 18.1579 32.3583 15.9105 34.6058Z" fill="#E07E27"/>
<path id="path2452" d="M19.2826 31.2308C18.5325 31.9808 19.6572 33.1055 20.4072 32.3555L21.5254 31.2373C21.8469 30.9243 21.8445 30.407 21.5253 30.0994C21.2055 29.7923 20.7068 29.7991 20.4013 30.1114C18.1553 32.3595 21.53 28.9833 19.2826 31.2308Z" fill="#E07E27"/>
<path id="path2458" d="M29.4046 21.1077C28.6546 21.8578 29.7793 22.9825 30.5293 22.2324L31.6475 21.1142C31.969 20.8012 31.9666 20.2839 31.6474 19.9763C31.3275 19.6693 30.8289 19.676 30.5233 19.9883C28.2773 22.2364 31.6521 18.8603 29.4046 21.1077Z" fill="#E07E27"/>
<path id="path2460" d="M32.7757 17.7347C32.0257 18.4847 33.1504 19.6094 33.9004 18.8594L35.0186 17.7412C35.3401 17.4282 35.3377 16.9109 35.0184 16.6033C34.6986 16.2962 34.2 16.303 33.8944 16.6153C31.6484 18.8634 35.0232 15.4872 32.7757 17.7347Z" fill="#E07E27"/>
<path id="path2469" d="M15.9105 21.1077C15.1604 21.8578 16.2851 22.9825 17.0352 22.2324L18.1534 21.1142C18.4749 20.8012 18.4725 20.2839 18.1532 19.9763C17.8334 19.6693 17.3347 19.676 17.0292 19.9883C14.7832 22.2364 18.1579 18.8602 15.9105 21.1077Z" fill="#E07E27"/>
<path id="path2471" d="M19.2826 17.7347C18.5325 18.4847 19.6572 19.6094 20.4072 18.8594L21.5254 17.7412C21.8469 17.4282 21.8445 16.9109 21.5253 16.6033C21.2055 16.2962 20.7068 16.303 20.4013 16.6153C18.1553 18.8634 21.53 15.4872 19.2826 17.7347Z" fill="#E07E27"/>
<path id="path2473" d="M9.15951 27.8577C8.40947 28.6078 9.53416 29.7325 10.2842 28.9824L11.4024 27.8642C11.7239 27.5512 11.7215 27.0339 11.4022 26.7263C11.0824 26.4193 10.5837 26.426 10.2782 26.7383C8.03221 28.9864 11.407 25.6102 9.15951 27.8577Z" fill="#E07E27"/>
<path id="path2475" d="M12.5316 24.4808C11.7815 25.2308 12.9062 26.3555 13.6563 25.6055L14.7744 24.4873C15.096 24.1743 15.0935 23.657 14.7743 23.3494C14.4545 23.0423 13.9558 23.0491 13.6503 23.3614C11.4043 25.6095 14.779 22.2333 12.5316 24.4808Z" fill="#E07E27"/>
<path id="path2481" d="M22.6537 14.3597C21.9036 15.1097 23.0283 16.2344 23.7783 15.4844L24.8965 14.3662C25.218 14.0532 25.2156 13.5359 24.8964 13.2283C24.5766 12.9212 24.0779 12.928 23.7724 13.2403C21.5264 15.4884 24.9011 12.1122 22.6537 14.3597Z" fill="#E07E27"/>
<path id="path2483" d="M26.0326 10.9847C25.2825 11.7347 26.4072 12.8594 27.1572 12.1094L28.2754 10.9912C28.5969 10.6782 28.5945 10.1609 28.2753 9.85327C27.9555 9.5462 27.4568 9.55296 27.1513 9.86529C24.9053 12.1134 28.28 8.7372 26.0326 10.9847Z" fill="#E07E27"/>
</g>
</g>
</svg>
