<svg width="33" height="33" viewBox="0 0 33 33" fill="none" xmlns="http://www.w3.org/2000/svg">
<g id="uil:arrow">
<path id="Vector" d="M20.2342 15.5294L13.3592 8.65438C13.231 8.52617 13.0788 8.42448 12.9113 8.35509C12.7438 8.28571 12.5643 8.25 12.383 8.25C12.0168 8.25 11.6656 8.39546 11.4067 8.65438C11.2785 8.78258 11.1768 8.93478 11.1074 9.10228C11.0381 9.26979 11.0023 9.44932 11.0023 9.63063C11.0023 9.99679 11.1478 10.348 11.4067 10.6069L17.3192 16.5056L11.4067 22.4044C11.2778 22.5322 11.1756 22.6843 11.1057 22.8518C11.0359 23.0194 11 23.1991 11 23.3806C11 23.5621 11.0359 23.7419 11.1057 23.9094C11.1756 24.077 11.2778 24.2291 11.4067 24.3569C11.5345 24.4858 11.6866 24.588 11.8542 24.6579C12.0217 24.7277 12.2015 24.7636 12.383 24.7636C12.5645 24.7636 12.7442 24.7277 12.9118 24.6579C13.0793 24.588 13.2314 24.4858 13.3592 24.3569L20.2342 17.4819C20.3631 17.3541 20.4654 17.202 20.5352 17.0344C20.605 16.8669 20.6409 16.6871 20.6409 16.5056C20.6409 16.3241 20.605 16.1444 20.5352 15.9768C20.4654 15.8093 20.3631 15.6572 20.2342 15.5294Z" fill="#E07E27"/>
</g>
</svg>
