<svg width="175" height="106" viewBox="0 0 175 106" fill="none" xmlns="http://www.w3.org/2000/svg">
<g filter="url(#filter0_d_458_13761)">
<rect x="18" y="14" width="139" height="70" rx="6" fill="#010C1D"/>
<rect x="18.5" y="14.5" width="138" height="69" rx="5.5" stroke="#102246"/>
<g clip-path="url(#clip0_458_13761)">
<path d="M100.101 50.5687C100.885 50.7621 101.736 50.8595 102.656 50.8595C103.576 50.8595 104.438 50.7621 105.188 50.5687C105.94 50.3753 106.578 50.0965 107.103 49.7323C107.628 49.3681 108.027 48.9159 108.303 48.3742C108.577 47.8326 108.715 47.215 108.715 46.5199C108.715 45.5021 108.46 44.7057 107.951 44.132C107.442 43.5584 106.719 43.1062 105.782 42.774C104.844 42.4432 103.738 42.1483 102.462 41.8895C101.186 41.6307 100.147 41.3599 99.3473 41.0771C98.5473 40.7943 97.962 40.4141 97.59 39.9379C97.218 39.4616 97.0327 38.8106 97.0327 37.9862C97.0327 36.7415 97.4727 35.7437 98.354 34.9913C99.2339 34.2402 100.653 33.864 102.607 33.864C103.124 33.864 103.596 33.8961 104.024 33.9614C104.452 34.0268 104.856 34.1309 105.236 34.2763C105.615 34.4217 105.979 34.6204 106.327 34.8699C106.674 35.1207 107.018 35.4315 107.358 35.8037L107.672 35.4649C107.22 34.9633 106.739 34.5644 106.231 34.2643C105.722 33.9654 105.164 33.7467 104.559 33.6092C103.954 33.4718 103.287 33.4038 102.56 33.4038C101.348 33.4038 100.29 33.5826 99.3859 33.9374C98.4806 34.2936 97.782 34.8139 97.29 35.5009C96.7967 36.1879 96.5514 37.0324 96.5514 38.0342C96.5514 39.0361 96.782 39.7351 97.242 40.2767C97.702 40.8183 98.3766 41.2385 99.2659 41.5374C100.154 41.8362 101.229 42.107 102.488 42.3498C103.812 42.6086 104.899 42.9034 105.748 43.2342C106.596 43.5664 107.223 43.9946 107.627 44.5189C108.031 45.0445 108.232 45.7355 108.232 46.592C108.232 47.8686 107.735 48.8305 106.742 49.4775C105.748 50.1245 104.395 50.4473 102.682 50.4473C102.035 50.4473 101.422 50.3993 100.841 50.3019C100.259 50.2045 99.7059 50.0511 99.1806 49.8417C98.6553 49.6322 98.158 49.3654 97.69 49.0413C97.2207 48.7184 96.7687 48.3302 96.3327 47.878L95.9688 48.1928C96.5821 48.7905 97.2287 49.2881 97.9073 49.6843C98.586 50.0805 99.3166 50.3753 100.101 50.5687Z" fill="#F2F2F3"/>
<path d="M102.658 50.9663C101.733 50.9663 100.863 50.8676 100.075 50.6715C99.286 50.4767 98.5381 50.1752 97.8541 49.775C97.1715 49.3775 96.5128 48.8692 95.8942 48.2676L95.8115 48.1862L96.3395 47.7286L96.4102 47.802C96.8408 48.2489 97.2915 48.6357 97.7501 48.9519C98.2101 49.2694 98.7047 49.5349 99.2194 49.7403C99.734 49.9471 100.286 50.0992 100.857 50.1952C101.43 50.2913 102.043 50.3393 102.681 50.3393C104.363 50.3393 105.71 50.0191 106.682 49.3868C107.639 48.7638 108.124 47.8233 108.124 46.592C108.124 45.7636 107.928 45.0886 107.54 44.5843C107.15 44.0774 106.534 43.6558 105.708 43.333C104.868 43.0048 103.778 42.71 102.467 42.4539C101.205 42.2111 100.115 41.9363 99.23 41.6388C98.3274 41.3346 97.6301 40.8997 97.1595 40.3461C96.6835 39.7872 96.4435 39.0094 96.4435 38.0342C96.4435 37.0591 96.6995 36.1399 97.2021 35.4382C97.7048 34.7379 98.4261 34.1989 99.346 33.8374C100.261 33.4785 101.342 33.2971 102.561 33.2971C103.291 33.2971 103.971 33.3678 104.583 33.5052C105.198 33.6453 105.771 33.8694 106.286 34.1722C106.8 34.4751 107.294 34.8859 107.752 35.3929L107.818 35.4662L107.358 35.9625L107.279 35.8771C106.946 35.5116 106.604 35.2034 106.266 34.958C105.927 34.7139 105.568 34.5178 105.2 34.3763C104.83 34.2349 104.43 34.1309 104.011 34.0669C103.59 34.0042 103.118 33.9721 102.61 33.9721C100.69 33.9721 99.282 34.343 98.4261 35.074C97.5754 35.7998 97.1435 36.7803 97.1435 37.9862C97.1435 38.7826 97.3235 39.4176 97.6781 39.8725C98.0354 40.3301 98.6101 40.7023 99.386 40.9771C100.181 41.2572 101.225 41.5294 102.486 41.7855C103.759 42.0443 104.882 42.3431 105.82 42.6753C106.77 43.0102 107.515 43.4784 108.034 44.0627C108.559 44.6537 108.824 45.4821 108.824 46.5226C108.824 47.231 108.682 47.8713 108.4 48.4263C108.119 48.9813 107.704 49.4508 107.167 49.823C106.634 50.1926 105.978 50.4794 105.218 50.6755C104.46 50.8702 103.6 50.9703 102.659 50.9703L102.658 50.9663ZM96.1275 48.1955C96.7088 48.7505 97.3248 49.2187 97.9621 49.5896C98.6287 49.9791 99.3567 50.2726 100.127 50.462C100.898 50.6528 101.75 50.7502 102.658 50.7502C103.566 50.7502 104.424 50.6541 105.163 50.462C105.898 50.2726 106.53 49.9965 107.043 49.6416C107.551 49.2894 107.943 48.8465 108.208 48.3236C108.474 47.7993 108.608 47.1923 108.608 46.5173C108.608 45.5315 108.36 44.7511 107.871 44.2001C107.376 43.6425 106.662 43.1956 105.747 42.8714C104.818 42.5433 103.704 42.2471 102.441 41.991C101.169 41.7335 100.117 41.4587 99.3127 41.1745C98.4967 40.8864 97.8901 40.4915 97.5074 39.9993C97.1235 39.5057 96.9275 38.8267 96.9275 37.9822C96.9275 36.7096 97.3848 35.6757 98.2861 34.906C99.182 34.1402 100.637 33.7534 102.609 33.7534C103.129 33.7534 103.611 33.7867 104.042 33.8507C104.476 33.9161 104.892 34.0242 105.276 34.1722C105.662 34.3203 106.036 34.5244 106.391 34.7792C106.715 35.0127 107.04 35.3035 107.359 35.6423L107.528 35.4596C107.103 35.002 106.65 34.6298 106.178 34.3523C105.682 34.0602 105.13 33.8441 104.536 33.7093C103.94 33.5746 103.275 33.5052 102.562 33.5052C101.37 33.5052 100.315 33.6827 99.426 34.0308C98.5447 34.3777 97.8554 34.8913 97.3781 35.5583C96.9008 36.224 96.6595 37.0551 96.6595 38.0302C96.6595 38.9534 96.8835 39.6844 97.3248 40.2034C97.7701 40.7276 98.4354 41.1412 99.3007 41.432C100.175 41.7268 101.255 42.0003 102.51 42.2404C103.834 42.4979 104.936 42.798 105.788 43.1302C106.651 43.4677 107.298 43.912 107.712 44.4496C108.13 44.9925 108.34 45.7116 108.34 46.588C108.34 47.898 107.822 48.8985 106.802 49.5629C105.795 50.2179 104.41 50.5501 102.683 50.5501C102.034 50.5501 101.409 50.5007 100.823 50.4033C100.237 50.3046 99.67 50.1485 99.1407 49.9364C98.6101 49.7243 98.1021 49.4508 97.6288 49.1253C97.1835 48.8185 96.7448 48.4463 96.3262 48.0208L96.1275 48.1928V48.1955Z" fill="#F2F2F3"/>
<path d="M115.719 50.2047C115.331 50.3981 114.855 50.4955 114.289 50.4955C113.869 50.4955 113.489 50.3688 113.151 50.1153C112.812 49.8618 112.625 49.499 112.593 49.0254V38.6387H115.623V38.1531H112.593V33.7642H112.109V38.1531H110.292V38.6387H112.109V49.0214C112.109 49.4136 112.209 49.7565 112.412 50.0499C112.613 50.3434 112.88 50.5729 113.212 50.7356C113.543 50.8984 113.903 50.9798 114.291 50.9798C114.743 50.9798 115.139 50.9224 115.479 50.8103C115.819 50.6969 116.189 50.5195 116.593 50.2767L116.327 49.8885C116.311 49.9045 116.108 50.0099 115.721 50.2034L115.719 50.2047Z" fill="#F2F2F3"/>
<path d="M114.289 51.0877C113.888 51.0877 113.509 51.001 113.164 50.8316C112.817 50.6595 112.535 50.418 112.324 50.1099C112.111 49.7991 112.003 49.4335 112.003 49.02V38.744H110.186V38.045H112.003V33.656H112.701V38.045H115.731V38.744H112.701V49.024C112.732 49.4615 112.9 49.7924 113.216 50.0285C113.535 50.266 113.897 50.3874 114.291 50.3874C114.837 50.3874 115.303 50.2926 115.672 50.1072C116.156 49.8658 116.244 49.8151 116.26 49.8044L116.351 49.7137L116.415 49.8284L116.745 50.31L116.648 50.3687C116.239 50.6141 115.857 50.7969 115.512 50.9116C115.163 51.0277 114.752 51.0864 114.291 51.0864L114.289 51.0877ZM110.398 38.5319H112.215V49.0213C112.215 49.3895 112.311 49.715 112.499 49.9898C112.688 50.266 112.944 50.4847 113.257 50.6395C113.573 50.7942 113.92 50.8729 114.288 50.8729C114.727 50.8729 115.115 50.8182 115.441 50.7089C115.744 50.6075 116.079 50.4514 116.437 50.2433L116.292 50.0325C116.208 50.0779 116.055 50.1566 115.767 50.3006C115.365 50.5021 114.868 50.6035 114.288 50.6035C113.847 50.6035 113.443 50.4687 113.085 50.2019C112.721 49.9298 112.519 49.5376 112.485 49.0333V38.5319H115.515V38.2611H112.485V33.8721H112.215V38.2611H110.398V38.5319Z" fill="#F2F2F3"/>
<path d="M119.959 50.4715C120.572 50.8104 121.259 50.9811 122.019 50.9811C123.118 50.9811 124.135 50.7703 125.072 50.3501C126.01 49.9299 126.768 49.3483 127.351 48.6039V49.7672C127.351 49.9779 127.399 50.1674 127.496 50.3368C127.593 50.5062 127.721 50.6236 127.884 50.689C127.916 50.705 127.956 50.717 128.005 50.725C128.053 50.733 128.127 50.737 128.224 50.737V50.2514C128.111 50.2514 128.019 50.2114 127.945 50.13C127.872 50.0486 127.836 49.9286 127.836 49.7658V42.8075C127.836 41.3201 127.42 40.1408 126.588 39.267C125.756 38.3946 124.638 37.957 123.232 37.957C122.586 37.957 121.899 38.0944 121.172 38.3692C120.446 38.6441 119.678 39.0563 118.87 39.6059L119.161 39.9941C119.871 39.4938 120.578 39.1096 121.28 38.8428C121.983 38.576 122.634 38.4426 123.231 38.4426C124.475 38.4426 125.472 38.8428 126.224 39.6432C126.975 40.4437 127.351 41.4975 127.351 42.8075V44.2376C126.752 44.0122 126.079 43.8374 125.327 43.716C124.575 43.5946 123.844 43.5346 123.134 43.5346C122.115 43.5346 121.219 43.688 120.443 43.9948C119.667 44.3017 119.058 44.7219 118.614 45.2555C118.17 45.7891 117.947 46.4108 117.947 47.1231C117.947 47.8355 118.129 48.4852 118.493 49.0748C118.857 49.6658 119.345 50.13 119.959 50.4689V50.4715ZM119.729 44.87C120.592 44.3043 121.728 44.0215 123.134 44.0215C123.892 44.0215 124.624 44.0815 125.327 44.2029C126.03 44.3243 126.704 44.5138 127.351 44.7726V47.2699C127.351 47.4153 127.323 47.5727 127.266 47.7421C127.208 47.9115 127.116 48.0863 126.987 48.2637C126.551 48.9427 125.884 49.4843 124.988 49.8886C124.091 50.2928 123.102 50.4942 122.019 50.4942C121.356 50.4942 120.751 50.3448 120.202 50.046C119.653 49.7471 119.221 49.3429 118.906 48.8333C118.591 48.3237 118.434 47.7541 118.434 47.1245C118.434 46.1866 118.866 45.4356 119.73 44.87H119.729Z" fill="#F2F2F3"/>
<path d="M122.019 51.0878C121.246 51.0878 120.534 50.9117 119.907 50.5648C119.279 50.2167 118.773 49.7351 118.402 49.1334C118.03 48.5291 117.841 47.8541 117.841 47.1257C117.841 46.3973 118.073 45.7397 118.531 45.1901C118.985 44.6458 119.614 44.2109 120.403 43.8987C121.189 43.5879 122.107 43.4305 123.133 43.4305C123.846 43.4305 124.59 43.4918 125.343 43.6132C126.036 43.7253 126.674 43.884 127.242 44.0868V42.8102C127.242 41.5348 126.872 40.4956 126.144 39.7192C125.418 38.9455 124.438 38.5533 123.23 38.5533C122.649 38.5533 122.005 38.6853 121.317 38.9455C120.625 39.2083 119.919 39.5911 119.221 40.0847L119.135 40.1448L118.715 39.5831L118.809 39.5204C119.619 38.9695 120.401 38.5493 121.133 38.2731C121.87 37.9943 122.575 37.8542 123.231 37.8542C124.661 37.8542 125.816 38.3065 126.664 39.1963C127.512 40.0861 127.943 41.3014 127.943 42.8102V49.7684C127.943 49.9018 127.97 50.0006 128.024 50.0606C128.078 50.1193 128.14 50.146 128.224 50.146H128.331V50.845H128.224C128.118 50.845 128.042 50.841 127.988 50.8316C127.93 50.8223 127.879 50.8063 127.836 50.785C127.662 50.7156 127.512 50.5822 127.404 50.3914C127.298 50.206 127.244 49.9965 127.244 49.7684V48.9026C126.68 49.5483 125.967 50.0673 125.118 50.4488C124.171 50.873 123.129 51.0878 122.021 51.0878H122.019ZM120.011 50.3781C120.606 50.7063 121.282 50.8743 122.019 50.8743C123.097 50.8743 124.11 50.6662 125.028 50.2527C125.944 49.8418 126.698 49.2655 127.266 48.5385L127.458 48.2943V49.7684C127.458 49.9592 127.502 50.1326 127.588 50.2847C127.674 50.4341 127.783 50.5342 127.923 50.5902C127.954 50.6062 127.984 50.6142 128.022 50.6209C128.046 50.6249 128.076 50.6275 128.116 50.6302V50.3514C128.019 50.3314 127.934 50.282 127.864 50.2047C127.775 50.1046 127.728 49.9579 127.728 49.7698V42.8115C127.728 41.3601 127.318 40.1941 126.51 39.3457C125.703 38.4986 124.599 38.069 123.231 38.069C122.602 38.069 121.922 38.2051 121.209 38.4746C120.521 38.7347 119.786 39.1256 119.022 39.6365L119.183 39.8513C119.87 39.3764 120.562 39.0042 121.242 38.7467C121.954 38.4759 122.623 38.3398 123.231 38.3398C124.501 38.3398 125.534 38.7547 126.302 39.5738C127.068 40.3902 127.458 41.4801 127.458 42.8115V44.3976L127.312 44.3429C126.723 44.1202 126.048 43.9467 125.31 43.828C124.567 43.708 123.835 43.6479 123.134 43.6479C122.135 43.6479 121.243 43.8 120.483 44.1015C119.727 44.4016 119.127 44.8152 118.697 45.3315C118.27 45.8424 118.055 46.4467 118.055 47.1297C118.055 47.8127 118.234 48.4557 118.585 49.0254C118.935 49.5963 119.415 50.0526 120.011 50.3821V50.3781ZM122.019 50.6035C121.342 50.6035 120.713 50.4488 120.151 50.142C119.587 49.8351 119.138 49.4136 118.814 48.892C118.49 48.3677 118.326 47.7741 118.326 47.1257C118.326 46.1546 118.779 45.3648 119.671 44.7818C120.55 44.2069 121.714 43.9161 123.134 43.9161C123.895 43.9161 124.641 43.9774 125.346 44.1002C126.052 44.2216 126.739 44.415 127.39 44.6751L127.456 44.7018V47.2711C127.456 47.4259 127.426 47.5966 127.367 47.7767C127.307 47.9568 127.208 48.1423 127.074 48.3277C126.631 49.016 125.943 49.5763 125.031 49.9872C124.125 50.3954 123.111 50.6035 122.019 50.6035ZM123.134 44.1295C121.757 44.1295 120.63 44.4097 119.787 44.9606C118.947 45.5102 118.539 46.2186 118.539 47.1257C118.539 47.734 118.693 48.289 118.995 48.7786C119.298 49.2695 119.721 49.6644 120.251 49.9539C120.782 50.2433 121.377 50.3888 122.018 50.3888C123.081 50.3888 124.063 50.1873 124.943 49.7924C125.815 49.3989 126.472 48.8653 126.896 48.2076C127.022 48.0355 127.111 47.8701 127.163 47.71C127.215 47.5513 127.242 47.4032 127.242 47.2711V44.8459C126.624 44.6044 125.975 44.4243 125.307 44.3083C124.614 44.1882 123.882 44.1282 123.133 44.1282L123.134 44.1295Z" fill="#F2F2F3"/>
<path d="M136.511 38.2022C135.687 38.2996 134.907 38.6344 134.172 39.208C133.438 39.7817 132.851 40.514 132.415 41.4025V38.1528H131.93V50.7367H132.415V42.7832C132.755 41.5386 133.361 40.5487 134.232 39.8123C135.104 39.0773 136.131 38.6851 137.31 38.6357V38.1501C137.212 38.1501 137.095 38.1541 136.958 38.1622C136.82 38.1702 136.671 38.1822 136.51 38.1982L136.511 38.2022Z" fill="#F2F2F3"/>
<path d="M132.522 50.8448H131.823V38.0461H132.522V40.9717C132.938 40.2406 133.47 39.6203 134.106 39.124C134.854 38.5411 135.658 38.1942 136.498 38.0955H136.5C136.663 38.0795 136.814 38.0675 136.952 38.0581C137.092 38.0501 137.212 38.0461 137.311 38.0461H137.418V38.7412L137.315 38.7452C136.166 38.7919 135.151 39.1801 134.302 39.8964C133.454 40.6115 132.855 41.588 132.522 42.7993V50.8448ZM132.038 50.63H132.309L132.313 42.7566C132.657 41.4959 133.279 40.4794 134.164 39.7324C135.026 39.0066 136.048 38.6038 137.204 38.5357V38.2609C137.134 38.2623 137.054 38.2663 136.967 38.2716C136.831 38.2796 136.683 38.2916 136.524 38.3063C135.724 38.401 134.956 38.7318 134.239 39.2908C133.52 39.8524 132.939 40.5781 132.513 41.4479L132.31 41.8615V38.2583H132.039V50.6287L132.038 50.63Z" fill="#F2F2F3"/>
<path d="M144.58 49.8899C144.564 49.9059 144.361 50.0113 143.974 50.2047C143.586 50.3981 143.11 50.4955 142.545 50.4955C142.125 50.4955 141.745 50.3688 141.406 50.1153C141.068 49.8618 140.881 49.499 140.849 49.0254V38.6387H143.878V38.1531H140.849V33.7642H140.365V38.1531H138.548V38.6387H140.365V49.0214C140.365 49.4136 140.465 49.7565 140.668 50.0499C140.869 50.3434 141.136 50.5729 141.468 50.7356C141.798 50.8984 142.158 50.9798 142.546 50.9798C142.998 50.9798 143.394 50.9224 143.734 50.8103C144.074 50.6969 144.445 50.5195 144.849 50.2767L144.582 49.8885L144.58 49.8899Z" fill="#F2F2F3"/>
<path d="M142.544 51.0877C142.142 51.0877 141.764 51.001 141.418 50.8316C141.072 50.6595 140.788 50.418 140.577 50.1099C140.364 49.7991 140.256 49.4335 140.256 49.02V38.744H138.438V38.045H140.256V33.656H140.954V38.045H143.984V38.744H140.954V49.024C140.985 49.4615 141.153 49.7924 141.468 50.0285C141.786 50.266 142.149 50.3874 142.542 50.3874C143.089 50.3874 143.554 50.2926 143.924 50.1072C144.422 49.8577 144.5 49.8124 144.512 49.8044L144.602 49.7163L144.665 49.8284L144.996 50.31L144.898 50.3687C144.489 50.6141 144.108 50.7969 143.762 50.9116C143.413 51.0277 143.002 51.0864 142.541 51.0864L142.544 51.0877ZM138.652 38.5319H140.469V49.0213C140.469 49.3895 140.565 49.715 140.753 49.9898C140.942 50.266 141.198 50.4847 141.512 50.6395C141.826 50.7942 142.173 50.8729 142.542 50.8729C142.981 50.8729 143.369 50.8182 143.696 50.7089C143.998 50.6075 144.333 50.4514 144.692 50.2433L144.546 50.0325C144.464 50.0779 144.31 50.1566 144.02 50.3006C143.62 50.5021 143.122 50.6035 142.542 50.6035C142.101 50.6035 141.697 50.4687 141.34 50.2019C140.976 49.9298 140.774 49.5376 140.74 49.0333V38.5319H143.769V38.2611H140.74V33.8721H140.469V38.2611H138.652V38.5319Z" fill="#F2F2F3"/>
<path d="M106.485 64.4786C107.244 64.1397 107.846 63.6061 108.29 62.8777C108.734 62.1507 108.957 61.3503 108.957 60.4778C108.957 59.7508 108.8 59.0517 108.485 58.3807C108.17 57.7097 107.717 57.1601 107.128 56.7319C106.537 56.3036 105.838 56.0889 105.032 56.0889H97.4229V73.3045H105.396C106.186 73.3045 106.906 73.099 107.553 72.6868C108.2 72.2746 108.717 71.729 109.104 71.05C109.492 70.3709 109.685 69.6359 109.685 68.8435C109.685 67.8576 109.398 66.9558 108.825 66.1394C108.252 65.323 107.472 64.7694 106.486 64.4786H106.485ZM97.9068 56.5745H105.032C105.71 56.5745 106.308 56.7559 106.825 57.1201C107.342 57.4843 107.746 57.9605 108.037 58.5501C108.328 59.1411 108.473 59.7828 108.473 60.4778C108.473 61.1088 108.32 61.7225 108.013 62.3201C107.706 62.9177 107.286 63.4113 106.753 63.7995C106.22 64.1877 105.598 64.3812 104.888 64.3812H97.9082V56.5731L97.9068 56.5745ZM108.69 70.7471C108.35 71.3528 107.894 71.8504 107.321 72.2386C106.748 72.6268 106.105 72.8202 105.394 72.8202H97.9068V64.8668H105.564C106.258 64.8668 106.88 65.0575 107.43 65.4364C107.98 65.8166 108.412 66.3048 108.726 66.9038C109.041 67.5015 109.198 68.1485 109.198 68.8435C109.198 69.5385 109.029 70.1402 108.689 70.7471H108.69Z" fill="#F2F2F3"/>
<path d="M105.396 73.4112H97.3164V55.9822H105.032C105.859 55.9822 106.585 56.205 107.191 56.6452C107.792 57.0827 108.26 57.651 108.583 58.3354C108.903 59.0171 109.065 59.7375 109.065 60.4778C109.065 61.3663 108.836 62.1921 108.383 62.9338C107.977 63.5981 107.436 64.1091 106.772 64.4586C107.657 64.7734 108.377 65.3164 108.912 66.0781C109.496 66.9092 109.792 67.839 109.792 68.8422C109.792 69.6493 109.592 70.4097 109.196 71.102C108.803 71.7917 108.268 72.356 107.609 72.7762C106.949 73.1978 106.204 73.4112 105.395 73.4112H105.396ZM97.5311 73.1964H105.396C106.164 73.1964 106.869 72.9937 107.495 72.5948C108.124 72.1933 108.635 71.6556 109.011 70.9953C109.387 70.335 109.579 69.6106 109.579 68.8422C109.579 67.883 109.296 66.9946 108.737 66.2008C108.18 65.4084 107.413 64.8628 106.456 64.5813L106.177 64.4986L106.443 64.3799C107.179 64.0517 107.769 63.5274 108.2 62.8217C108.632 62.1147 108.851 61.3263 108.851 60.4778C108.851 59.7695 108.695 59.0785 108.388 58.4261C108.081 57.7751 107.636 57.2348 107.065 56.8186C106.497 56.4051 105.812 56.197 105.032 56.197H97.5297V73.1978L97.5311 73.1964ZM105.396 72.9256H97.8004V64.7587H105.565C106.279 64.7587 106.927 64.9562 107.492 65.347C108.053 65.7352 108.501 66.2422 108.823 66.8532C109.144 67.4641 109.308 68.1338 109.308 68.8422C109.308 69.5506 109.132 70.1789 108.785 70.7979C108.44 71.4155 107.968 71.9305 107.383 72.3253C106.793 72.7242 106.125 72.9256 105.396 72.9256ZM98.015 72.7109H105.396C106.081 72.7109 106.709 72.5214 107.263 72.1479C107.819 71.7717 108.268 71.2821 108.599 70.6925C108.927 70.1055 109.095 69.4825 109.095 68.8409C109.095 68.1672 108.94 67.5308 108.635 66.9519C108.329 66.3716 107.904 65.8913 107.372 65.5231C106.843 65.1576 106.236 64.9722 105.567 64.9722H98.0164V72.7109H98.015ZM104.887 64.4866H97.8004V56.4651H105.032C105.729 56.4651 106.353 56.6545 106.887 57.0294C107.416 57.4029 107.836 57.8965 108.133 58.5008C108.429 59.1038 108.58 59.7681 108.58 60.4752C108.58 61.1195 108.421 61.7558 108.108 62.3668C107.795 62.9778 107.359 63.4874 106.816 63.8836C106.267 64.2838 105.619 64.4866 104.887 64.4866ZM98.015 64.2718H104.887C105.572 64.2718 106.179 64.0824 106.689 63.7102C107.207 63.334 107.619 62.8497 107.917 62.2694C108.215 61.6891 108.365 61.0862 108.365 60.4752C108.365 59.8002 108.223 59.1678 107.94 58.5942C107.659 58.0232 107.263 57.555 106.763 57.2041C106.265 56.8546 105.683 56.6785 105.031 56.6785H98.0137V64.2718H98.015Z" fill="#F2F2F3"/>
<path d="M113.612 60.7207H113.127V73.3046H113.612V60.7207Z" fill="#F2F2F3"/>
<path d="M113.719 73.4112H113.021V60.6125H113.719V73.4112ZM113.234 73.1964H113.504V60.826H113.234V73.1964Z" fill="#F2F2F3"/>
<path d="M113.612 55.6047H113.127V57.4724H113.612V55.6047Z" fill="#F2F2F3"/>
<path d="M113.719 57.5791H113.021V55.498H113.719V57.5791ZM113.234 57.3644H113.504V55.7115H113.234V57.3644Z" fill="#F2F2F3"/>
<path d="M127.932 63.6542C127.335 62.7977 126.615 62.0627 125.775 61.4477C124.935 60.834 123.942 60.5259 122.794 60.5259C121.938 60.5259 121.15 60.7046 120.431 61.0595C119.713 61.4157 119.094 61.8999 118.577 62.5136C118.059 63.1286 117.66 63.8276 117.377 64.6107C117.094 65.3951 116.953 66.2075 116.953 67.0479C116.953 67.8884 117.102 68.6448 117.401 69.4118C117.7 70.1802 118.119 70.8753 118.661 71.4969C119.202 72.1199 119.843 72.6162 120.587 72.9883C121.33 73.3605 122.138 73.546 123.011 73.546C123.965 73.546 124.89 73.2792 125.786 72.7456C126.683 72.2119 127.398 71.5249 127.931 70.6845V73.8368C127.931 74.7906 127.7 75.595 127.24 76.2487C126.78 76.9037 126.166 77.396 125.399 77.7281C124.631 78.059 123.787 78.2257 122.867 78.2257C121.85 78.2257 120.893 78.015 119.995 77.5947C119.098 77.1745 118.391 76.4955 117.874 75.5577L117.414 75.7031C117.882 76.5916 118.537 77.3159 119.377 77.8735C120.217 78.4312 121.379 78.71 122.866 78.71C123.819 78.71 124.719 78.5366 125.568 78.1884C126.416 77.8402 127.103 77.3039 127.628 76.5755C128.154 75.8485 128.416 74.9347 128.416 73.8355V60.718H127.931V63.6515L127.932 63.6542ZM127.932 69.2064C127.9 69.6586 127.739 70.1122 127.448 70.5644C127.158 71.0167 126.778 71.4329 126.31 71.8131C125.842 72.1933 125.324 72.4961 124.759 72.7229C124.194 72.9497 123.611 73.0617 123.014 73.0617C122.238 73.0617 121.515 72.9003 120.845 72.5761C120.174 72.2533 119.581 71.8091 119.063 71.2421C118.546 70.6765 118.146 70.0335 117.864 69.3144C117.581 68.5954 117.44 67.839 117.44 67.0479C117.44 66.3369 117.561 65.6259 117.804 64.9148C118.046 64.2038 118.393 63.5528 118.845 62.9631C119.297 62.3735 119.858 61.8999 120.529 61.5451C121.199 61.1902 121.954 61.0115 122.794 61.0115C123.521 61.0115 124.223 61.1689 124.902 61.4837C125.58 61.7985 126.19 62.2321 126.731 62.7804C127.272 63.33 127.672 63.961 127.931 64.672V69.2064H127.932Z" fill="#F2F2F3"/>
<path d="M122.867 78.8193C121.368 78.8193 120.173 78.5325 119.318 77.9642C118.468 77.3986 117.794 76.6555 117.32 75.7551L117.26 75.6417L117.926 75.4322L117.969 75.5083C118.473 76.4207 119.169 77.0904 120.041 77.5C120.918 77.9122 121.869 78.1203 122.867 78.1203C123.769 78.1203 124.607 77.9562 125.358 77.632C126.103 77.3105 126.707 76.8249 127.154 76.1899C127.599 75.5563 127.825 74.7652 127.825 73.8394V71.0379C127.309 71.7596 126.642 72.364 125.842 72.8415C124.933 73.3818 123.981 73.6566 123.013 73.6566C122.128 73.6566 121.297 73.4645 120.542 73.0883C119.789 72.7121 119.13 72.2012 118.582 71.5715C118.036 70.9446 117.605 70.2322 117.302 69.4558C117 68.678 116.846 67.8696 116.846 67.0519C116.846 66.2341 116.992 65.3723 117.277 64.5786C117.562 63.7862 117.973 63.0698 118.496 62.4495C119.02 61.8265 119.656 61.3276 120.384 60.9674C121.114 60.6059 121.925 60.4231 122.794 60.4231C123.959 60.4231 124.983 60.7393 125.838 61.3649C126.594 61.9185 127.262 62.5775 127.825 63.3273V60.6165H128.523V73.8407C128.523 74.9573 128.251 75.9005 127.715 76.6435C127.182 77.3839 126.473 77.9389 125.609 78.2924C124.751 78.6432 123.829 78.822 122.866 78.822L122.867 78.8193ZM117.572 75.7684C118.025 76.5862 118.653 77.2652 119.438 77.7868C120.257 78.3297 121.41 78.6059 122.869 78.6059C123.803 78.6059 124.699 78.4324 125.53 78.0923C126.355 77.7534 127.033 77.2238 127.543 76.5168C128.053 75.8111 128.311 74.9106 128.311 73.8394V60.8286H128.041V63.9956L127.846 63.7168C127.258 62.8737 126.541 62.1387 125.714 61.5357C124.897 60.938 123.915 60.6352 122.797 60.6352C121.961 60.6352 121.182 60.8113 120.481 61.1568C119.778 61.5037 119.166 61.9852 118.662 62.5856C118.156 63.1872 117.758 63.8809 117.481 64.6506C117.204 65.4204 117.062 66.2288 117.062 67.0505C117.062 67.8723 117.21 68.6234 117.504 69.3757C117.797 70.1295 118.214 70.8205 118.745 71.4288C119.274 72.0371 119.912 72.5307 120.638 72.8949C121.364 73.2578 122.162 73.4419 123.014 73.4419C123.943 73.4419 124.858 73.1777 125.734 72.6561C126.613 72.1332 127.322 71.4528 127.843 70.6297L128.041 70.3189V73.8394C128.041 74.8106 127.802 75.643 127.33 76.314C126.861 76.9824 126.226 77.492 125.443 77.8295C124.666 78.1643 123.799 78.3351 122.869 78.3351C121.84 78.3351 120.858 78.1203 119.952 77.6947C119.062 77.2785 118.348 76.6035 117.826 75.6897L117.573 75.7697L117.572 75.7684ZM123.014 73.1697C122.225 73.1697 121.48 73.003 120.8 72.6735C120.12 72.3453 119.509 71.889 118.985 71.3154C118.461 70.7418 118.05 70.0828 117.765 69.3544C117.478 68.626 117.333 67.8496 117.333 67.0479C117.333 66.3288 117.457 65.5991 117.702 64.8801C117.946 64.161 118.304 63.494 118.761 62.8977C119.22 62.2987 119.798 61.8118 120.48 61.4503C121.164 61.0874 121.942 60.9047 122.795 60.9047C123.534 60.9047 124.259 61.0674 124.949 61.3876C125.635 61.7064 126.261 62.1507 126.809 62.7069C127.358 63.2659 127.77 63.9156 128.033 64.6373L128.039 64.6733V69.2157C128.005 69.6852 127.837 70.1588 127.538 70.6244C127.242 71.0846 126.851 71.5128 126.377 71.8984C125.902 72.2826 125.371 72.5934 124.798 72.8242C124.223 73.055 123.623 73.171 123.014 73.171V73.1697ZM122.795 61.1195C121.978 61.1195 121.233 61.2942 120.58 61.6397C119.925 61.9866 119.37 62.4548 118.93 63.0284C118.488 63.6061 118.142 64.2531 117.905 64.9494C117.668 65.6458 117.548 66.3515 117.548 67.0479C117.548 67.8229 117.688 68.5727 117.964 69.2757C118.241 69.9801 118.637 70.6164 119.142 71.17C119.648 71.7236 120.236 72.1639 120.892 72.4787C121.544 72.7935 122.257 72.9536 123.014 72.9536C123.595 72.9536 124.169 72.8415 124.719 72.6214C125.273 72.4 125.785 72.0998 126.243 71.729C126.701 71.3581 127.077 70.9459 127.359 70.5057C127.638 70.0721 127.795 69.6345 127.827 69.2023V64.6906C127.575 64.005 127.182 63.3873 126.659 62.8564C126.129 62.3187 125.523 61.8892 124.861 61.581C124.199 61.2742 123.505 61.1181 122.797 61.1181L122.795 61.1195Z" fill="#F2F2F3"/>
<path d="M132.803 71.7532H132.318V73.3046H132.803V71.7532Z" fill="#F2F2F3"/>
<path d="M132.91 73.4113H132.211V71.645H132.91V73.4113ZM132.425 73.1965H132.695V71.8585H132.425V73.1965Z" fill="#F2F2F3"/>
<path d="M81.9069 59.8255L81.8149 60.031C81.4523 60.846 80.8776 61.5824 80.1057 62.2188C79.323 62.8631 78.4258 63.3767 77.4351 63.7449C76.4485 64.1131 75.3886 64.2985 74.2819 64.2985C72.534 64.2985 70.9274 63.8303 69.5048 62.9058C68.0742 61.9786 66.917 60.6926 66.065 59.0851C65.2104 57.4763 64.7771 55.5993 64.7771 53.5049C64.7771 51.4105 65.1984 49.4628 66.0317 47.8526C66.861 46.2478 68.0156 44.9871 69.4635 44.108C70.9128 43.2276 72.534 42.782 74.2833 42.782C75.8459 42.782 77.2911 43.1435 78.5764 43.8546C79.859 44.5656 80.9056 45.6021 81.6856 46.9335L81.7869 47.1069L91.5998 44.1094L91.4652 43.8399C90.7452 42.3991 89.8266 41.0784 88.7333 39.9125C87.6427 38.7492 86.3481 37.7087 84.8868 36.8216C83.4229 35.9331 81.7936 35.2581 80.043 34.8152C78.2964 34.3723 76.3819 34.1482 74.3526 34.1482C72.3234 34.1482 70.4021 34.3696 68.6449 34.8085C66.8836 35.2474 65.237 35.9144 63.7504 36.7922C63.4371 36.9763 63.1318 37.1684 62.8331 37.3672H56.2948C56.5068 37.0657 56.7414 36.7869 56.9974 36.5361C57.3614 36.1786 57.7907 35.8197 58.272 35.4715C58.7507 35.1247 59.3186 34.7712 59.9573 34.419C60.5959 34.0681 61.3279 33.6759 62.1332 33.2531L62.1385 33.2504C62.7118 32.9329 63.3145 32.5554 63.9304 32.1285C64.5504 31.6989 65.133 31.2013 65.6623 30.649C66.1983 30.0901 66.645 29.4337 66.993 28.7C67.3449 27.9556 67.5236 27.0925 67.5236 26.1347C67.5236 24.7513 67.1756 23.524 66.489 22.4861C65.8037 21.4509 64.8051 20.6318 63.5211 20.0502C62.2465 19.4726 60.6932 19.1804 58.9013 19.1804C57.72 19.1804 56.5934 19.3072 55.5535 19.5579C54.5175 19.8074 53.5602 20.1276 52.7069 20.5078C51.851 20.8906 51.103 21.3042 50.4844 21.7391C49.8671 22.1726 49.3644 22.5822 48.9911 22.9557L48.8231 23.1238L52.487 27.35L52.6776 27.1112C52.9776 26.735 53.3216 26.3722 53.7002 26.032C54.0762 25.6945 54.4895 25.381 54.9308 25.1035C55.3628 24.8314 55.8388 24.6192 56.3454 24.4698C56.8508 24.3218 57.4094 24.247 58.0067 24.247C58.74 24.247 59.356 24.3724 59.836 24.6206C60.3119 24.866 60.6852 25.1955 60.9452 25.5971C61.2026 25.9946 61.3332 26.4415 61.3332 26.9244C61.3332 27.3713 61.2092 27.7529 60.9559 28.0917C60.6892 28.4479 60.2839 28.8067 59.7546 29.1549C59.204 29.5178 58.5227 29.918 57.7307 30.3462C56.9148 30.7851 55.9721 31.296 54.9268 31.863H54.9242C53.6936 32.554 52.663 33.2744 51.8603 34.0068C51.607 34.2376 51.371 34.4737 51.1497 34.7165H44.97V22.5995H34.9158V34.7178H30V42.5686H34.9158V63.5701C34.9158 64.6694 35.0291 65.6792 35.2531 66.5717C35.4784 67.4721 35.8224 68.2792 36.2757 68.9703C37.1783 70.3496 38.4036 71.3675 39.9182 71.9972C41.4155 72.6188 43.0781 72.9336 44.8606 72.9336C46.1966 72.9336 47.5445 72.8002 48.8645 72.5361C50.1791 72.2733 51.427 71.9211 52.5723 71.4916C53.7122 71.0633 54.6975 70.6791 55.5015 70.3483L55.7055 70.2643L53.6549 62.2081L53.3829 62.3215C52.8229 62.5563 52.0616 62.8417 51.1177 63.1712C50.2004 63.4927 49.2458 63.6555 48.2805 63.6555C47.3152 63.6555 46.5646 63.3914 45.9513 62.8711C45.346 62.3602 45.018 61.501 44.974 60.3178V42.5659H48.6871V42.5846H57.6081C57.3427 42.9874 57.0921 43.4023 56.8588 43.8292C56.0561 45.286 55.4455 46.8401 55.0442 48.4449C54.6429 50.0484 54.4402 51.7507 54.4402 53.5022C54.4402 56.0609 54.9135 58.5355 55.8481 60.8594C56.7828 63.1819 58.1294 65.2843 59.8533 67.108C60.7172 68.0218 61.6839 68.8462 62.7265 69.5572C63.7691 70.2683 64.917 70.8873 66.1383 71.3969C67.3609 71.9064 68.6782 72.2946 70.0541 72.5494C71.4287 72.8042 72.9007 72.9323 74.4286 72.9323C77.1991 72.9323 79.7337 72.5068 81.9629 71.669C84.1908 70.8312 86.1587 69.6506 87.8133 68.1632C89.4692 66.6757 90.7479 64.9682 91.6145 63.0912L91.7371 62.8257L81.9096 59.8228L81.9069 59.8255ZM44.462 42.0603V60.3351C44.5113 61.6705 44.9006 62.655 45.6206 63.2633C46.3286 63.8636 47.2232 64.1678 48.2792 64.1678C49.3351 64.1678 50.3124 63.9957 51.2843 63.6542C52.0936 63.3714 52.7709 63.1206 53.3056 62.9058L55.1028 69.9628C54.3429 70.2723 53.4336 70.6258 52.3936 71.0167C51.2737 71.4369 50.0524 71.781 48.7645 72.0385C47.4765 72.296 46.1633 72.4254 44.8606 72.4254C43.1461 72.4254 41.5488 72.1226 40.1142 71.5276C38.6956 70.9379 37.5477 69.9841 36.7024 68.6914C35.8557 67.4001 35.4264 65.6779 35.4264 63.5715V42.0603H30.5093V35.2274H35.4251V23.1091H44.4633V35.2274H50.7177C50.4204 35.5996 50.1617 35.9838 49.9431 36.3773C49.4778 37.2124 49.1471 38.1263 48.9618 39.0948C48.7911 39.9779 48.6991 40.9784 48.6871 42.0683C47.3565 42.0683 44.4633 42.0603 44.4633 42.0603H44.462ZM49.1938 42.079C49.2058 41.0157 49.2951 40.0446 49.4604 39.1895C49.6351 38.2757 49.9471 37.4125 50.3871 36.6241C50.8257 35.8371 51.4363 35.0833 52.2043 34.383C52.9776 33.6773 53.9762 32.9796 55.1722 32.3099C56.2148 31.7429 57.1574 31.2333 57.972 30.7944C58.7773 30.3596 59.472 29.9513 60.0346 29.5805C60.6132 29.199 61.0599 28.8014 61.3625 28.3972C61.6799 27.973 61.8412 27.4767 61.8412 26.9244C61.8412 26.3415 61.6839 25.8025 61.3719 25.3196C61.0626 24.842 60.6239 24.4538 60.0679 24.167C59.5146 23.8815 58.82 23.7375 58.0054 23.7375C57.3601 23.7375 56.7534 23.8188 56.2015 23.9816C55.6495 24.143 55.1295 24.3764 54.6589 24.6726C54.1935 24.9661 53.7562 25.2956 53.3589 25.6531C53.0389 25.9413 52.7429 26.2441 52.4736 26.5589L49.5204 23.1518C49.8511 22.8437 50.2724 22.5101 50.7764 22.1566C51.3683 21.7404 52.087 21.3429 52.9136 20.9734C53.7376 20.6052 54.6669 20.2957 55.6721 20.0542C56.6734 19.8127 57.76 19.6914 58.9013 19.6914C60.6199 19.6914 62.1038 19.9688 63.3118 20.5158C64.5077 21.0574 65.433 21.8165 66.065 22.7703C66.6956 23.7214 67.0156 24.854 67.0156 26.1374C67.0156 27.0178 66.853 27.8076 66.5343 28.4839C66.2103 29.1683 65.7943 29.7779 65.297 30.2982C64.7917 30.8251 64.2344 31.3 63.6424 31.7109C63.0398 32.1271 62.4532 32.4953 61.8959 32.8048C61.0892 33.229 60.3559 33.6226 59.7146 33.9748C59.056 34.3363 58.472 34.7018 57.976 35.0607C57.4734 35.4235 57.0254 35.7984 56.6428 36.1746C56.2521 36.5588 55.9041 37.003 55.6108 37.4926L55.3802 37.8781H62.1065C61.2692 38.4904 60.4959 39.1575 59.792 39.8752C59.1227 40.5582 58.5067 41.2986 57.9494 42.087L49.1964 42.0816L49.1938 42.079ZM87.4693 67.787C85.8614 69.2331 83.9482 70.379 81.7789 71.1954C79.607 72.0118 77.1325 72.4267 74.4233 72.4267C71.4327 72.4267 68.7089 71.9238 66.329 70.9299C63.9518 69.9388 61.8959 68.5354 60.2173 66.7611C58.5373 64.9842 57.2241 62.9365 56.3148 60.6726C55.4055 58.4101 54.9442 55.9982 54.9442 53.5062C54.9442 50.0871 55.7361 46.9148 57.2987 44.0787C58.86 41.2425 61.1172 38.9387 64.0091 37.2311C66.901 35.5236 70.3808 34.6578 74.3526 34.6578C78.3244 34.6578 81.7776 35.5329 84.6228 37.2578C87.3733 38.928 89.4746 41.1278 90.8732 43.7999L82.0216 46.5039C81.2056 45.1766 80.131 44.136 78.8231 43.4103C77.4605 42.6566 75.9325 42.2737 74.2833 42.2737C72.4394 42.2737 70.7288 42.7446 69.1995 43.6745C67.6689 44.6043 66.4516 45.9316 65.5784 47.6218C64.7091 49.3054 64.2677 51.2864 64.2677 53.5076C64.2677 54.5948 64.3811 55.634 64.6037 56.5985C64.8277 57.5657 65.1677 58.4835 65.6157 59.3266C66.509 61.0115 67.7249 62.3602 69.2289 63.3353C70.7354 64.3132 72.4354 64.8094 74.2833 64.8094C75.4499 64.8094 76.5698 64.612 77.6138 64.2238C78.6564 63.8356 79.603 63.294 80.4297 62.6136C81.199 61.98 81.7883 61.2503 82.1856 60.4445L91.0252 63.1459C90.1919 64.8575 88.9973 66.4183 87.4707 67.7883L87.4693 67.787Z" fill="#F2F2F3"/>
</g>
</g>
<defs>
<filter id="filter0_d_458_13761" x="0.299999" y="0.299999" width="174.4" height="105.4" filterUnits="userSpaceOnUse" color-interpolation-filters="sRGB">
<feFlood flood-opacity="0" result="BackgroundImageFix"/>
<feColorMatrix in="SourceAlpha" type="matrix" values="0 0 0 0 0 0 0 0 0 0 0 0 0 0 0 0 0 0 127 0" result="hardAlpha"/>
<feOffset dy="4"/>
<feGaussianBlur stdDeviation="8.85"/>
<feComposite in2="hardAlpha" operator="out"/>
<feColorMatrix type="matrix" values="0 0 0 0 0.0429515 0 0 0 0 0.110978 0 0 0 0 0.242171 0 0 0 1 0"/>
<feBlend mode="normal" in2="BackgroundImageFix" result="effect1_dropShadow_458_13761"/>
<feBlend mode="normal" in="SourceGraphic" in2="effect1_dropShadow_458_13761" result="shape"/>
</filter>
<clipPath id="clip0_458_13761">
<rect width="115" height="59.639" fill="white" transform="translate(30 19.1804)"/>
</clipPath>
</defs>
</svg>
