<svg width="71" height="44" viewBox="0 0 71 44" fill="none" xmlns="http://www.w3.org/2000/svg">
<mask id="path-1-outside-1_971_15583" maskUnits="userSpaceOnUse" x="0" y="0" width="71" height="44" fill="black">
<rect fill="white" width="71" height="44"/>
<path d="M5.45149 43L7.93339 34.3698H1.16458V27.0369H10.0204L12.9536 16.8837H6.18478V9.55078H15.0406L17.5225 0.976948H25.9836L23.5017 9.55078H31.9627L34.3882 0.976948H42.8492L40.4237 9.55078H47.1925V16.8837H38.2802L35.4035 27.0369H42.1723V34.3698H33.26L30.8345 43H22.3735L24.799 34.3698H16.3944L13.9125 43H5.45149ZM18.4815 27.0369H26.9425L29.8192 16.8837H21.4146L18.4815 27.0369ZM60.7332 43V8.36624H52.5542V0.976948H69.4763V43H60.7332Z"/>
</mask>
<path d="M5.45149 43L7.93339 34.3698H1.16458V27.0369H10.0204L12.9536 16.8837H6.18478V9.55078H15.0406L17.5225 0.976948H25.9836L23.5017 9.55078H31.9627L34.3882 0.976948H42.8492L40.4237 9.55078H47.1925V16.8837H38.2802L35.4035 27.0369H42.1723V34.3698H33.26L30.8345 43H22.3735L24.799 34.3698H16.3944L13.9125 43H5.45149ZM18.4815 27.0369H26.9425L29.8192 16.8837H21.4146L18.4815 27.0369ZM60.7332 43V8.36624H52.5542V0.976948H69.4763V43H60.7332Z" fill="#984700"/>
<path d="M5.45149 43L4.60447 42.7564L4.28095 43.8814H5.45149V43ZM7.93339 34.3698L8.78042 34.6133L9.10393 33.4884H7.93339V34.3698ZM1.16458 34.3698H0.283221V35.2511H1.16458V34.3698ZM1.16458 27.0369V26.1555H0.283221V27.0369H1.16458ZM10.0204 27.0369V27.9182H10.6832L10.8672 27.2815L10.0204 27.0369ZM12.9536 16.8837L13.8003 17.1283L14.1256 16.0023H12.9536V16.8837ZM6.18478 16.8837H5.30342V17.765H6.18478V16.8837ZM6.18478 9.55078V8.66942H5.30342V9.55078H6.18478ZM15.0406 9.55078V10.4321H15.7031L15.8872 9.79585L15.0406 9.55078ZM17.5225 0.976948V0.0955925H16.8601L16.6759 0.73188L17.5225 0.976948ZM25.9836 0.976948L26.8302 1.22202L27.1562 0.0955925H25.9836V0.976948ZM23.5017 9.55078L22.6551 9.30571L22.329 10.4321H23.5017V9.55078ZM31.9627 9.55078V10.4321H32.6293L32.8108 9.79069L31.9627 9.55078ZM34.3882 0.976948V0.0955925H33.7216L33.5401 0.737033L34.3882 0.976948ZM42.8492 0.976948L43.6973 1.21686L44.0145 0.0955925H42.8492V0.976948ZM40.4237 9.55078L39.5756 9.31086L39.2584 10.4321H40.4237V9.55078ZM47.1925 9.55078H48.0739V8.66942H47.1925V9.55078ZM47.1925 16.8837V17.765H48.0739V16.8837H47.1925ZM38.2802 16.8837V16.0023H37.6139L37.4323 16.6434L38.2802 16.8837ZM35.4035 27.0369L34.5555 26.7966L34.2377 27.9182H35.4035V27.0369ZM42.1723 27.0369H43.0537V26.1555H42.1723V27.0369ZM42.1723 34.3698V35.2511H43.0537V34.3698H42.1723ZM33.26 34.3698V33.4884H32.5922L32.4116 34.1313L33.26 34.3698ZM30.8345 43V43.8814H31.5023L31.683 43.2385L30.8345 43ZM22.3735 43L21.525 42.7615L21.2103 43.8814H22.3735V43ZM24.799 34.3698L25.6475 34.6082L25.9622 33.4884H24.799V34.3698ZM16.3944 34.3698V33.4884H15.7308L15.5474 34.1262L16.3944 34.3698ZM13.9125 43V43.8814H14.5761L14.7595 43.2436L13.9125 43ZM18.4815 27.0369L17.6347 26.7923L17.3094 27.9182H18.4815V27.0369ZM26.9425 27.0369V27.9182H27.6088L27.7905 27.2771L26.9425 27.0369ZM29.8192 16.8837L30.6672 17.1239L30.985 16.0023H29.8192V16.8837ZM21.4146 16.8837V16.0023H20.7518L20.5679 16.639L21.4146 16.8837ZM5.45149 43L6.29852 43.2436L8.78042 34.6133L7.93339 34.3698L7.08636 34.1262L4.60447 42.7564L5.45149 43ZM7.93339 34.3698V33.4884H1.16458V34.3698V35.2511H7.93339V34.3698ZM1.16458 34.3698H2.04593V27.0369H1.16458H0.283221V34.3698H1.16458ZM1.16458 27.0369V27.9182H10.0204V27.0369V26.1555H1.16458V27.0369ZM10.0204 27.0369L10.8672 27.2815L13.8003 17.1283L12.9536 16.8837L12.1069 16.639L9.17371 26.7923L10.0204 27.0369ZM12.9536 16.8837V16.0023H6.18478V16.8837V17.765H12.9536V16.8837ZM6.18478 16.8837H7.06614V9.55078H6.18478H5.30342V16.8837H6.18478ZM6.18478 9.55078V10.4321H15.0406V9.55078V8.66942H6.18478V9.55078ZM15.0406 9.55078L15.8872 9.79585L18.3691 1.22202L17.5225 0.976948L16.6759 0.73188L14.194 9.30571L15.0406 9.55078ZM17.5225 0.976948V1.8583H25.9836V0.976948V0.0955925H17.5225V0.976948ZM25.9836 0.976948L25.137 0.731879L22.6551 9.30571L23.5017 9.55078L24.3483 9.79585L26.8302 1.22202L25.9836 0.976948ZM23.5017 9.55078V10.4321H31.9627V9.55078V8.66942H23.5017V9.55078ZM31.9627 9.55078L32.8108 9.79069L35.2362 1.21686L34.3882 0.976948L33.5401 0.737033L31.1146 9.31086L31.9627 9.55078ZM34.3882 0.976948V1.8583H42.8492V0.976948V0.0955925H34.3882V0.976948ZM42.8492 0.976948L42.0011 0.737033L39.5756 9.31086L40.4237 9.55078L41.2718 9.79069L43.6973 1.21686L42.8492 0.976948ZM40.4237 9.55078V10.4321H47.1925V9.55078V8.66942H40.4237V9.55078ZM47.1925 9.55078H46.3112V16.8837H47.1925H48.0739V9.55078H47.1925ZM47.1925 16.8837V16.0023H38.2802V16.8837V17.765H47.1925V16.8837ZM38.2802 16.8837L37.4323 16.6434L34.5555 26.7966L35.4035 27.0369L36.2515 27.2771L39.1282 17.1239L38.2802 16.8837ZM35.4035 27.0369V27.9182H42.1723V27.0369V26.1555H35.4035V27.0369ZM42.1723 27.0369H41.291V34.3698H42.1723H43.0537V27.0369H42.1723ZM42.1723 34.3698V33.4884H33.26V34.3698V35.2511H42.1723V34.3698ZM33.26 34.3698L32.4116 34.1313L29.9861 42.7615L30.8345 43L31.683 43.2385L34.1085 34.6082L33.26 34.3698ZM30.8345 43V42.1186H22.3735V43V43.8814H30.8345V43ZM22.3735 43L23.222 43.2385L25.6475 34.6082L24.799 34.3698L23.9505 34.1313L21.525 42.7615L22.3735 43ZM24.799 34.3698V33.4884H16.3944V34.3698V35.2511H24.799V34.3698ZM16.3944 34.3698L15.5474 34.1262L13.0655 42.7564L13.9125 43L14.7595 43.2436L17.2414 34.6133L16.3944 34.3698ZM13.9125 43V42.1186H5.45149V43V43.8814H13.9125V43ZM18.4815 27.0369V27.9182H26.9425V27.0369V26.1555H18.4815V27.0369ZM26.9425 27.0369L27.7905 27.2771L30.6672 17.1239L29.8192 16.8837L28.9712 16.6434L26.0945 26.7966L26.9425 27.0369ZM29.8192 16.8837V16.0023H21.4146V16.8837V17.765H29.8192V16.8837ZM21.4146 16.8837L20.5679 16.639L17.6347 26.7923L18.4815 27.0369L19.3282 27.2815L22.2613 17.1283L21.4146 16.8837ZM60.7332 43H59.8519V43.8814H60.7332V43ZM60.7332 8.36624H61.6146V7.48488H60.7332V8.36624ZM52.5542 8.36624H51.6729V9.24759H52.5542V8.36624ZM52.5542 0.976948V0.0955925H51.6729V0.976948H52.5542ZM69.4763 0.976948H70.3576V0.0955925H69.4763V0.976948ZM69.4763 43V43.8814H70.3576V43H69.4763ZM60.7332 43H61.6146V8.36624H60.7332H59.8519V43H60.7332ZM60.7332 8.36624V7.48488H52.5542V8.36624V9.24759H60.7332V8.36624ZM52.5542 8.36624H53.4356V0.976948H52.5542H51.6729V8.36624H52.5542ZM52.5542 0.976948V1.8583H69.4763V0.976948V0.0955925H52.5542V0.976948ZM69.4763 0.976948H68.5949V43H69.4763H70.3576V0.976948H69.4763ZM69.4763 43V42.1186H60.7332V43V43.8814H69.4763V43Z" fill="#D66704" mask="url(#path-1-outside-1_971_15583)"/>
</svg>
