<svg width="24" height="24" viewBox="0 0 24 24" fill="none" xmlns="http://www.w3.org/2000/svg">
<path d="M9.5 15.5851V8.41714C9.50015 8.32745 9.52442 8.23946 9.57026 8.16238C9.61611 8.0853 9.68184 8.02197 9.76057 7.97902C9.83931 7.93608 9.92814 7.9151 10.0178 7.91828C10.1074 7.92147 10.1945 7.94871 10.27 7.99714L15.846 11.5801C15.9166 11.6254 15.9747 11.6876 16.0149 11.7612C16.0552 11.8348 16.0763 11.9173 16.0763 12.0011C16.0763 12.085 16.0552 12.1675 16.0149 12.2411C15.9747 12.3146 15.9166 12.3769 15.846 12.4221L10.27 16.0061C10.1945 16.0546 10.1074 16.0818 10.0178 16.085C9.92814 16.0882 9.83931 16.0672 9.76057 16.0243C9.68184 15.9813 9.61611 15.918 9.57026 15.8409C9.52442 15.7638 9.50015 15.6758 9.5 15.5861V15.5851Z" fill="white"/>
<path d="M1 12C1 5.925 5.925 1 12 1C18.075 1 23 5.925 23 12C23 18.075 18.075 23 12 23C5.925 23 1 18.075 1 12ZM12 2.5C9.48044 2.5 7.06408 3.50089 5.28249 5.28249C3.50089 7.06408 2.5 9.48044 2.5 12C2.5 14.5196 3.50089 16.9359 5.28249 18.7175C7.06408 20.4991 9.48044 21.5 12 21.5C14.5196 21.5 16.9359 20.4991 18.7175 18.7175C20.4991 16.9359 21.5 14.5196 21.5 12C21.5 9.48044 20.4991 7.06408 18.7175 5.28249C16.9359 3.50089 14.5196 2.5 12 2.5Z" fill="white"/>
</svg>
