<svg width="13" height="10" viewBox="0 0 13 10" fill="none" xmlns="http://www.w3.org/2000/svg">
<g id="Frame 2095585390">
<path id="Vector" d="M1.03176 0.46875H11.5635C11.6952 0.468954 11.8245 0.502167 11.9378 0.564908C12.051 0.627649 12.1441 0.717609 12.2072 0.82536C12.2703 0.933111 12.3011 1.05469 12.2964 1.17735C12.2917 1.30001 12.2517 1.41924 12.1806 1.52254L6.91617 9.15362C6.84971 9.25025 6.75822 9.32975 6.65013 9.38482C6.54204 9.43989 6.42081 9.46875 6.29761 9.46875C6.17441 9.46875 6.05318 9.43989 5.94509 9.38482C5.837 9.32975 5.74551 9.25025 5.67905 9.15362L0.413196 1.52254C0.34204 1.41924 0.302022 1.30001 0.297338 1.17735C0.292656 1.05469 0.323481 0.933111 0.386579 0.82536C0.449677 0.717609 0.542727 0.627649 0.655979 0.564908C0.769232 0.502167 0.898518 0.468954 1.03029 0.46875H1.03176Z" fill="#E07E27"/>
</g>
</svg>
