<svg width="13" height="10" viewBox="0 0 13 10" fill="none" xmlns="http://www.w3.org/2000/svg">
<g id="Frame 2095585390">
<path id="Vector" d="M1.52394 0.46875H12.0557C12.1874 0.468954 12.3167 0.502167 12.43 0.564908C12.5432 0.627649 12.6363 0.717609 12.6994 0.82536C12.7625 0.933111 12.7933 1.05469 12.7886 1.17735C12.7839 1.30001 12.7439 1.41924 12.6727 1.52254L7.40836 9.15362C7.34189 9.25025 7.25041 9.32975 7.14231 9.38482C7.03422 9.43989 6.913 9.46875 6.7898 9.46875C6.66659 9.46875 6.54537 9.43989 6.43728 9.38482C6.32919 9.32975 6.2377 9.25025 6.17124 9.15362L0.905383 1.52254C0.834228 1.41924 0.794209 1.30001 0.789526 1.17735C0.784843 1.05469 0.815668 0.933111 0.878766 0.82536C0.941864 0.717609 1.03491 0.627649 1.14817 0.564908C1.26142 0.502167 1.39071 0.468954 1.52247 0.46875H1.52394Z" fill="white"/>
</g>
</svg>
