<svg width="132" height="132" viewBox="0 0 132 132" fill="none" xmlns="http://www.w3.org/2000/svg">
<path d="M100.855 65.9994C100.862 72.9705 98.7951 79.7862 94.918 85.5797C91.0409 91.3732 85.5284 95.8828 79.0816 98.5351C72.6344 101.195 65.544 101.887 58.7042 100.523C51.8644 99.1598 45.5813 95.802 40.6469 90.8731C35.717 85.9435 32.3622 79.6607 31.0083 72.8217C29.6544 65.9827 30.3623 58.8956 33.0422 52.4595C35.7221 46.0234 40.2533 40.5283 46.0609 36.6713C51.8685 32.8143 58.6909 30.7691 65.6626 30.7952C75.0038 30.7979 83.9624 34.5069 90.5718 41.108C93.8371 44.3776 96.4256 48.2591 98.1891 52.5303C99.9526 56.8015 100.856 61.3785 100.849 65.9994M13.9509 72.2001H7.12901C5.4834 72.2001 3.90501 71.5472 2.74028 70.3847C1.57555 69.2221 0.919641 67.645 0.916507 65.9994C0.915725 65.1839 1.07597 64.3763 1.38804 63.6228C1.70012 62.8694 2.15789 62.185 2.73508 61.6089C3.31228 61.0328 3.99754 60.5764 4.75156 60.2657C5.50558 59.9551 6.31351 59.7964 7.12901 59.7987H13.9509C15.5965 59.7987 17.1749 60.4516 18.3396 61.6141C19.5044 62.7766 20.1603 64.3538 20.1634 65.9994C20.1642 66.8149 20.004 67.6225 19.6919 68.3759C19.3798 69.1294 18.922 69.8138 18.3448 70.3899C17.7677 70.966 17.0824 71.4224 16.3284 71.7331C15.5744 72.0437 14.7664 72.2024 13.9509 72.2001ZM124.871 72.2001H118.108C116.463 72.1985 114.886 71.5449 113.723 70.3826C112.56 69.2202 111.904 67.644 111.901 65.9994C111.901 65.1839 112.061 64.3763 112.373 63.6228C112.685 62.8694 113.143 62.185 113.72 61.6089C114.297 61.0328 114.982 60.5764 115.736 60.2657C116.49 59.9551 117.298 59.7964 118.114 59.7987H124.877C126.521 59.8003 128.098 60.4539 129.261 61.6162C130.425 62.7786 131.08 64.3548 131.083 65.9994C131.084 66.8149 130.924 67.6225 130.612 68.3759C130.3 69.1294 129.842 69.8138 129.265 70.3899C128.687 70.966 128.002 71.4224 127.248 71.7331C126.494 72.0437 125.686 72.2024 124.871 72.2001ZM65.9111 20.1334C64.2655 20.1334 62.6871 19.4805 61.5224 18.318C60.3576 17.1555 59.7017 15.5783 59.6986 13.9327V7.11673C59.6978 6.30073 59.8582 5.49261 60.1707 4.7388C60.4831 3.98499 60.9414 3.30033 61.5193 2.72416C62.0971 2.14799 62.783 1.69165 63.5377 1.38136C64.2924 1.07107 65.101 0.912943 65.917 0.916061C67.5616 0.917624 69.1385 1.57122 70.3019 2.73356C71.4654 3.8959 72.1205 5.47215 72.1236 7.11673V13.9327C72.1244 14.7482 71.9641 15.5559 71.6521 16.3093C71.34 17.0627 70.8822 17.7471 70.305 18.3232C69.7278 18.8993 69.0426 19.3557 68.2885 19.6664C67.5345 19.977 66.7266 20.1357 65.9111 20.1334ZM65.9111 131.083C64.2665 131.083 62.689 130.431 61.5245 129.269C60.3599 128.108 59.7033 126.533 59.6986 124.888V118.066C59.6978 117.251 59.8581 116.443 60.1701 115.69C60.4822 114.936 60.94 114.252 61.5172 113.676C62.0944 113.099 62.7796 112.643 63.5336 112.332C64.2877 112.022 65.0956 111.863 65.9111 111.865C67.5557 111.867 69.1325 112.521 70.296 113.683C71.4594 114.845 72.1145 116.421 72.1177 118.066V124.882C72.1185 125.698 71.9582 126.505 71.6461 127.259C71.3341 128.012 70.8763 128.696 70.2991 129.273C69.7219 129.849 69.0366 130.305 68.2826 130.616C67.5286 130.926 66.7266 131.085 65.9111 131.083ZM29.0384 35.3806C28.2174 35.3776 27.4051 35.2119 26.6485 34.893C25.8919 34.5741 25.206 34.1084 24.6305 33.5228L19.7848 28.7481C18.9107 27.8783 18.315 26.7684 18.0732 25.5593C17.8315 24.3501 17.9546 23.0964 18.4271 21.9575C18.8995 20.8185 19.6999 19.8458 20.7265 19.1628C21.7531 18.4798 22.9596 18.1174 24.1927 18.1217C25.8493 18.1217 27.435 18.7785 28.6006 19.9441L33.4463 24.778C34.6032 25.9391 35.2528 27.5113 35.2528 29.1504C35.2528 30.7895 34.6032 32.3617 33.4463 33.5228C32.8708 34.1084 32.185 34.5741 31.4284 34.893C30.6718 35.2119 29.8595 35.3776 29.0384 35.3806ZM107.559 113.605C105.929 113.599 104.367 112.953 103.21 111.806L98.3699 106.972C97.2088 105.997 96.4457 104.63 96.2252 103.13C96.0046 101.63 96.342 100.101 97.1733 98.8325C98.0046 97.5644 99.2721 96.6452 100.736 96.2491C102.199 95.853 103.758 96.0074 105.115 96.6832C105.888 97.0619 106.559 97.5786 107.127 98.2334L111.966 103.067C113.122 104.228 113.77 105.799 113.77 107.437C113.77 109.074 113.122 110.645 111.966 111.806C111.386 112.381 110.698 112.836 109.942 113.145C109.185 113.453 108.375 113.61 107.559 113.605ZM102.778 35.3806C101.858 35.3842 100.948 35.1832 100.115 34.7923C99.2821 34.4015 98.5463 33.8304 97.9609 33.1205C97.3755 32.4105 96.9551 31.5794 96.7302 30.6871C96.5052 29.7949 96.4812 28.8638 96.66 27.9611C96.8967 26.7541 97.5002 25.6477 98.3758 24.778L103.216 19.9441C104.396 18.8497 105.956 18.2563 107.565 18.2889C109.175 18.3216 110.709 18.9777 111.844 20.1191C112.979 21.2605 113.627 22.798 113.651 24.4076C113.675 26.0173 113.073 27.5734 111.972 28.7481L107.121 33.5228C105.974 34.6897 104.414 35.3573 102.778 35.3806ZM24.1927 113.605C23.3758 113.61 22.566 113.453 21.8096 113.145C21.0532 112.836 20.3651 112.381 19.7848 111.806C18.6282 110.646 17.9788 109.075 17.9788 107.437C17.9788 105.799 18.6282 104.227 19.7848 103.067L24.6305 98.2334C25.2079 97.652 25.8947 97.1906 26.6512 96.8757C27.4077 96.5608 28.219 96.3987 29.0384 96.3987C29.8578 96.3987 30.6692 96.5608 31.4257 96.8757C32.1822 97.1906 32.8689 97.652 33.4463 98.2334C34.6014 99.3942 35.2499 100.965 35.2499 102.603C35.2499 104.24 34.6014 105.811 33.4463 106.972L28.6006 111.806C28.0202 112.381 27.3321 112.836 26.5758 113.145C25.8194 113.453 25.0096 113.61 24.1927 113.605Z" fill="white"/>
</svg>
