<svg width="34" height="34" viewBox="0 0 34 34" fill="none" xmlns="http://www.w3.org/2000/svg">
<path d="M5.231 32.8047L23.3865 14.6486L19.349 10.6111L19.7673 10.1927L1.1935 28.7672C1.1935 30.3822 3.61733 32.8047 5.231 32.8047ZM23.2736 29.7473C23.4472 29.7555 23.6211 29.7424 23.7916 29.7082C23.5326 28.297 22.8751 27.1529 21.7794 26.2232C21.4858 26.5568 21.3041 26.9742 21.26 27.4165C21.2159 27.8588 21.3117 28.3038 21.5337 28.6888C21.7119 28.9968 21.9646 29.2551 22.2686 29.4401C22.5726 29.625 22.9181 29.7307 23.2736 29.7473ZM24.874 29.1264C25.2048 28.7958 25.4173 28.3653 25.4785 27.9016C25.5397 27.4379 25.4463 26.967 25.2126 26.5618C24.9786 26.1568 24.6175 25.8402 24.1853 25.6613C23.753 25.4824 23.2738 25.4512 22.822 25.5724C23.8513 26.5486 24.5419 27.7498 24.874 29.1264ZM23.1208 12.7095C25.6111 8.89113 29.9833 5.59738 32.7325 2.15754C33.0526 1.76574 32.2278 0.948944 31.834 1.26105C28.3988 4.01027 25.1064 8.38644 21.288 10.8767L23.1208 12.7095Z" fill="#E07E27"/>
</svg>
